ISO-10303-21;
HEADER;
FILE_DESCRIPTION(('Designed by EasyEDA Pro'),'2;1');
FILE_NAME('Open CASCADE Shape Model','2024-10-02T21:17:16',('Author'),(
    'Open CASCADE'),'Open CASCADE STEP processor 7.8','Open CASCADE 7.8'
  ,'Unknown');
FILE_SCHEMA(('AUTOMOTIVE_DESIGN { 1 0 10303 214 1 1 1 1 }'));
ENDSEC;
DATA;
#1 = APPLICATION_PROTOCOL_DEFINITION('international standard',
  'automotive_design',2000,#2);
#2 = APPLICATION_CONTEXT(
  'core data for automotive mechanical design processes');
#3 = SHAPE_DEFINITION_REPRESENTATION(#4,#10);
#4 = PRODUCT_DEFINITION_SHAPE('','',#5);
#5 = PRODUCT_DEFINITION('design','',#6,#9);
#6 = PRODUCT_DEFINITION_FORMATION('','',#7);
#7 = PRODUCT('PCBModel','PCBModel','',(#8));
#8 = PRODUCT_CONTEXT('',#2,'mechanical');
#9 = PRODUCT_DEFINITION_CONTEXT('part definition',#2,'design');
#10 = SHAPE_REPRESENTATION('',(#11,#15),#19);
#11 = AXIS2_PLACEMENT_3D('',#12,#13,#14);
#12 = CARTESIAN_POINT('',(0.,0.,0.));
#13 = DIRECTION('',(0.,0.,1.));
#14 = DIRECTION('',(1.,0.,-0.));
#15 = AXIS2_PLACEMENT_3D('',#16,#17,#18);
#16 = CARTESIAN_POINT('',(0.,0.,0.));
#17 = DIRECTION('',(0.,0.,1.));
#18 = DIRECTION('',(1.,0.,-0.));
#19 = ( GEOMETRIC_REPRESENTATION_CONTEXT(3) 
GLOBAL_UNCERTAINTY_ASSIGNED_CONTEXT((#23)) GLOBAL_UNIT_ASSIGNED_CONTEXT(
(#20,#21,#22)) REPRESENTATION_CONTEXT('Context #1',
  '3D Context with UNIT and UNCERTAINTY') );
#20 = ( LENGTH_UNIT() NAMED_UNIT(*) SI_UNIT(.MILLI.,.METRE.) );
#21 = ( NAMED_UNIT(*) PLANE_ANGLE_UNIT() SI_UNIT($,.RADIAN.) );
#22 = ( NAMED_UNIT(*) SI_UNIT($,.STERADIAN.) SOLID_ANGLE_UNIT() );
#23 = UNCERTAINTY_MEASURE_WITH_UNIT(LENGTH_MEASURE(1.E-07),#20,
  'distance_accuracy_value','confusion accuracy');
#24 = PRODUCT_RELATED_PRODUCT_CATEGORY('part',$,(#7));
#25 = SHAPE_DEFINITION_REPRESENTATION(#26,#32);
#26 = PRODUCT_DEFINITION_SHAPE('','',#27);
#27 = PRODUCT_DEFINITION('design','',#28,#31);
#28 = PRODUCT_DEFINITION_FORMATION('','',#29);
#29 = PRODUCT('Board','Board','',(#30));
#30 = PRODUCT_CONTEXT('',#2,'mechanical');
#31 = PRODUCT_DEFINITION_CONTEXT('part definition',#2,'design');
#32 = ADVANCED_BREP_SHAPE_REPRESENTATION('',(#11,#33),#1409);
#33 = MANIFOLD_SOLID_BREP('',#34);
#34 = CLOSED_SHELL('',(#35,#75,#108,#141,#463,#785,#802,#819,#836,#853,
    #870,#887,#904,#921,#938,#955,#972,#989,#1006,#1023,#1040,#1057,
    #1074,#1091,#1108,#1125,#1137,#1159,#1176,#1193,#1205,#1227,#1244,
    #1261,#1273,#1295,#1312,#1329,#1346,#1363,#1380,#1397));
#35 = ADVANCED_FACE('',(#36),#70,.T.);
#36 = FACE_BOUND('',#37,.T.);
#37 = EDGE_LOOP('',(#38,#48,#56,#64));
#38 = ORIENTED_EDGE('',*,*,#39,.T.);
#39 = EDGE_CURVE('',#40,#42,#44,.T.);
#40 = VERTEX_POINT('',#41);
#41 = CARTESIAN_POINT('',(-29.1123989517,-4.130308699769,0.));
#42 = VERTEX_POINT('',#43);
#43 = CARTESIAN_POINT('',(-29.1123989517,-4.130308699769,1.000001524003)
  );
#44 = LINE('',#45,#46);
#45 = CARTESIAN_POINT('',(-29.1123989517,-4.130308699769,0.));
#46 = VECTOR('',#47,1.);
#47 = DIRECTION('',(0.,0.,1.));
#48 = ORIENTED_EDGE('',*,*,#49,.T.);
#49 = EDGE_CURVE('',#42,#50,#52,.T.);
#50 = VERTEX_POINT('',#51);
#51 = CARTESIAN_POINT('',(-25.86975226035,-0.887662008415,1.000001524003
    ));
#52 = LINE('',#53,#54);
#53 = CARTESIAN_POINT('',(-29.1123989517,-4.130308699769,1.000001524003)
  );
#54 = VECTOR('',#55,1.);
#55 = DIRECTION('',(0.707106781187,0.707106781187,0.));
#56 = ORIENTED_EDGE('',*,*,#57,.F.);
#57 = EDGE_CURVE('',#58,#50,#60,.T.);
#58 = VERTEX_POINT('',#59);
#59 = CARTESIAN_POINT('',(-25.86975226035,-0.887662008415,0.));
#60 = LINE('',#61,#62);
#61 = CARTESIAN_POINT('',(-25.86975226035,-0.887662008415,0.));
#62 = VECTOR('',#63,1.);
#63 = DIRECTION('',(0.,0.,1.));
#64 = ORIENTED_EDGE('',*,*,#65,.F.);
#65 = EDGE_CURVE('',#40,#58,#66,.T.);
#66 = LINE('',#67,#68);
#67 = CARTESIAN_POINT('',(-29.1123989517,-4.130308699769,0.));
#68 = VECTOR('',#69,1.);
#69 = DIRECTION('',(0.707106781187,0.707106781187,0.));
#70 = PLANE('',#71);
#71 = AXIS2_PLACEMENT_3D('',#72,#73,#74);
#72 = CARTESIAN_POINT('',(-29.1123989517,-4.130308699769,0.));
#73 = DIRECTION('',(-0.707106781187,0.707106781187,0.));
#74 = DIRECTION('',(0.707106781187,0.707106781187,0.));
#75 = ADVANCED_FACE('',(#76),#103,.T.);
#76 = FACE_BOUND('',#77,.T.);
#77 = EDGE_LOOP('',(#78,#88,#95,#96));
#78 = ORIENTED_EDGE('',*,*,#79,.T.);
#79 = EDGE_CURVE('',#80,#82,#84,.T.);
#80 = VERTEX_POINT('',#81);
#81 = CARTESIAN_POINT('',(-29.98736093472,-6.242651769589,0.));
#82 = VERTEX_POINT('',#83);
#83 = CARTESIAN_POINT('',(-29.98736093472,-6.242651769589,1.000001524003
    ));
#84 = LINE('',#85,#86);
#85 = CARTESIAN_POINT('',(-29.98736093472,-6.242651769589,0.));
#86 = VECTOR('',#87,1.);
#87 = DIRECTION('',(0.,0.,1.));
#88 = ORIENTED_EDGE('',*,*,#89,.T.);
#89 = EDGE_CURVE('',#82,#42,#90,.T.);
#90 = CIRCLE('',#91,2.98730463528);
#91 = AXIS2_PLACEMENT_3D('',#92,#93,#94);
#92 = CARTESIAN_POINT('',(-27.00005629944,-6.242652777656,1.000001524003
    ));
#93 = DIRECTION('',(0.,0.,-1.));
#94 = DIRECTION('',(-1.,3.374504346606E-07,0.));
#95 = ORIENTED_EDGE('',*,*,#39,.F.);
#96 = ORIENTED_EDGE('',*,*,#97,.F.);
#97 = EDGE_CURVE('',#80,#40,#98,.T.);
#98 = CIRCLE('',#99,2.98730463528);
#99 = AXIS2_PLACEMENT_3D('',#100,#101,#102);
#100 = CARTESIAN_POINT('',(-27.00005629944,-6.242652777656,0.));
#101 = DIRECTION('',(0.,0.,-1.));
#102 = DIRECTION('',(-1.,3.374504346606E-07,0.));
#103 = CYLINDRICAL_SURFACE('',#104,2.98730463528);
#104 = AXIS2_PLACEMENT_3D('',#105,#106,#107);
#105 = CARTESIAN_POINT('',(-27.00005629944,-6.242652777656,0.));
#106 = DIRECTION('',(0.,0.,-1.));
#107 = DIRECTION('',(-1.,3.374504346606E-07,0.));
#108 = ADVANCED_FACE('',(#109),#136,.T.);
#109 = FACE_BOUND('',#110,.T.);
#110 = EDGE_LOOP('',(#111,#112,#121,#129));
#111 = ORIENTED_EDGE('',*,*,#57,.T.);
#112 = ORIENTED_EDGE('',*,*,#113,.T.);
#113 = EDGE_CURVE('',#50,#114,#116,.T.);
#114 = VERTEX_POINT('',#115);
#115 = CARTESIAN_POINT('',(-23.75740919053,-1.270002540005E-02,
    1.000001524003));
#116 = CIRCLE('',#117,2.98730463528);
#117 = AXIS2_PLACEMENT_3D('',#118,#119,#120);
#118 = CARTESIAN_POINT('',(-23.75740818246,-3.00000466068,1.000001524003
    ));
#119 = DIRECTION('',(0.,0.,-1.));
#120 = DIRECTION('',(-0.7071070198,0.707106542573,0.));
#121 = ORIENTED_EDGE('',*,*,#122,.F.);
#122 = EDGE_CURVE('',#123,#114,#125,.T.);
#123 = VERTEX_POINT('',#124);
#124 = CARTESIAN_POINT('',(-23.75740919053,-1.270002540005E-02,0.));
#125 = LINE('',#126,#127);
#126 = CARTESIAN_POINT('',(-23.75740919053,-1.270002540005E-02,0.));
#127 = VECTOR('',#128,1.);
#128 = DIRECTION('',(0.,0.,1.));
#129 = ORIENTED_EDGE('',*,*,#130,.F.);
#130 = EDGE_CURVE('',#58,#123,#131,.T.);
#131 = CIRCLE('',#132,2.98730463528);
#132 = AXIS2_PLACEMENT_3D('',#133,#134,#135);
#133 = CARTESIAN_POINT('',(-23.75740818246,-3.00000466068,0.));
#134 = DIRECTION('',(0.,0.,-1.));
#135 = DIRECTION('',(-0.7071070198,0.707106542573,0.));
#136 = CYLINDRICAL_SURFACE('',#137,2.98730463528);
#137 = AXIS2_PLACEMENT_3D('',#138,#139,#140);
#138 = CARTESIAN_POINT('',(-23.75740818246,-3.00000466068,0.));
#139 = DIRECTION('',(0.,0.,-1.));
#140 = DIRECTION('',(-0.7071070198,0.707106542573,0.));
#141 = ADVANCED_FACE('',(#142,#320,#354,#388),#458,.T.);
#142 = FACE_BOUND('',#143,.T.);
#143 = EDGE_LOOP('',(#144,#145,#146,#154,#162,#171,#179,#187,#195,#204,
    #212,#221,#229,#237,#245,#254,#262,#270,#279,#287,#296,#304,#313,
    #319));
#144 = ORIENTED_EDGE('',*,*,#65,.T.);
#145 = ORIENTED_EDGE('',*,*,#130,.T.);
#146 = ORIENTED_EDGE('',*,*,#147,.T.);
#147 = EDGE_CURVE('',#123,#148,#150,.T.);
#148 = VERTEX_POINT('',#149);
#149 = CARTESIAN_POINT('',(-1.270002540005E-02,-1.270002540005E-02,0.));
#150 = LINE('',#151,#152);
#151 = CARTESIAN_POINT('',(-23.75740919053,-1.270002540005E-02,0.));
#152 = VECTOR('',#153,1.);
#153 = DIRECTION('',(1.,-6.195255951117E-17,0.));
#154 = ORIENTED_EDGE('',*,*,#155,.T.);
#155 = EDGE_CURVE('',#148,#156,#158,.T.);
#156 = VERTEX_POINT('',#157);
#157 = CARTESIAN_POINT('',(-1.270002540005E-02,-2.70000508001,0.));
#158 = LINE('',#159,#160);
#159 = CARTESIAN_POINT('',(-1.270002540005E-02,-1.270002540005E-02,0.));
#160 = VECTOR('',#161,1.);
#161 = DIRECTION('',(6.132490613043E-17,-1.,0.));
#162 = ORIENTED_EDGE('',*,*,#163,.T.);
#163 = EDGE_CURVE('',#156,#164,#166,.T.);
#164 = VERTEX_POINT('',#165);
#165 = CARTESIAN_POINT('',(-1.978856345356E-17,-2.71270510541,0.));
#166 = CIRCLE('',#167,1.270002540005E-02);
#167 = AXIS2_PLACEMENT_3D('',#168,#169,#170);
#168 = CARTESIAN_POINT('',(8.890457814381E-17,-2.70000508001,0.));
#169 = DIRECTION('',(0.,0.,1.));
#170 = DIRECTION('',(-1.,-5.022431382993E-15,0.));
#171 = ORIENTED_EDGE('',*,*,#172,.T.);
#172 = EDGE_CURVE('',#164,#173,#175,.T.);
#173 = VERTEX_POINT('',#174);
#174 = CARTESIAN_POINT('',(0.987302514605,-2.71270510541,0.));
#175 = LINE('',#176,#177);
#176 = CARTESIAN_POINT('',(-1.947076727966E-17,-2.71270510541,0.));
#177 = VECTOR('',#178,1.);
#178 = DIRECTION('',(1.,0.,0.));
#179 = ORIENTED_EDGE('',*,*,#180,.T.);
#180 = EDGE_CURVE('',#173,#181,#183,.T.);
#181 = VERTEX_POINT('',#182);
#182 = CARTESIAN_POINT('',(0.987302514605,-5.68731013462,0.));
#183 = LINE('',#184,#185);
#184 = CARTESIAN_POINT('',(0.987302514605,-2.71270510541,0.));
#185 = VECTOR('',#186,1.);
#186 = DIRECTION('',(3.732337617005E-17,-1.,0.));
#187 = ORIENTED_EDGE('',*,*,#188,.T.);
#188 = EDGE_CURVE('',#181,#189,#191,.T.);
#189 = VERTEX_POINT('',#190);
#190 = CARTESIAN_POINT('',(-5.589703250522E-19,-5.68731013462,0.));
#191 = LINE('',#192,#193);
#192 = CARTESIAN_POINT('',(0.987302514605,-5.68731013462,0.));
#193 = VECTOR('',#194,1.);
#194 = DIRECTION('',(-1.,0.,0.));
#195 = ORIENTED_EDGE('',*,*,#196,.T.);
#196 = EDGE_CURVE('',#189,#197,#199,.T.);
#197 = VERTEX_POINT('',#198);
#198 = CARTESIAN_POINT('',(-1.270002540005E-02,-5.70001016002,0.));
#199 = CIRCLE('',#200,1.270002540005E-02);
#200 = AXIS2_PLACEMENT_3D('',#201,#202,#203);
#201 = CARTESIAN_POINT('',(3.766855652099E-16,-5.70001016002,0.));
#202 = DIRECTION('',(0.,0.,1.));
#203 = DIRECTION('',(-2.974824742234E-14,1.,0.));
#204 = ORIENTED_EDGE('',*,*,#205,.T.);
#205 = EDGE_CURVE('',#197,#206,#208,.T.);
#206 = VERTEX_POINT('',#207);
#207 = CARTESIAN_POINT('',(-1.270002540005E-02,-23.70004826009,0.));
#208 = LINE('',#209,#210);
#209 = CARTESIAN_POINT('',(-1.270002540005E-02,-5.70001016002,0.));
#210 = VECTOR('',#211,1.);
#211 = DIRECTION('',(6.119705975737E-17,-1.,0.));
#212 = ORIENTED_EDGE('',*,*,#213,.T.);
#213 = EDGE_CURVE('',#206,#214,#216,.T.);
#214 = VERTEX_POINT('',#215);
#215 = CARTESIAN_POINT('',(-2.41910301887E-18,-23.71274828549,0.));
#216 = CIRCLE('',#217,1.270002540005E-02);
#217 = AXIS2_PLACEMENT_3D('',#218,#219,#220);
#218 = CARTESIAN_POINT('',(7.598088824778E-16,-23.70004826009,0.));
#219 = DIRECTION('',(0.,0.,1.));
#220 = DIRECTION('',(-1.,1.622631677583E-14,0.));
#221 = ORIENTED_EDGE('',*,*,#222,.T.);
#222 = EDGE_CURVE('',#214,#223,#225,.T.);
#223 = VERTEX_POINT('',#224);
#224 = CARTESIAN_POINT('',(0.987302514605,-23.71274828549,0.));
#225 = LINE('',#226,#227);
#226 = CARTESIAN_POINT('',(-2.260297576149E-18,-23.71274828549,0.));
#227 = VECTOR('',#228,1.);
#228 = DIRECTION('',(1.,-3.598404365679E-15,0.));
#229 = ORIENTED_EDGE('',*,*,#230,.T.);
#230 = EDGE_CURVE('',#223,#231,#233,.T.);
#231 = VERTEX_POINT('',#232);
#232 = CARTESIAN_POINT('',(0.987302514605,-26.6873533147,0.));
#233 = LINE('',#234,#235);
#234 = CARTESIAN_POINT('',(0.987302514605,-23.71274828549,0.));
#235 = VECTOR('',#236,1.);
#236 = DIRECTION('',(3.732337617005E-17,-1.,0.));
#237 = ORIENTED_EDGE('',*,*,#238,.T.);
#238 = EDGE_CURVE('',#231,#239,#241,.T.);
#239 = VERTEX_POINT('',#240);
#240 = CARTESIAN_POINT('',(0.,-26.6873533147,0.));
#241 = LINE('',#242,#243);
#242 = CARTESIAN_POINT('',(0.987302514605,-26.6873533147,0.));
#243 = VECTOR('',#244,1.);
#244 = DIRECTION('',(-1.,0.,0.));
#245 = ORIENTED_EDGE('',*,*,#246,.T.);
#246 = EDGE_CURVE('',#239,#247,#249,.T.);
#247 = VERTEX_POINT('',#248);
#248 = CARTESIAN_POINT('',(-1.270002540005E-02,-26.7000533401,0.));
#249 = CIRCLE('',#250,1.270002540005E-02);
#250 = AXIS2_PLACEMENT_3D('',#251,#252,#253);
#251 = CARTESIAN_POINT('',(-6.607888384392E-17,-26.7000533401,0.));
#252 = DIRECTION('',(0.,0.,1.));
#253 = DIRECTION('',(5.215601820801E-15,1.,-0.));
#254 = ORIENTED_EDGE('',*,*,#255,.T.);
#255 = EDGE_CURVE('',#247,#256,#258,.T.);
#256 = VERTEX_POINT('',#257);
#257 = CARTESIAN_POINT('',(-1.270002540005E-02,-29.38735839471,0.));
#258 = LINE('',#259,#260);
#259 = CARTESIAN_POINT('',(-1.270002540005E-02,-26.7000533401,0.));
#260 = VECTOR('',#261,1.);
#261 = DIRECTION('',(6.003385547505E-17,-1.,0.));
#262 = ORIENTED_EDGE('',*,*,#263,.T.);
#263 = EDGE_CURVE('',#256,#264,#266,.T.);
#264 = VERTEX_POINT('',#265);
#265 = CARTESIAN_POINT('',(-2.50000508001,-29.38735839471,0.));
#266 = LINE('',#267,#268);
#267 = CARTESIAN_POINT('',(-1.270002540005E-02,-29.38735839471,0.));
#268 = VECTOR('',#269,1.);
#269 = DIRECTION('',(-1.,0.,0.));
#270 = ORIENTED_EDGE('',*,*,#271,.T.);
#271 = EDGE_CURVE('',#264,#272,#274,.T.);
#272 = VERTEX_POINT('',#273);
#273 = CARTESIAN_POINT('',(-5.01271018542,-31.90006350012,0.));
#274 = CIRCLE('',#275,2.51270510541);
#275 = AXIS2_PLACEMENT_3D('',#276,#277,#278);
#276 = CARTESIAN_POINT('',(-2.50000508001,-31.90006350012,0.));
#277 = DIRECTION('',(0.,0.,1.));
#278 = DIRECTION('',(-2.062042657732E-15,1.,0.));
#279 = ORIENTED_EDGE('',*,*,#280,.T.);
#280 = EDGE_CURVE('',#272,#281,#283,.T.);
#281 = VERTEX_POINT('',#282);
#282 = CARTESIAN_POINT('',(-5.01271018542,-34.70180595933,0.));
#283 = LINE('',#284,#285);
#284 = CARTESIAN_POINT('',(-5.01271018542,-31.90006350012,0.));
#285 = VECTOR('',#286,1.);
#286 = DIRECTION('',(3.170093014011E-15,-1.,0.));
#287 = ORIENTED_EDGE('',*,*,#288,.T.);
#288 = EDGE_CURVE('',#281,#289,#291,.T.);
#289 = VERTEX_POINT('',#290);
#290 = CARTESIAN_POINT('',(-6.252026239818,-35.65640495217,0.));
#291 = CIRCLE('',#292,0.987303108479);
#292 = AXIS2_PLACEMENT_3D('',#293,#294,#295);
#293 = CARTESIAN_POINT('',(-6.000013293898,-34.70180718185,0.));
#294 = DIRECTION('',(0.,0.,-1.));
#295 = DIRECTION('',(0.999999999999,1.238243006783E-06,0.));
#296 = ORIENTED_EDGE('',*,*,#297,.T.);
#297 = EDGE_CURVE('',#289,#298,#300,.T.);
#298 = VERTEX_POINT('',#299);
#299 = CARTESIAN_POINT('',(-27.7625799451,-29.97761907878,0.));
#300 = LINE('',#301,#302);
#301 = CARTESIAN_POINT('',(-6.252026239818,-35.65640495217,0.));
#302 = VECTOR('',#303,1.);
#303 = DIRECTION('',(-0.966873852488,0.255254683356,0.));
#304 = ORIENTED_EDGE('',*,*,#305,.T.);
#305 = EDGE_CURVE('',#298,#306,#308,.T.);
#306 = VERTEX_POINT('',#307);
#307 = CARTESIAN_POINT('',(-29.98736093472,-27.08927101918,0.));
#308 = CIRCLE('',#309,2.987306200931);
#309 = AXIS2_PLACEMENT_3D('',#310,#311,#312);
#310 = CARTESIAN_POINT('',(-27.00005473379,-27.08927117033,0.));
#311 = DIRECTION('',(0.,0.,-1.));
#312 = DIRECTION('',(-0.25525512285,-0.966873736461,-0.));
#313 = ORIENTED_EDGE('',*,*,#314,.T.);
#314 = EDGE_CURVE('',#306,#80,#315,.T.);
#315 = LINE('',#316,#317);
#316 = CARTESIAN_POINT('',(-29.98736093472,-27.08927101918,0.));
#317 = VECTOR('',#318,1.);
#318 = DIRECTION('',(5.112647239724E-16,1.,0.));
#319 = ORIENTED_EDGE('',*,*,#97,.T.);
#320 = FACE_BOUND('',#321,.T.);
#321 = EDGE_LOOP('',(#322,#332,#340,#348));
#322 = ORIENTED_EDGE('',*,*,#323,.F.);
#323 = EDGE_CURVE('',#324,#326,#328,.T.);
#324 = VERTEX_POINT('',#325);
#325 = CARTESIAN_POINT('',(-8.00001524003,-28.40005588011,0.));
#326 = VERTEX_POINT('',#327);
#327 = CARTESIAN_POINT('',(-5.00001016002,-28.40005588011,0.));
#328 = LINE('',#329,#330);
#329 = CARTESIAN_POINT('',(-8.00001524003,-28.40005588011,0.));
#330 = VECTOR('',#331,1.);
#331 = DIRECTION('',(1.,0.,0.));
#332 = ORIENTED_EDGE('',*,*,#333,.F.);
#333 = EDGE_CURVE('',#334,#324,#336,.T.);
#334 = VERTEX_POINT('',#335);
#335 = CARTESIAN_POINT('',(-8.00001524003,-29.40005842011,0.));
#336 = LINE('',#337,#338);
#337 = CARTESIAN_POINT('',(-8.00001524003,-29.40005842011,0.));
#338 = VECTOR('',#339,1.);
#339 = DIRECTION('',(0.,1.,0.));
#340 = ORIENTED_EDGE('',*,*,#341,.F.);
#341 = EDGE_CURVE('',#342,#334,#344,.T.);
#342 = VERTEX_POINT('',#343);
#343 = CARTESIAN_POINT('',(-5.00001016002,-29.40005842011,0.));
#344 = LINE('',#345,#346);
#345 = CARTESIAN_POINT('',(-5.00001016002,-29.40005842011,0.));
#346 = VECTOR('',#347,1.);
#347 = DIRECTION('',(-1.,0.,0.));
#348 = ORIENTED_EDGE('',*,*,#349,.F.);
#349 = EDGE_CURVE('',#326,#342,#350,.T.);
#350 = LINE('',#351,#352);
#351 = CARTESIAN_POINT('',(-5.00001016002,-28.40005588011,0.));
#352 = VECTOR('',#353,1.);
#353 = DIRECTION('',(0.,-1.,0.));
#354 = FACE_BOUND('',#355,.T.);
#355 = EDGE_LOOP('',(#356,#366,#374,#382));
#356 = ORIENTED_EDGE('',*,*,#357,.F.);
#357 = EDGE_CURVE('',#358,#360,#362,.T.);
#358 = VERTEX_POINT('',#359);
#359 = CARTESIAN_POINT('',(-20.00004064008,-28.40005588011,0.));
#360 = VERTEX_POINT('',#361);
#361 = CARTESIAN_POINT('',(-17.00003556007,-28.40005588011,0.));
#362 = LINE('',#363,#364);
#363 = CARTESIAN_POINT('',(-20.00004064008,-28.40005588011,0.));
#364 = VECTOR('',#365,1.);
#365 = DIRECTION('',(1.,0.,0.));
#366 = ORIENTED_EDGE('',*,*,#367,.F.);
#367 = EDGE_CURVE('',#368,#358,#370,.T.);
#368 = VERTEX_POINT('',#369);
#369 = CARTESIAN_POINT('',(-20.00004064008,-29.40005842011,0.));
#370 = LINE('',#371,#372);
#371 = CARTESIAN_POINT('',(-20.00004064008,-29.40005842011,0.));
#372 = VECTOR('',#373,1.);
#373 = DIRECTION('',(0.,1.,0.));
#374 = ORIENTED_EDGE('',*,*,#375,.F.);
#375 = EDGE_CURVE('',#376,#368,#378,.T.);
#376 = VERTEX_POINT('',#377);
#377 = CARTESIAN_POINT('',(-17.00003556007,-29.40005842011,0.));
#378 = LINE('',#379,#380);
#379 = CARTESIAN_POINT('',(-17.00003556007,-29.40005842011,0.));
#380 = VECTOR('',#381,1.);
#381 = DIRECTION('',(-1.,0.,0.));
#382 = ORIENTED_EDGE('',*,*,#383,.F.);
#383 = EDGE_CURVE('',#360,#376,#384,.T.);
#384 = LINE('',#385,#386);
#385 = CARTESIAN_POINT('',(-17.00003556007,-28.40005588011,0.));
#386 = VECTOR('',#387,1.);
#387 = DIRECTION('',(0.,-1.,0.));
#388 = FACE_BOUND('',#389,.T.);
#389 = EDGE_LOOP('',(#390,#401,#409,#418,#426,#435,#443,#452));
#390 = ORIENTED_EDGE('',*,*,#391,.F.);
#391 = EDGE_CURVE('',#392,#394,#396,.T.);
#392 = VERTEX_POINT('',#393);
#393 = CARTESIAN_POINT('',(-17.00003302006,-26.2500533401,0.));
#394 = VERTEX_POINT('',#395);
#395 = CARTESIAN_POINT('',(-16.00003048006,-25.2500508001,0.));
#396 = CIRCLE('',#397,1.000002540005);
#397 = AXIS2_PLACEMENT_3D('',#398,#399,#400);
#398 = CARTESIAN_POINT('',(-16.00003048006,-26.2500533401,0.));
#399 = DIRECTION('',(0.,0.,-1.));
#400 = DIRECTION('',(-1.,-4.239238870758E-15,-0.));
#401 = ORIENTED_EDGE('',*,*,#402,.F.);
#402 = EDGE_CURVE('',#403,#392,#405,.T.);
#403 = VERTEX_POINT('',#404);
#404 = CARTESIAN_POINT('',(-17.00003302006,-27.55005588011,0.));
#405 = LINE('',#406,#407);
#406 = CARTESIAN_POINT('',(-17.00003302006,-27.55005588011,0.));
#407 = VECTOR('',#408,1.);
#408 = DIRECTION('',(0.,1.,0.));
#409 = ORIENTED_EDGE('',*,*,#410,.F.);
#410 = EDGE_CURVE('',#411,#403,#413,.T.);
#411 = VERTEX_POINT('',#412);
#412 = CARTESIAN_POINT('',(-16.00003048006,-28.55005842011,0.));
#413 = CIRCLE('',#414,1.000002540005);
#414 = AXIS2_PLACEMENT_3D('',#415,#416,#417);
#415 = CARTESIAN_POINT('',(-16.00003048006,-27.55005588011,0.));
#416 = DIRECTION('',(0.,0.,-1.));
#417 = DIRECTION('',(-7.850442353255E-16,-1.,-0.));
#418 = ORIENTED_EDGE('',*,*,#419,.F.);
#419 = EDGE_CURVE('',#420,#411,#422,.T.);
#420 = VERTEX_POINT('',#421);
#421 = CARTESIAN_POINT('',(-9.000017780036,-28.55005842011,0.));
#422 = LINE('',#423,#424);
#423 = CARTESIAN_POINT('',(-9.000017780036,-28.55005842011,0.));
#424 = VECTOR('',#425,1.);
#425 = DIRECTION('',(-1.,-5.075296047374E-16,0.));
#426 = ORIENTED_EDGE('',*,*,#427,.F.);
#427 = EDGE_CURVE('',#428,#420,#430,.T.);
#428 = VERTEX_POINT('',#429);
#429 = CARTESIAN_POINT('',(-8.00001524003,-27.55005588011,0.));
#430 = CIRCLE('',#431,1.000002540005);
#431 = AXIS2_PLACEMENT_3D('',#432,#433,#434);
#432 = CARTESIAN_POINT('',(-9.000017780036,-27.55005588011,0.));
#433 = DIRECTION('',(0.,0.,-1.));
#434 = DIRECTION('',(1.,-7.850442353255E-17,0.));
#435 = ORIENTED_EDGE('',*,*,#436,.F.);
#436 = EDGE_CURVE('',#437,#428,#439,.T.);
#437 = VERTEX_POINT('',#438);
#438 = CARTESIAN_POINT('',(-8.00001524003,-26.2500533401,0.));
#439 = LINE('',#440,#441);
#440 = CARTESIAN_POINT('',(-8.00001524003,-26.2500533401,0.));
#441 = VECTOR('',#442,1.);
#442 = DIRECTION('',(0.,-1.,0.));
#443 = ORIENTED_EDGE('',*,*,#444,.F.);
#444 = EDGE_CURVE('',#445,#437,#447,.T.);
#445 = VERTEX_POINT('',#446);
#446 = CARTESIAN_POINT('',(-9.000017780036,-25.2500508001,0.));
#447 = CIRCLE('',#448,1.000002540005);
#448 = AXIS2_PLACEMENT_3D('',#449,#450,#451);
#449 = CARTESIAN_POINT('',(-9.000017780036,-26.2500533401,0.));
#450 = DIRECTION('',(0.,0.,-1.));
#451 = DIRECTION('',(7.850442353255E-17,1.,0.));
#452 = ORIENTED_EDGE('',*,*,#453,.F.);
#453 = EDGE_CURVE('',#394,#445,#454,.T.);
#454 = LINE('',#455,#456);
#455 = CARTESIAN_POINT('',(-16.00003048006,-25.2500508001,0.));
#456 = VECTOR('',#457,1.);
#457 = DIRECTION('',(1.,5.075296047374E-16,0.));
#458 = PLANE('',#459);
#459 = AXIS2_PLACEMENT_3D('',#460,#461,#462);
#460 = CARTESIAN_POINT('',(-13.57924351793,-16.5055850558,0.));
#461 = DIRECTION('',(-0.,-0.,-1.));
#462 = DIRECTION('',(-1.,0.,0.));
#463 = ADVANCED_FACE('',(#464,#642,#676,#710),#780,.F.);
#464 = FACE_BOUND('',#465,.F.);
#465 = EDGE_LOOP('',(#466,#467,#468,#476,#484,#493,#501,#509,#517,#526,
    #534,#543,#551,#559,#567,#576,#584,#592,#601,#609,#618,#626,#635,
    #641));
#466 = ORIENTED_EDGE('',*,*,#49,.T.);
#467 = ORIENTED_EDGE('',*,*,#113,.T.);
#468 = ORIENTED_EDGE('',*,*,#469,.T.);
#469 = EDGE_CURVE('',#114,#470,#472,.T.);
#470 = VERTEX_POINT('',#471);
#471 = CARTESIAN_POINT('',(-1.270002540005E-02,-1.270002540005E-02,
    1.000001524003));
#472 = LINE('',#473,#474);
#473 = CARTESIAN_POINT('',(-23.75740919053,-1.270002540005E-02,
    1.000001524003));
#474 = VECTOR('',#475,1.);
#475 = DIRECTION('',(1.,-6.195255951117E-17,0.));
#476 = ORIENTED_EDGE('',*,*,#477,.T.);
#477 = EDGE_CURVE('',#470,#478,#480,.T.);
#478 = VERTEX_POINT('',#479);
#479 = CARTESIAN_POINT('',(-1.270002540005E-02,-2.70000508001,
    1.000001524003));
#480 = LINE('',#481,#482);
#481 = CARTESIAN_POINT('',(-1.270002540005E-02,-1.270002540005E-02,
    1.000001524003));
#482 = VECTOR('',#483,1.);
#483 = DIRECTION('',(6.132490613043E-17,-1.,0.));
#484 = ORIENTED_EDGE('',*,*,#485,.T.);
#485 = EDGE_CURVE('',#478,#486,#488,.T.);
#486 = VERTEX_POINT('',#487);
#487 = CARTESIAN_POINT('',(-1.978856345356E-17,-2.71270510541,
    1.000001524003));
#488 = CIRCLE('',#489,1.270002540005E-02);
#489 = AXIS2_PLACEMENT_3D('',#490,#491,#492);
#490 = CARTESIAN_POINT('',(8.890457814381E-17,-2.70000508001,
    1.000001524003));
#491 = DIRECTION('',(0.,0.,1.));
#492 = DIRECTION('',(-1.,-5.022431382993E-15,0.));
#493 = ORIENTED_EDGE('',*,*,#494,.T.);
#494 = EDGE_CURVE('',#486,#495,#497,.T.);
#495 = VERTEX_POINT('',#496);
#496 = CARTESIAN_POINT('',(0.987302514605,-2.71270510541,1.000001524003)
  );
#497 = LINE('',#498,#499);
#498 = CARTESIAN_POINT('',(-1.947076727966E-17,-2.71270510541,
    1.000001524003));
#499 = VECTOR('',#500,1.);
#500 = DIRECTION('',(1.,0.,0.));
#501 = ORIENTED_EDGE('',*,*,#502,.T.);
#502 = EDGE_CURVE('',#495,#503,#505,.T.);
#503 = VERTEX_POINT('',#504);
#504 = CARTESIAN_POINT('',(0.987302514605,-5.68731013462,1.000001524003)
  );
#505 = LINE('',#506,#507);
#506 = CARTESIAN_POINT('',(0.987302514605,-2.71270510541,1.000001524003)
  );
#507 = VECTOR('',#508,1.);
#508 = DIRECTION('',(3.732337617005E-17,-1.,0.));
#509 = ORIENTED_EDGE('',*,*,#510,.T.);
#510 = EDGE_CURVE('',#503,#511,#513,.T.);
#511 = VERTEX_POINT('',#512);
#512 = CARTESIAN_POINT('',(-5.589703250522E-19,-5.68731013462,
    1.000001524003));
#513 = LINE('',#514,#515);
#514 = CARTESIAN_POINT('',(0.987302514605,-5.68731013462,1.000001524003)
  );
#515 = VECTOR('',#516,1.);
#516 = DIRECTION('',(-1.,0.,0.));
#517 = ORIENTED_EDGE('',*,*,#518,.T.);
#518 = EDGE_CURVE('',#511,#519,#521,.T.);
#519 = VERTEX_POINT('',#520);
#520 = CARTESIAN_POINT('',(-1.270002540005E-02,-5.70001016002,
    1.000001524003));
#521 = CIRCLE('',#522,1.270002540005E-02);
#522 = AXIS2_PLACEMENT_3D('',#523,#524,#525);
#523 = CARTESIAN_POINT('',(3.766855652099E-16,-5.70001016002,
    1.000001524003));
#524 = DIRECTION('',(0.,0.,1.));
#525 = DIRECTION('',(-2.974824742234E-14,1.,0.));
#526 = ORIENTED_EDGE('',*,*,#527,.T.);
#527 = EDGE_CURVE('',#519,#528,#530,.T.);
#528 = VERTEX_POINT('',#529);
#529 = CARTESIAN_POINT('',(-1.270002540005E-02,-23.70004826009,
    1.000001524003));
#530 = LINE('',#531,#532);
#531 = CARTESIAN_POINT('',(-1.270002540005E-02,-5.70001016002,
    1.000001524003));
#532 = VECTOR('',#533,1.);
#533 = DIRECTION('',(6.119705975737E-17,-1.,0.));
#534 = ORIENTED_EDGE('',*,*,#535,.T.);
#535 = EDGE_CURVE('',#528,#536,#538,.T.);
#536 = VERTEX_POINT('',#537);
#537 = CARTESIAN_POINT('',(-2.41910301887E-18,-23.71274828549,
    1.000001524003));
#538 = CIRCLE('',#539,1.270002540005E-02);
#539 = AXIS2_PLACEMENT_3D('',#540,#541,#542);
#540 = CARTESIAN_POINT('',(7.598088824778E-16,-23.70004826009,
    1.000001524003));
#541 = DIRECTION('',(0.,0.,1.));
#542 = DIRECTION('',(-1.,1.622631677583E-14,0.));
#543 = ORIENTED_EDGE('',*,*,#544,.T.);
#544 = EDGE_CURVE('',#536,#545,#547,.T.);
#545 = VERTEX_POINT('',#546);
#546 = CARTESIAN_POINT('',(0.987302514605,-23.71274828549,1.000001524003
    ));
#547 = LINE('',#548,#549);
#548 = CARTESIAN_POINT('',(-2.260297576149E-18,-23.71274828549,
    1.000001524003));
#549 = VECTOR('',#550,1.);
#550 = DIRECTION('',(1.,-3.598404365679E-15,0.));
#551 = ORIENTED_EDGE('',*,*,#552,.T.);
#552 = EDGE_CURVE('',#545,#553,#555,.T.);
#553 = VERTEX_POINT('',#554);
#554 = CARTESIAN_POINT('',(0.987302514605,-26.6873533147,1.000001524003)
  );
#555 = LINE('',#556,#557);
#556 = CARTESIAN_POINT('',(0.987302514605,-23.71274828549,1.000001524003
    ));
#557 = VECTOR('',#558,1.);
#558 = DIRECTION('',(3.732337617005E-17,-1.,0.));
#559 = ORIENTED_EDGE('',*,*,#560,.T.);
#560 = EDGE_CURVE('',#553,#561,#563,.T.);
#561 = VERTEX_POINT('',#562);
#562 = CARTESIAN_POINT('',(0.,-26.6873533147,1.000001524003));
#563 = LINE('',#564,#565);
#564 = CARTESIAN_POINT('',(0.987302514605,-26.6873533147,1.000001524003)
  );
#565 = VECTOR('',#566,1.);
#566 = DIRECTION('',(-1.,0.,0.));
#567 = ORIENTED_EDGE('',*,*,#568,.T.);
#568 = EDGE_CURVE('',#561,#569,#571,.T.);
#569 = VERTEX_POINT('',#570);
#570 = CARTESIAN_POINT('',(-1.270002540005E-02,-26.7000533401,
    1.000001524003));
#571 = CIRCLE('',#572,1.270002540005E-02);
#572 = AXIS2_PLACEMENT_3D('',#573,#574,#575);
#573 = CARTESIAN_POINT('',(-6.607888384392E-17,-26.7000533401,
    1.000001524003));
#574 = DIRECTION('',(0.,0.,1.));
#575 = DIRECTION('',(5.215601820801E-15,1.,-0.));
#576 = ORIENTED_EDGE('',*,*,#577,.T.);
#577 = EDGE_CURVE('',#569,#578,#580,.T.);
#578 = VERTEX_POINT('',#579);
#579 = CARTESIAN_POINT('',(-1.270002540005E-02,-29.38735839471,
    1.000001524003));
#580 = LINE('',#581,#582);
#581 = CARTESIAN_POINT('',(-1.270002540005E-02,-26.7000533401,
    1.000001524003));
#582 = VECTOR('',#583,1.);
#583 = DIRECTION('',(6.003385547505E-17,-1.,0.));
#584 = ORIENTED_EDGE('',*,*,#585,.T.);
#585 = EDGE_CURVE('',#578,#586,#588,.T.);
#586 = VERTEX_POINT('',#587);
#587 = CARTESIAN_POINT('',(-2.50000508001,-29.38735839471,1.000001524003
    ));
#588 = LINE('',#589,#590);
#589 = CARTESIAN_POINT('',(-1.270002540005E-02,-29.38735839471,
    1.000001524003));
#590 = VECTOR('',#591,1.);
#591 = DIRECTION('',(-1.,0.,0.));
#592 = ORIENTED_EDGE('',*,*,#593,.T.);
#593 = EDGE_CURVE('',#586,#594,#596,.T.);
#594 = VERTEX_POINT('',#595);
#595 = CARTESIAN_POINT('',(-5.01271018542,-31.90006350012,1.000001524003
    ));
#596 = CIRCLE('',#597,2.51270510541);
#597 = AXIS2_PLACEMENT_3D('',#598,#599,#600);
#598 = CARTESIAN_POINT('',(-2.50000508001,-31.90006350012,1.000001524003
    ));
#599 = DIRECTION('',(0.,0.,1.));
#600 = DIRECTION('',(-2.062042657732E-15,1.,0.));
#601 = ORIENTED_EDGE('',*,*,#602,.T.);
#602 = EDGE_CURVE('',#594,#603,#605,.T.);
#603 = VERTEX_POINT('',#604);
#604 = CARTESIAN_POINT('',(-5.01271018542,-34.70180595933,1.000001524003
    ));
#605 = LINE('',#606,#607);
#606 = CARTESIAN_POINT('',(-5.01271018542,-31.90006350012,1.000001524003
    ));
#607 = VECTOR('',#608,1.);
#608 = DIRECTION('',(3.170093014011E-15,-1.,0.));
#609 = ORIENTED_EDGE('',*,*,#610,.T.);
#610 = EDGE_CURVE('',#603,#611,#613,.T.);
#611 = VERTEX_POINT('',#612);
#612 = CARTESIAN_POINT('',(-6.252026239818,-35.65640495217,
    1.000001524003));
#613 = CIRCLE('',#614,0.987303108479);
#614 = AXIS2_PLACEMENT_3D('',#615,#616,#617);
#615 = CARTESIAN_POINT('',(-6.000013293898,-34.70180718185,
    1.000001524003));
#616 = DIRECTION('',(0.,0.,-1.));
#617 = DIRECTION('',(0.999999999999,1.238243006783E-06,0.));
#618 = ORIENTED_EDGE('',*,*,#619,.T.);
#619 = EDGE_CURVE('',#611,#620,#622,.T.);
#620 = VERTEX_POINT('',#621);
#621 = CARTESIAN_POINT('',(-27.7625799451,-29.97761907878,1.000001524003
    ));
#622 = LINE('',#623,#624);
#623 = CARTESIAN_POINT('',(-6.252026239818,-35.65640495217,
    1.000001524003));
#624 = VECTOR('',#625,1.);
#625 = DIRECTION('',(-0.966873852488,0.255254683356,0.));
#626 = ORIENTED_EDGE('',*,*,#627,.T.);
#627 = EDGE_CURVE('',#620,#628,#630,.T.);
#628 = VERTEX_POINT('',#629);
#629 = CARTESIAN_POINT('',(-29.98736093472,-27.08927101918,
    1.000001524003));
#630 = CIRCLE('',#631,2.987306200931);
#631 = AXIS2_PLACEMENT_3D('',#632,#633,#634);
#632 = CARTESIAN_POINT('',(-27.00005473379,-27.08927117033,
    1.000001524003));
#633 = DIRECTION('',(0.,0.,-1.));
#634 = DIRECTION('',(-0.25525512285,-0.966873736461,-0.));
#635 = ORIENTED_EDGE('',*,*,#636,.T.);
#636 = EDGE_CURVE('',#628,#82,#637,.T.);
#637 = LINE('',#638,#639);
#638 = CARTESIAN_POINT('',(-29.98736093472,-27.08927101918,
    1.000001524003));
#639 = VECTOR('',#640,1.);
#640 = DIRECTION('',(5.112647239724E-16,1.,0.));
#641 = ORIENTED_EDGE('',*,*,#89,.T.);
#642 = FACE_BOUND('',#643,.F.);
#643 = EDGE_LOOP('',(#644,#654,#662,#670));
#644 = ORIENTED_EDGE('',*,*,#645,.F.);
#645 = EDGE_CURVE('',#646,#648,#650,.T.);
#646 = VERTEX_POINT('',#647);
#647 = CARTESIAN_POINT('',(-8.00001524003,-28.40005588011,1.000001524003
    ));
#648 = VERTEX_POINT('',#649);
#649 = CARTESIAN_POINT('',(-5.00001016002,-28.40005588011,1.000001524003
    ));
#650 = LINE('',#651,#652);
#651 = CARTESIAN_POINT('',(-8.00001524003,-28.40005588011,1.000001524003
    ));
#652 = VECTOR('',#653,1.);
#653 = DIRECTION('',(1.,0.,0.));
#654 = ORIENTED_EDGE('',*,*,#655,.F.);
#655 = EDGE_CURVE('',#656,#646,#658,.T.);
#656 = VERTEX_POINT('',#657);
#657 = CARTESIAN_POINT('',(-8.00001524003,-29.40005842011,1.000001524003
    ));
#658 = LINE('',#659,#660);
#659 = CARTESIAN_POINT('',(-8.00001524003,-29.40005842011,1.000001524003
    ));
#660 = VECTOR('',#661,1.);
#661 = DIRECTION('',(0.,1.,0.));
#662 = ORIENTED_EDGE('',*,*,#663,.F.);
#663 = EDGE_CURVE('',#664,#656,#666,.T.);
#664 = VERTEX_POINT('',#665);
#665 = CARTESIAN_POINT('',(-5.00001016002,-29.40005842011,1.000001524003
    ));
#666 = LINE('',#667,#668);
#667 = CARTESIAN_POINT('',(-5.00001016002,-29.40005842011,1.000001524003
    ));
#668 = VECTOR('',#669,1.);
#669 = DIRECTION('',(-1.,0.,0.));
#670 = ORIENTED_EDGE('',*,*,#671,.F.);
#671 = EDGE_CURVE('',#648,#664,#672,.T.);
#672 = LINE('',#673,#674);
#673 = CARTESIAN_POINT('',(-5.00001016002,-28.40005588011,1.000001524003
    ));
#674 = VECTOR('',#675,1.);
#675 = DIRECTION('',(0.,-1.,0.));
#676 = FACE_BOUND('',#677,.F.);
#677 = EDGE_LOOP('',(#678,#688,#696,#704));
#678 = ORIENTED_EDGE('',*,*,#679,.F.);
#679 = EDGE_CURVE('',#680,#682,#684,.T.);
#680 = VERTEX_POINT('',#681);
#681 = CARTESIAN_POINT('',(-20.00004064008,-28.40005588011,
    1.000001524003));
#682 = VERTEX_POINT('',#683);
#683 = CARTESIAN_POINT('',(-17.00003556007,-28.40005588011,
    1.000001524003));
#684 = LINE('',#685,#686);
#685 = CARTESIAN_POINT('',(-20.00004064008,-28.40005588011,
    1.000001524003));
#686 = VECTOR('',#687,1.);
#687 = DIRECTION('',(1.,0.,0.));
#688 = ORIENTED_EDGE('',*,*,#689,.F.);
#689 = EDGE_CURVE('',#690,#680,#692,.T.);
#690 = VERTEX_POINT('',#691);
#691 = CARTESIAN_POINT('',(-20.00004064008,-29.40005842011,
    1.000001524003));
#692 = LINE('',#693,#694);
#693 = CARTESIAN_POINT('',(-20.00004064008,-29.40005842011,
    1.000001524003));
#694 = VECTOR('',#695,1.);
#695 = DIRECTION('',(0.,1.,0.));
#696 = ORIENTED_EDGE('',*,*,#697,.F.);
#697 = EDGE_CURVE('',#698,#690,#700,.T.);
#698 = VERTEX_POINT('',#699);
#699 = CARTESIAN_POINT('',(-17.00003556007,-29.40005842011,
    1.000001524003));
#700 = LINE('',#701,#702);
#701 = CARTESIAN_POINT('',(-17.00003556007,-29.40005842011,
    1.000001524003));
#702 = VECTOR('',#703,1.);
#703 = DIRECTION('',(-1.,0.,0.));
#704 = ORIENTED_EDGE('',*,*,#705,.F.);
#705 = EDGE_CURVE('',#682,#698,#706,.T.);
#706 = LINE('',#707,#708);
#707 = CARTESIAN_POINT('',(-17.00003556007,-28.40005588011,
    1.000001524003));
#708 = VECTOR('',#709,1.);
#709 = DIRECTION('',(0.,-1.,0.));
#710 = FACE_BOUND('',#711,.F.);
#711 = EDGE_LOOP('',(#712,#723,#731,#740,#748,#757,#765,#774));
#712 = ORIENTED_EDGE('',*,*,#713,.F.);
#713 = EDGE_CURVE('',#714,#716,#718,.T.);
#714 = VERTEX_POINT('',#715);
#715 = CARTESIAN_POINT('',(-17.00003302006,-26.2500533401,1.000001524003
    ));
#716 = VERTEX_POINT('',#717);
#717 = CARTESIAN_POINT('',(-16.00003048006,-25.2500508001,1.000001524003
    ));
#718 = CIRCLE('',#719,1.000002540005);
#719 = AXIS2_PLACEMENT_3D('',#720,#721,#722);
#720 = CARTESIAN_POINT('',(-16.00003048006,-26.2500533401,1.000001524003
    ));
#721 = DIRECTION('',(0.,0.,-1.));
#722 = DIRECTION('',(-1.,-4.239238870758E-15,-0.));
#723 = ORIENTED_EDGE('',*,*,#724,.F.);
#724 = EDGE_CURVE('',#725,#714,#727,.T.);
#725 = VERTEX_POINT('',#726);
#726 = CARTESIAN_POINT('',(-17.00003302006,-27.55005588011,
    1.000001524003));
#727 = LINE('',#728,#729);
#728 = CARTESIAN_POINT('',(-17.00003302006,-27.55005588011,
    1.000001524003));
#729 = VECTOR('',#730,1.);
#730 = DIRECTION('',(0.,1.,0.));
#731 = ORIENTED_EDGE('',*,*,#732,.F.);
#732 = EDGE_CURVE('',#733,#725,#735,.T.);
#733 = VERTEX_POINT('',#734);
#734 = CARTESIAN_POINT('',(-16.00003048006,-28.55005842011,
    1.000001524003));
#735 = CIRCLE('',#736,1.000002540005);
#736 = AXIS2_PLACEMENT_3D('',#737,#738,#739);
#737 = CARTESIAN_POINT('',(-16.00003048006,-27.55005588011,
    1.000001524003));
#738 = DIRECTION('',(0.,0.,-1.));
#739 = DIRECTION('',(-7.850442353255E-16,-1.,-0.));
#740 = ORIENTED_EDGE('',*,*,#741,.F.);
#741 = EDGE_CURVE('',#742,#733,#744,.T.);
#742 = VERTEX_POINT('',#743);
#743 = CARTESIAN_POINT('',(-9.000017780036,-28.55005842011,
    1.000001524003));
#744 = LINE('',#745,#746);
#745 = CARTESIAN_POINT('',(-9.000017780036,-28.55005842011,
    1.000001524003));
#746 = VECTOR('',#747,1.);
#747 = DIRECTION('',(-1.,-5.075296047374E-16,0.));
#748 = ORIENTED_EDGE('',*,*,#749,.F.);
#749 = EDGE_CURVE('',#750,#742,#752,.T.);
#750 = VERTEX_POINT('',#751);
#751 = CARTESIAN_POINT('',(-8.00001524003,-27.55005588011,1.000001524003
    ));
#752 = CIRCLE('',#753,1.000002540005);
#753 = AXIS2_PLACEMENT_3D('',#754,#755,#756);
#754 = CARTESIAN_POINT('',(-9.000017780036,-27.55005588011,
    1.000001524003));
#755 = DIRECTION('',(0.,0.,-1.));
#756 = DIRECTION('',(1.,-7.850442353255E-17,0.));
#757 = ORIENTED_EDGE('',*,*,#758,.F.);
#758 = EDGE_CURVE('',#759,#750,#761,.T.);
#759 = VERTEX_POINT('',#760);
#760 = CARTESIAN_POINT('',(-8.00001524003,-26.2500533401,1.000001524003)
  );
#761 = LINE('',#762,#763);
#762 = CARTESIAN_POINT('',(-8.00001524003,-26.2500533401,1.000001524003)
  );
#763 = VECTOR('',#764,1.);
#764 = DIRECTION('',(0.,-1.,0.));
#765 = ORIENTED_EDGE('',*,*,#766,.F.);
#766 = EDGE_CURVE('',#767,#759,#769,.T.);
#767 = VERTEX_POINT('',#768);
#768 = CARTESIAN_POINT('',(-9.000017780036,-25.2500508001,1.000001524003
    ));
#769 = CIRCLE('',#770,1.000002540005);
#770 = AXIS2_PLACEMENT_3D('',#771,#772,#773);
#771 = CARTESIAN_POINT('',(-9.000017780036,-26.2500533401,1.000001524003
    ));
#772 = DIRECTION('',(0.,0.,-1.));
#773 = DIRECTION('',(7.850442353255E-17,1.,0.));
#774 = ORIENTED_EDGE('',*,*,#775,.F.);
#775 = EDGE_CURVE('',#716,#767,#776,.T.);
#776 = LINE('',#777,#778);
#777 = CARTESIAN_POINT('',(-16.00003048006,-25.2500508001,1.000001524003
    ));
#778 = VECTOR('',#779,1.);
#779 = DIRECTION('',(1.,5.075296047374E-16,0.));
#780 = PLANE('',#781);
#781 = AXIS2_PLACEMENT_3D('',#782,#783,#784);
#782 = CARTESIAN_POINT('',(-13.57924351793,-16.5055850558,1.000001524003
    ));
#783 = DIRECTION('',(-0.,-0.,-1.));
#784 = DIRECTION('',(-1.,0.,0.));
#785 = ADVANCED_FACE('',(#786),#797,.T.);
#786 = FACE_BOUND('',#787,.T.);
#787 = EDGE_LOOP('',(#788,#794,#795,#796));
#788 = ORIENTED_EDGE('',*,*,#789,.T.);
#789 = EDGE_CURVE('',#306,#628,#790,.T.);
#790 = LINE('',#791,#792);
#791 = CARTESIAN_POINT('',(-29.98736093472,-27.08927101918,0.));
#792 = VECTOR('',#793,1.);
#793 = DIRECTION('',(0.,0.,1.));
#794 = ORIENTED_EDGE('',*,*,#636,.T.);
#795 = ORIENTED_EDGE('',*,*,#79,.F.);
#796 = ORIENTED_EDGE('',*,*,#314,.F.);
#797 = PLANE('',#798);
#798 = AXIS2_PLACEMENT_3D('',#799,#800,#801);
#799 = CARTESIAN_POINT('',(-29.98736093472,-27.08927101918,0.));
#800 = DIRECTION('',(-1.,5.112647239724E-16,0.));
#801 = DIRECTION('',(5.112647239724E-16,1.,0.));
#802 = ADVANCED_FACE('',(#803),#814,.T.);
#803 = FACE_BOUND('',#804,.T.);
#804 = EDGE_LOOP('',(#805,#806,#807,#813));
#805 = ORIENTED_EDGE('',*,*,#122,.T.);
#806 = ORIENTED_EDGE('',*,*,#469,.T.);
#807 = ORIENTED_EDGE('',*,*,#808,.F.);
#808 = EDGE_CURVE('',#148,#470,#809,.T.);
#809 = LINE('',#810,#811);
#810 = CARTESIAN_POINT('',(-1.270002540005E-02,-1.270002540005E-02,0.));
#811 = VECTOR('',#812,1.);
#812 = DIRECTION('',(0.,0.,1.));
#813 = ORIENTED_EDGE('',*,*,#147,.F.);
#814 = PLANE('',#815);
#815 = AXIS2_PLACEMENT_3D('',#816,#817,#818);
#816 = CARTESIAN_POINT('',(-23.75740919053,-1.270002540005E-02,0.));
#817 = DIRECTION('',(6.195255951117E-17,1.,-0.));
#818 = DIRECTION('',(1.,-6.195255951117E-17,0.));
#819 = ADVANCED_FACE('',(#820),#831,.T.);
#820 = FACE_BOUND('',#821,.T.);
#821 = EDGE_LOOP('',(#822,#828,#829,#830));
#822 = ORIENTED_EDGE('',*,*,#823,.T.);
#823 = EDGE_CURVE('',#298,#620,#824,.T.);
#824 = LINE('',#825,#826);
#825 = CARTESIAN_POINT('',(-27.7625799451,-29.97761907878,0.));
#826 = VECTOR('',#827,1.);
#827 = DIRECTION('',(0.,0.,1.));
#828 = ORIENTED_EDGE('',*,*,#627,.T.);
#829 = ORIENTED_EDGE('',*,*,#789,.F.);
#830 = ORIENTED_EDGE('',*,*,#305,.F.);
#831 = CYLINDRICAL_SURFACE('',#832,2.987306200931);
#832 = AXIS2_PLACEMENT_3D('',#833,#834,#835);
#833 = CARTESIAN_POINT('',(-27.00005473379,-27.08927117033,0.));
#834 = DIRECTION('',(0.,0.,-1.));
#835 = DIRECTION('',(-0.25525512285,-0.966873736461,-0.));
#836 = ADVANCED_FACE('',(#837),#848,.T.);
#837 = FACE_BOUND('',#838,.T.);
#838 = EDGE_LOOP('',(#839,#840,#841,#847));
#839 = ORIENTED_EDGE('',*,*,#808,.T.);
#840 = ORIENTED_EDGE('',*,*,#477,.T.);
#841 = ORIENTED_EDGE('',*,*,#842,.F.);
#842 = EDGE_CURVE('',#156,#478,#843,.T.);
#843 = LINE('',#844,#845);
#844 = CARTESIAN_POINT('',(-1.270002540005E-02,-2.70000508001,0.));
#845 = VECTOR('',#846,1.);
#846 = DIRECTION('',(0.,0.,1.));
#847 = ORIENTED_EDGE('',*,*,#155,.F.);
#848 = PLANE('',#849);
#849 = AXIS2_PLACEMENT_3D('',#850,#851,#852);
#850 = CARTESIAN_POINT('',(-1.270002540005E-02,-1.270002540005E-02,0.));
#851 = DIRECTION('',(1.,6.132490613043E-17,-0.));
#852 = DIRECTION('',(6.132490613043E-17,-1.,0.));
#853 = ADVANCED_FACE('',(#854),#865,.T.);
#854 = FACE_BOUND('',#855,.T.);
#855 = EDGE_LOOP('',(#856,#862,#863,#864));
#856 = ORIENTED_EDGE('',*,*,#857,.T.);
#857 = EDGE_CURVE('',#289,#611,#858,.T.);
#858 = LINE('',#859,#860);
#859 = CARTESIAN_POINT('',(-6.252026239818,-35.65640495217,0.));
#860 = VECTOR('',#861,1.);
#861 = DIRECTION('',(0.,0.,1.));
#862 = ORIENTED_EDGE('',*,*,#619,.T.);
#863 = ORIENTED_EDGE('',*,*,#823,.F.);
#864 = ORIENTED_EDGE('',*,*,#297,.F.);
#865 = PLANE('',#866);
#866 = AXIS2_PLACEMENT_3D('',#867,#868,#869);
#867 = CARTESIAN_POINT('',(-6.252026239818,-35.65640495217,0.));
#868 = DIRECTION('',(-0.255254683356,-0.966873852488,0.));
#869 = DIRECTION('',(-0.966873852488,0.255254683356,0.));
#870 = ADVANCED_FACE('',(#871),#882,.F.);
#871 = FACE_BOUND('',#872,.T.);
#872 = EDGE_LOOP('',(#873,#874,#875,#881));
#873 = ORIENTED_EDGE('',*,*,#842,.T.);
#874 = ORIENTED_EDGE('',*,*,#485,.T.);
#875 = ORIENTED_EDGE('',*,*,#876,.F.);
#876 = EDGE_CURVE('',#164,#486,#877,.T.);
#877 = LINE('',#878,#879);
#878 = CARTESIAN_POINT('',(-1.978856345356E-17,-2.71270510541,0.));
#879 = VECTOR('',#880,1.);
#880 = DIRECTION('',(0.,0.,1.));
#881 = ORIENTED_EDGE('',*,*,#163,.F.);
#882 = CYLINDRICAL_SURFACE('',#883,1.270002540005E-02);
#883 = AXIS2_PLACEMENT_3D('',#884,#885,#886);
#884 = CARTESIAN_POINT('',(8.890457814381E-17,-2.70000508001,0.));
#885 = DIRECTION('',(-0.,-0.,-1.));
#886 = DIRECTION('',(-1.,-5.022431382993E-15,0.));
#887 = ADVANCED_FACE('',(#888),#899,.T.);
#888 = FACE_BOUND('',#889,.T.);
#889 = EDGE_LOOP('',(#890,#896,#897,#898));
#890 = ORIENTED_EDGE('',*,*,#891,.T.);
#891 = EDGE_CURVE('',#281,#603,#892,.T.);
#892 = LINE('',#893,#894);
#893 = CARTESIAN_POINT('',(-5.01271018542,-34.70180595933,0.));
#894 = VECTOR('',#895,1.);
#895 = DIRECTION('',(0.,0.,1.));
#896 = ORIENTED_EDGE('',*,*,#610,.T.);
#897 = ORIENTED_EDGE('',*,*,#857,.F.);
#898 = ORIENTED_EDGE('',*,*,#288,.F.);
#899 = CYLINDRICAL_SURFACE('',#900,0.987303108479);
#900 = AXIS2_PLACEMENT_3D('',#901,#902,#903);
#901 = CARTESIAN_POINT('',(-6.000013293898,-34.70180718185,0.));
#902 = DIRECTION('',(0.,0.,-1.));
#903 = DIRECTION('',(0.999999999999,1.238243006783E-06,0.));
#904 = ADVANCED_FACE('',(#905),#916,.T.);
#905 = FACE_BOUND('',#906,.T.);
#906 = EDGE_LOOP('',(#907,#908,#909,#915));
#907 = ORIENTED_EDGE('',*,*,#876,.T.);
#908 = ORIENTED_EDGE('',*,*,#494,.T.);
#909 = ORIENTED_EDGE('',*,*,#910,.F.);
#910 = EDGE_CURVE('',#173,#495,#911,.T.);
#911 = LINE('',#912,#913);
#912 = CARTESIAN_POINT('',(0.987302514605,-2.71270510541,0.));
#913 = VECTOR('',#914,1.);
#914 = DIRECTION('',(0.,0.,1.));
#915 = ORIENTED_EDGE('',*,*,#172,.F.);
#916 = PLANE('',#917);
#917 = AXIS2_PLACEMENT_3D('',#918,#919,#920);
#918 = CARTESIAN_POINT('',(-1.947076727966E-17,-2.71270510541,0.));
#919 = DIRECTION('',(0.,1.,0.));
#920 = DIRECTION('',(1.,0.,0.));
#921 = ADVANCED_FACE('',(#922),#933,.T.);
#922 = FACE_BOUND('',#923,.T.);
#923 = EDGE_LOOP('',(#924,#930,#931,#932));
#924 = ORIENTED_EDGE('',*,*,#925,.T.);
#925 = EDGE_CURVE('',#272,#594,#926,.T.);
#926 = LINE('',#927,#928);
#927 = CARTESIAN_POINT('',(-5.01271018542,-31.90006350012,0.));
#928 = VECTOR('',#929,1.);
#929 = DIRECTION('',(0.,0.,1.));
#930 = ORIENTED_EDGE('',*,*,#602,.T.);
#931 = ORIENTED_EDGE('',*,*,#891,.F.);
#932 = ORIENTED_EDGE('',*,*,#280,.F.);
#933 = PLANE('',#934);
#934 = AXIS2_PLACEMENT_3D('',#935,#936,#937);
#935 = CARTESIAN_POINT('',(-5.01271018542,-31.90006350012,0.));
#936 = DIRECTION('',(1.,3.170093014011E-15,-0.));
#937 = DIRECTION('',(3.170093014011E-15,-1.,0.));
#938 = ADVANCED_FACE('',(#939),#950,.T.);
#939 = FACE_BOUND('',#940,.T.);
#940 = EDGE_LOOP('',(#941,#942,#943,#949));
#941 = ORIENTED_EDGE('',*,*,#910,.T.);
#942 = ORIENTED_EDGE('',*,*,#502,.T.);
#943 = ORIENTED_EDGE('',*,*,#944,.F.);
#944 = EDGE_CURVE('',#181,#503,#945,.T.);
#945 = LINE('',#946,#947);
#946 = CARTESIAN_POINT('',(0.987302514605,-5.68731013462,0.));
#947 = VECTOR('',#948,1.);
#948 = DIRECTION('',(0.,0.,1.));
#949 = ORIENTED_EDGE('',*,*,#180,.F.);
#950 = PLANE('',#951);
#951 = AXIS2_PLACEMENT_3D('',#952,#953,#954);
#952 = CARTESIAN_POINT('',(0.987302514605,-2.71270510541,0.));
#953 = DIRECTION('',(1.,3.732337617005E-17,-0.));
#954 = DIRECTION('',(3.732337617005E-17,-1.,0.));
#955 = ADVANCED_FACE('',(#956),#967,.F.);
#956 = FACE_BOUND('',#957,.T.);
#957 = EDGE_LOOP('',(#958,#964,#965,#966));
#958 = ORIENTED_EDGE('',*,*,#959,.T.);
#959 = EDGE_CURVE('',#264,#586,#960,.T.);
#960 = LINE('',#961,#962);
#961 = CARTESIAN_POINT('',(-2.50000508001,-29.38735839471,0.));
#962 = VECTOR('',#963,1.);
#963 = DIRECTION('',(0.,0.,1.));
#964 = ORIENTED_EDGE('',*,*,#593,.T.);
#965 = ORIENTED_EDGE('',*,*,#925,.F.);
#966 = ORIENTED_EDGE('',*,*,#271,.F.);
#967 = CYLINDRICAL_SURFACE('',#968,2.51270510541);
#968 = AXIS2_PLACEMENT_3D('',#969,#970,#971);
#969 = CARTESIAN_POINT('',(-2.50000508001,-31.90006350012,0.));
#970 = DIRECTION('',(-0.,-0.,-1.));
#971 = DIRECTION('',(-2.062042657732E-15,1.,0.));
#972 = ADVANCED_FACE('',(#973),#984,.T.);
#973 = FACE_BOUND('',#974,.T.);
#974 = EDGE_LOOP('',(#975,#976,#977,#983));
#975 = ORIENTED_EDGE('',*,*,#944,.T.);
#976 = ORIENTED_EDGE('',*,*,#510,.T.);
#977 = ORIENTED_EDGE('',*,*,#978,.F.);
#978 = EDGE_CURVE('',#189,#511,#979,.T.);
#979 = LINE('',#980,#981);
#980 = CARTESIAN_POINT('',(-5.589703250522E-19,-5.68731013462,0.));
#981 = VECTOR('',#982,1.);
#982 = DIRECTION('',(0.,0.,1.));
#983 = ORIENTED_EDGE('',*,*,#188,.F.);
#984 = PLANE('',#985);
#985 = AXIS2_PLACEMENT_3D('',#986,#987,#988);
#986 = CARTESIAN_POINT('',(0.987302514605,-5.68731013462,0.));
#987 = DIRECTION('',(0.,-1.,0.));
#988 = DIRECTION('',(-1.,0.,0.));
#989 = ADVANCED_FACE('',(#990),#1001,.T.);
#990 = FACE_BOUND('',#991,.T.);
#991 = EDGE_LOOP('',(#992,#998,#999,#1000));
#992 = ORIENTED_EDGE('',*,*,#993,.T.);
#993 = EDGE_CURVE('',#256,#578,#994,.T.);
#994 = LINE('',#995,#996);
#995 = CARTESIAN_POINT('',(-1.270002540005E-02,-29.38735839471,0.));
#996 = VECTOR('',#997,1.);
#997 = DIRECTION('',(0.,0.,1.));
#998 = ORIENTED_EDGE('',*,*,#585,.T.);
#999 = ORIENTED_EDGE('',*,*,#959,.F.);
#1000 = ORIENTED_EDGE('',*,*,#263,.F.);
#1001 = PLANE('',#1002);
#1002 = AXIS2_PLACEMENT_3D('',#1003,#1004,#1005);
#1003 = CARTESIAN_POINT('',(-1.270002540005E-02,-29.38735839471,0.));
#1004 = DIRECTION('',(0.,-1.,0.));
#1005 = DIRECTION('',(-1.,0.,0.));
#1006 = ADVANCED_FACE('',(#1007),#1018,.F.);
#1007 = FACE_BOUND('',#1008,.T.);
#1008 = EDGE_LOOP('',(#1009,#1010,#1011,#1017));
#1009 = ORIENTED_EDGE('',*,*,#978,.T.);
#1010 = ORIENTED_EDGE('',*,*,#518,.T.);
#1011 = ORIENTED_EDGE('',*,*,#1012,.F.);
#1012 = EDGE_CURVE('',#197,#519,#1013,.T.);
#1013 = LINE('',#1014,#1015);
#1014 = CARTESIAN_POINT('',(-1.270002540005E-02,-5.70001016002,0.));
#1015 = VECTOR('',#1016,1.);
#1016 = DIRECTION('',(0.,0.,1.));
#1017 = ORIENTED_EDGE('',*,*,#196,.F.);
#1018 = CYLINDRICAL_SURFACE('',#1019,1.270002540005E-02);
#1019 = AXIS2_PLACEMENT_3D('',#1020,#1021,#1022);
#1020 = CARTESIAN_POINT('',(3.766855652099E-16,-5.70001016002,0.));
#1021 = DIRECTION('',(-0.,-0.,-1.));
#1022 = DIRECTION('',(-2.974824742234E-14,1.,0.));
#1023 = ADVANCED_FACE('',(#1024),#1035,.T.);
#1024 = FACE_BOUND('',#1025,.T.);
#1025 = EDGE_LOOP('',(#1026,#1032,#1033,#1034));
#1026 = ORIENTED_EDGE('',*,*,#1027,.T.);
#1027 = EDGE_CURVE('',#247,#569,#1028,.T.);
#1028 = LINE('',#1029,#1030);
#1029 = CARTESIAN_POINT('',(-1.270002540005E-02,-26.7000533401,0.));
#1030 = VECTOR('',#1031,1.);
#1031 = DIRECTION('',(0.,0.,1.));
#1032 = ORIENTED_EDGE('',*,*,#577,.T.);
#1033 = ORIENTED_EDGE('',*,*,#993,.F.);
#1034 = ORIENTED_EDGE('',*,*,#255,.F.);
#1035 = PLANE('',#1036);
#1036 = AXIS2_PLACEMENT_3D('',#1037,#1038,#1039);
#1037 = CARTESIAN_POINT('',(-1.270002540005E-02,-26.7000533401,0.));
#1038 = DIRECTION('',(1.,6.003385547505E-17,-0.));
#1039 = DIRECTION('',(6.003385547505E-17,-1.,0.));
#1040 = ADVANCED_FACE('',(#1041),#1052,.T.);
#1041 = FACE_BOUND('',#1042,.T.);
#1042 = EDGE_LOOP('',(#1043,#1044,#1045,#1051));
#1043 = ORIENTED_EDGE('',*,*,#1012,.T.);
#1044 = ORIENTED_EDGE('',*,*,#527,.T.);
#1045 = ORIENTED_EDGE('',*,*,#1046,.F.);
#1046 = EDGE_CURVE('',#206,#528,#1047,.T.);
#1047 = LINE('',#1048,#1049);
#1048 = CARTESIAN_POINT('',(-1.270002540005E-02,-23.70004826009,0.));
#1049 = VECTOR('',#1050,1.);
#1050 = DIRECTION('',(0.,0.,1.));
#1051 = ORIENTED_EDGE('',*,*,#205,.F.);
#1052 = PLANE('',#1053);
#1053 = AXIS2_PLACEMENT_3D('',#1054,#1055,#1056);
#1054 = CARTESIAN_POINT('',(-1.270002540005E-02,-5.70001016002,0.));
#1055 = DIRECTION('',(1.,6.119705975737E-17,-0.));
#1056 = DIRECTION('',(6.119705975737E-17,-1.,0.));
#1057 = ADVANCED_FACE('',(#1058),#1069,.F.);
#1058 = FACE_BOUND('',#1059,.T.);
#1059 = EDGE_LOOP('',(#1060,#1066,#1067,#1068));
#1060 = ORIENTED_EDGE('',*,*,#1061,.T.);
#1061 = EDGE_CURVE('',#239,#561,#1062,.T.);
#1062 = LINE('',#1063,#1064);
#1063 = CARTESIAN_POINT('',(0.,-26.6873533147,0.));
#1064 = VECTOR('',#1065,1.);
#1065 = DIRECTION('',(0.,0.,1.));
#1066 = ORIENTED_EDGE('',*,*,#568,.T.);
#1067 = ORIENTED_EDGE('',*,*,#1027,.F.);
#1068 = ORIENTED_EDGE('',*,*,#246,.F.);
#1069 = CYLINDRICAL_SURFACE('',#1070,1.270002540005E-02);
#1070 = AXIS2_PLACEMENT_3D('',#1071,#1072,#1073);
#1071 = CARTESIAN_POINT('',(-6.607888384392E-17,-26.7000533401,0.));
#1072 = DIRECTION('',(-0.,-0.,-1.));
#1073 = DIRECTION('',(5.215601820801E-15,1.,-0.));
#1074 = ADVANCED_FACE('',(#1075),#1086,.F.);
#1075 = FACE_BOUND('',#1076,.T.);
#1076 = EDGE_LOOP('',(#1077,#1078,#1079,#1085));
#1077 = ORIENTED_EDGE('',*,*,#1046,.T.);
#1078 = ORIENTED_EDGE('',*,*,#535,.T.);
#1079 = ORIENTED_EDGE('',*,*,#1080,.F.);
#1080 = EDGE_CURVE('',#214,#536,#1081,.T.);
#1081 = LINE('',#1082,#1083);
#1082 = CARTESIAN_POINT('',(-2.41910301887E-18,-23.71274828549,0.));
#1083 = VECTOR('',#1084,1.);
#1084 = DIRECTION('',(0.,0.,1.));
#1085 = ORIENTED_EDGE('',*,*,#213,.F.);
#1086 = CYLINDRICAL_SURFACE('',#1087,1.270002540005E-02);
#1087 = AXIS2_PLACEMENT_3D('',#1088,#1089,#1090);
#1088 = CARTESIAN_POINT('',(7.598088824778E-16,-23.70004826009,0.));
#1089 = DIRECTION('',(-0.,-0.,-1.));
#1090 = DIRECTION('',(-1.,1.622631677583E-14,0.));
#1091 = ADVANCED_FACE('',(#1092),#1103,.T.);
#1092 = FACE_BOUND('',#1093,.T.);
#1093 = EDGE_LOOP('',(#1094,#1100,#1101,#1102));
#1094 = ORIENTED_EDGE('',*,*,#1095,.T.);
#1095 = EDGE_CURVE('',#231,#553,#1096,.T.);
#1096 = LINE('',#1097,#1098);
#1097 = CARTESIAN_POINT('',(0.987302514605,-26.6873533147,0.));
#1098 = VECTOR('',#1099,1.);
#1099 = DIRECTION('',(0.,0.,1.));
#1100 = ORIENTED_EDGE('',*,*,#560,.T.);
#1101 = ORIENTED_EDGE('',*,*,#1061,.F.);
#1102 = ORIENTED_EDGE('',*,*,#238,.F.);
#1103 = PLANE('',#1104);
#1104 = AXIS2_PLACEMENT_3D('',#1105,#1106,#1107);
#1105 = CARTESIAN_POINT('',(0.987302514605,-26.6873533147,0.));
#1106 = DIRECTION('',(0.,-1.,0.));
#1107 = DIRECTION('',(-1.,0.,0.));
#1108 = ADVANCED_FACE('',(#1109),#1120,.T.);
#1109 = FACE_BOUND('',#1110,.T.);
#1110 = EDGE_LOOP('',(#1111,#1112,#1113,#1119));
#1111 = ORIENTED_EDGE('',*,*,#1080,.T.);
#1112 = ORIENTED_EDGE('',*,*,#544,.T.);
#1113 = ORIENTED_EDGE('',*,*,#1114,.F.);
#1114 = EDGE_CURVE('',#223,#545,#1115,.T.);
#1115 = LINE('',#1116,#1117);
#1116 = CARTESIAN_POINT('',(0.987302514605,-23.71274828549,0.));
#1117 = VECTOR('',#1118,1.);
#1118 = DIRECTION('',(0.,0.,1.));
#1119 = ORIENTED_EDGE('',*,*,#222,.F.);
#1120 = PLANE('',#1121);
#1121 = AXIS2_PLACEMENT_3D('',#1122,#1123,#1124);
#1122 = CARTESIAN_POINT('',(-2.260297576149E-18,-23.71274828549,0.));
#1123 = DIRECTION('',(3.598404365679E-15,1.,-0.));
#1124 = DIRECTION('',(1.,-3.598404365679E-15,0.));
#1125 = ADVANCED_FACE('',(#1126),#1132,.T.);
#1126 = FACE_BOUND('',#1127,.T.);
#1127 = EDGE_LOOP('',(#1128,#1129,#1130,#1131));
#1128 = ORIENTED_EDGE('',*,*,#1114,.T.);
#1129 = ORIENTED_EDGE('',*,*,#552,.T.);
#1130 = ORIENTED_EDGE('',*,*,#1095,.F.);
#1131 = ORIENTED_EDGE('',*,*,#230,.F.);
#1132 = PLANE('',#1133);
#1133 = AXIS2_PLACEMENT_3D('',#1134,#1135,#1136);
#1134 = CARTESIAN_POINT('',(0.987302514605,-23.71274828549,0.));
#1135 = DIRECTION('',(1.,3.732337617005E-17,-0.));
#1136 = DIRECTION('',(3.732337617005E-17,-1.,0.));
#1137 = ADVANCED_FACE('',(#1138),#1154,.F.);
#1138 = FACE_BOUND('',#1139,.F.);
#1139 = EDGE_LOOP('',(#1140,#1146,#1147,#1153));
#1140 = ORIENTED_EDGE('',*,*,#1141,.T.);
#1141 = EDGE_CURVE('',#324,#646,#1142,.T.);
#1142 = LINE('',#1143,#1144);
#1143 = CARTESIAN_POINT('',(-8.00001524003,-28.40005588011,0.));
#1144 = VECTOR('',#1145,1.);
#1145 = DIRECTION('',(0.,0.,1.));
#1146 = ORIENTED_EDGE('',*,*,#645,.T.);
#1147 = ORIENTED_EDGE('',*,*,#1148,.F.);
#1148 = EDGE_CURVE('',#326,#648,#1149,.T.);
#1149 = LINE('',#1150,#1151);
#1150 = CARTESIAN_POINT('',(-5.00001016002,-28.40005588011,0.));
#1151 = VECTOR('',#1152,1.);
#1152 = DIRECTION('',(0.,0.,1.));
#1153 = ORIENTED_EDGE('',*,*,#323,.F.);
#1154 = PLANE('',#1155);
#1155 = AXIS2_PLACEMENT_3D('',#1156,#1157,#1158);
#1156 = CARTESIAN_POINT('',(-8.00001524003,-28.40005588011,0.));
#1157 = DIRECTION('',(0.,1.,0.));
#1158 = DIRECTION('',(1.,0.,0.));
#1159 = ADVANCED_FACE('',(#1160),#1171,.F.);
#1160 = FACE_BOUND('',#1161,.F.);
#1161 = EDGE_LOOP('',(#1162,#1163,#1164,#1170));
#1162 = ORIENTED_EDGE('',*,*,#1148,.T.);
#1163 = ORIENTED_EDGE('',*,*,#671,.T.);
#1164 = ORIENTED_EDGE('',*,*,#1165,.F.);
#1165 = EDGE_CURVE('',#342,#664,#1166,.T.);
#1166 = LINE('',#1167,#1168);
#1167 = CARTESIAN_POINT('',(-5.00001016002,-29.40005842011,0.));
#1168 = VECTOR('',#1169,1.);
#1169 = DIRECTION('',(0.,0.,1.));
#1170 = ORIENTED_EDGE('',*,*,#349,.F.);
#1171 = PLANE('',#1172);
#1172 = AXIS2_PLACEMENT_3D('',#1173,#1174,#1175);
#1173 = CARTESIAN_POINT('',(-5.00001016002,-28.40005588011,0.));
#1174 = DIRECTION('',(1.,0.,-0.));
#1175 = DIRECTION('',(0.,-1.,0.));
#1176 = ADVANCED_FACE('',(#1177),#1188,.F.);
#1177 = FACE_BOUND('',#1178,.F.);
#1178 = EDGE_LOOP('',(#1179,#1180,#1181,#1187));
#1179 = ORIENTED_EDGE('',*,*,#1165,.T.);
#1180 = ORIENTED_EDGE('',*,*,#663,.T.);
#1181 = ORIENTED_EDGE('',*,*,#1182,.F.);
#1182 = EDGE_CURVE('',#334,#656,#1183,.T.);
#1183 = LINE('',#1184,#1185);
#1184 = CARTESIAN_POINT('',(-8.00001524003,-29.40005842011,0.));
#1185 = VECTOR('',#1186,1.);
#1186 = DIRECTION('',(0.,0.,1.));
#1187 = ORIENTED_EDGE('',*,*,#341,.F.);
#1188 = PLANE('',#1189);
#1189 = AXIS2_PLACEMENT_3D('',#1190,#1191,#1192);
#1190 = CARTESIAN_POINT('',(-5.00001016002,-29.40005842011,0.));
#1191 = DIRECTION('',(0.,-1.,0.));
#1192 = DIRECTION('',(-1.,0.,0.));
#1193 = ADVANCED_FACE('',(#1194),#1200,.F.);
#1194 = FACE_BOUND('',#1195,.F.);
#1195 = EDGE_LOOP('',(#1196,#1197,#1198,#1199));
#1196 = ORIENTED_EDGE('',*,*,#1182,.T.);
#1197 = ORIENTED_EDGE('',*,*,#655,.T.);
#1198 = ORIENTED_EDGE('',*,*,#1141,.F.);
#1199 = ORIENTED_EDGE('',*,*,#333,.F.);
#1200 = PLANE('',#1201);
#1201 = AXIS2_PLACEMENT_3D('',#1202,#1203,#1204);
#1202 = CARTESIAN_POINT('',(-8.00001524003,-29.40005842011,0.));
#1203 = DIRECTION('',(-1.,0.,0.));
#1204 = DIRECTION('',(0.,1.,0.));
#1205 = ADVANCED_FACE('',(#1206),#1222,.F.);
#1206 = FACE_BOUND('',#1207,.F.);
#1207 = EDGE_LOOP('',(#1208,#1214,#1215,#1221));
#1208 = ORIENTED_EDGE('',*,*,#1209,.T.);
#1209 = EDGE_CURVE('',#358,#680,#1210,.T.);
#1210 = LINE('',#1211,#1212);
#1211 = CARTESIAN_POINT('',(-20.00004064008,-28.40005588011,0.));
#1212 = VECTOR('',#1213,1.);
#1213 = DIRECTION('',(0.,0.,1.));
#1214 = ORIENTED_EDGE('',*,*,#679,.T.);
#1215 = ORIENTED_EDGE('',*,*,#1216,.F.);
#1216 = EDGE_CURVE('',#360,#682,#1217,.T.);
#1217 = LINE('',#1218,#1219);
#1218 = CARTESIAN_POINT('',(-17.00003556007,-28.40005588011,0.));
#1219 = VECTOR('',#1220,1.);
#1220 = DIRECTION('',(0.,0.,1.));
#1221 = ORIENTED_EDGE('',*,*,#357,.F.);
#1222 = PLANE('',#1223);
#1223 = AXIS2_PLACEMENT_3D('',#1224,#1225,#1226);
#1224 = CARTESIAN_POINT('',(-20.00004064008,-28.40005588011,0.));
#1225 = DIRECTION('',(0.,1.,0.));
#1226 = DIRECTION('',(1.,0.,0.));
#1227 = ADVANCED_FACE('',(#1228),#1239,.F.);
#1228 = FACE_BOUND('',#1229,.F.);
#1229 = EDGE_LOOP('',(#1230,#1231,#1232,#1238));
#1230 = ORIENTED_EDGE('',*,*,#1216,.T.);
#1231 = ORIENTED_EDGE('',*,*,#705,.T.);
#1232 = ORIENTED_EDGE('',*,*,#1233,.F.);
#1233 = EDGE_CURVE('',#376,#698,#1234,.T.);
#1234 = LINE('',#1235,#1236);
#1235 = CARTESIAN_POINT('',(-17.00003556007,-29.40005842011,0.));
#1236 = VECTOR('',#1237,1.);
#1237 = DIRECTION('',(0.,0.,1.));
#1238 = ORIENTED_EDGE('',*,*,#383,.F.);
#1239 = PLANE('',#1240);
#1240 = AXIS2_PLACEMENT_3D('',#1241,#1242,#1243);
#1241 = CARTESIAN_POINT('',(-17.00003556007,-28.40005588011,0.));
#1242 = DIRECTION('',(1.,0.,-0.));
#1243 = DIRECTION('',(0.,-1.,0.));
#1244 = ADVANCED_FACE('',(#1245),#1256,.F.);
#1245 = FACE_BOUND('',#1246,.F.);
#1246 = EDGE_LOOP('',(#1247,#1248,#1249,#1255));
#1247 = ORIENTED_EDGE('',*,*,#1233,.T.);
#1248 = ORIENTED_EDGE('',*,*,#697,.T.);
#1249 = ORIENTED_EDGE('',*,*,#1250,.F.);
#1250 = EDGE_CURVE('',#368,#690,#1251,.T.);
#1251 = LINE('',#1252,#1253);
#1252 = CARTESIAN_POINT('',(-20.00004064008,-29.40005842011,0.));
#1253 = VECTOR('',#1254,1.);
#1254 = DIRECTION('',(0.,0.,1.));
#1255 = ORIENTED_EDGE('',*,*,#375,.F.);
#1256 = PLANE('',#1257);
#1257 = AXIS2_PLACEMENT_3D('',#1258,#1259,#1260);
#1258 = CARTESIAN_POINT('',(-17.00003556007,-29.40005842011,0.));
#1259 = DIRECTION('',(0.,-1.,0.));
#1260 = DIRECTION('',(-1.,0.,0.));
#1261 = ADVANCED_FACE('',(#1262),#1268,.F.);
#1262 = FACE_BOUND('',#1263,.F.);
#1263 = EDGE_LOOP('',(#1264,#1265,#1266,#1267));
#1264 = ORIENTED_EDGE('',*,*,#1250,.T.);
#1265 = ORIENTED_EDGE('',*,*,#689,.T.);
#1266 = ORIENTED_EDGE('',*,*,#1209,.F.);
#1267 = ORIENTED_EDGE('',*,*,#367,.F.);
#1268 = PLANE('',#1269);
#1269 = AXIS2_PLACEMENT_3D('',#1270,#1271,#1272);
#1270 = CARTESIAN_POINT('',(-20.00004064008,-29.40005842011,0.));
#1271 = DIRECTION('',(-1.,0.,0.));
#1272 = DIRECTION('',(0.,1.,0.));
#1273 = ADVANCED_FACE('',(#1274),#1290,.F.);
#1274 = FACE_BOUND('',#1275,.F.);
#1275 = EDGE_LOOP('',(#1276,#1282,#1283,#1289));
#1276 = ORIENTED_EDGE('',*,*,#1277,.T.);
#1277 = EDGE_CURVE('',#392,#714,#1278,.T.);
#1278 = LINE('',#1279,#1280);
#1279 = CARTESIAN_POINT('',(-17.00003302006,-26.2500533401,0.));
#1280 = VECTOR('',#1281,1.);
#1281 = DIRECTION('',(0.,0.,1.));
#1282 = ORIENTED_EDGE('',*,*,#713,.T.);
#1283 = ORIENTED_EDGE('',*,*,#1284,.F.);
#1284 = EDGE_CURVE('',#394,#716,#1285,.T.);
#1285 = LINE('',#1286,#1287);
#1286 = CARTESIAN_POINT('',(-16.00003048006,-25.2500508001,0.));
#1287 = VECTOR('',#1288,1.);
#1288 = DIRECTION('',(0.,0.,1.));
#1289 = ORIENTED_EDGE('',*,*,#391,.F.);
#1290 = CYLINDRICAL_SURFACE('',#1291,1.000002540005);
#1291 = AXIS2_PLACEMENT_3D('',#1292,#1293,#1294);
#1292 = CARTESIAN_POINT('',(-16.00003048006,-26.2500533401,0.));
#1293 = DIRECTION('',(0.,0.,-1.));
#1294 = DIRECTION('',(-1.,-4.239238870758E-15,-0.));
#1295 = ADVANCED_FACE('',(#1296),#1307,.F.);
#1296 = FACE_BOUND('',#1297,.F.);
#1297 = EDGE_LOOP('',(#1298,#1299,#1300,#1306));
#1298 = ORIENTED_EDGE('',*,*,#1284,.T.);
#1299 = ORIENTED_EDGE('',*,*,#775,.T.);
#1300 = ORIENTED_EDGE('',*,*,#1301,.F.);
#1301 = EDGE_CURVE('',#445,#767,#1302,.T.);
#1302 = LINE('',#1303,#1304);
#1303 = CARTESIAN_POINT('',(-9.000017780036,-25.2500508001,0.));
#1304 = VECTOR('',#1305,1.);
#1305 = DIRECTION('',(0.,0.,1.));
#1306 = ORIENTED_EDGE('',*,*,#453,.F.);
#1307 = PLANE('',#1308);
#1308 = AXIS2_PLACEMENT_3D('',#1309,#1310,#1311);
#1309 = CARTESIAN_POINT('',(-16.00003048006,-25.2500508001,0.));
#1310 = DIRECTION('',(-5.075296047374E-16,1.,0.));
#1311 = DIRECTION('',(1.,5.075296047374E-16,0.));
#1312 = ADVANCED_FACE('',(#1313),#1324,.F.);
#1313 = FACE_BOUND('',#1314,.F.);
#1314 = EDGE_LOOP('',(#1315,#1316,#1317,#1323));
#1315 = ORIENTED_EDGE('',*,*,#1301,.T.);
#1316 = ORIENTED_EDGE('',*,*,#766,.T.);
#1317 = ORIENTED_EDGE('',*,*,#1318,.F.);
#1318 = EDGE_CURVE('',#437,#759,#1319,.T.);
#1319 = LINE('',#1320,#1321);
#1320 = CARTESIAN_POINT('',(-8.00001524003,-26.2500533401,0.));
#1321 = VECTOR('',#1322,1.);
#1322 = DIRECTION('',(0.,0.,1.));
#1323 = ORIENTED_EDGE('',*,*,#444,.F.);
#1324 = CYLINDRICAL_SURFACE('',#1325,1.000002540005);
#1325 = AXIS2_PLACEMENT_3D('',#1326,#1327,#1328);
#1326 = CARTESIAN_POINT('',(-9.000017780036,-26.2500533401,0.));
#1327 = DIRECTION('',(0.,0.,-1.));
#1328 = DIRECTION('',(7.850442353255E-17,1.,0.));
#1329 = ADVANCED_FACE('',(#1330),#1341,.F.);
#1330 = FACE_BOUND('',#1331,.F.);
#1331 = EDGE_LOOP('',(#1332,#1333,#1334,#1340));
#1332 = ORIENTED_EDGE('',*,*,#1318,.T.);
#1333 = ORIENTED_EDGE('',*,*,#758,.T.);
#1334 = ORIENTED_EDGE('',*,*,#1335,.F.);
#1335 = EDGE_CURVE('',#428,#750,#1336,.T.);
#1336 = LINE('',#1337,#1338);
#1337 = CARTESIAN_POINT('',(-8.00001524003,-27.55005588011,0.));
#1338 = VECTOR('',#1339,1.);
#1339 = DIRECTION('',(0.,0.,1.));
#1340 = ORIENTED_EDGE('',*,*,#436,.F.);
#1341 = PLANE('',#1342);
#1342 = AXIS2_PLACEMENT_3D('',#1343,#1344,#1345);
#1343 = CARTESIAN_POINT('',(-8.00001524003,-26.2500533401,0.));
#1344 = DIRECTION('',(1.,0.,-0.));
#1345 = DIRECTION('',(0.,-1.,0.));
#1346 = ADVANCED_FACE('',(#1347),#1358,.F.);
#1347 = FACE_BOUND('',#1348,.F.);
#1348 = EDGE_LOOP('',(#1349,#1350,#1351,#1357));
#1349 = ORIENTED_EDGE('',*,*,#1335,.T.);
#1350 = ORIENTED_EDGE('',*,*,#749,.T.);
#1351 = ORIENTED_EDGE('',*,*,#1352,.F.);
#1352 = EDGE_CURVE('',#420,#742,#1353,.T.);
#1353 = LINE('',#1354,#1355);
#1354 = CARTESIAN_POINT('',(-9.000017780036,-28.55005842011,0.));
#1355 = VECTOR('',#1356,1.);
#1356 = DIRECTION('',(0.,0.,1.));
#1357 = ORIENTED_EDGE('',*,*,#427,.F.);
#1358 = CYLINDRICAL_SURFACE('',#1359,1.000002540005);
#1359 = AXIS2_PLACEMENT_3D('',#1360,#1361,#1362);
#1360 = CARTESIAN_POINT('',(-9.000017780036,-27.55005588011,0.));
#1361 = DIRECTION('',(0.,0.,-1.));
#1362 = DIRECTION('',(1.,-7.850442353255E-17,0.));
#1363 = ADVANCED_FACE('',(#1364),#1375,.F.);
#1364 = FACE_BOUND('',#1365,.F.);
#1365 = EDGE_LOOP('',(#1366,#1367,#1368,#1374));
#1366 = ORIENTED_EDGE('',*,*,#1352,.T.);
#1367 = ORIENTED_EDGE('',*,*,#741,.T.);
#1368 = ORIENTED_EDGE('',*,*,#1369,.F.);
#1369 = EDGE_CURVE('',#411,#733,#1370,.T.);
#1370 = LINE('',#1371,#1372);
#1371 = CARTESIAN_POINT('',(-16.00003048006,-28.55005842011,0.));
#1372 = VECTOR('',#1373,1.);
#1373 = DIRECTION('',(0.,0.,1.));
#1374 = ORIENTED_EDGE('',*,*,#419,.F.);
#1375 = PLANE('',#1376);
#1376 = AXIS2_PLACEMENT_3D('',#1377,#1378,#1379);
#1377 = CARTESIAN_POINT('',(-9.000017780036,-28.55005842011,0.));
#1378 = DIRECTION('',(5.075296047374E-16,-1.,0.));
#1379 = DIRECTION('',(-1.,-5.075296047374E-16,0.));
#1380 = ADVANCED_FACE('',(#1381),#1392,.F.);
#1381 = FACE_BOUND('',#1382,.F.);
#1382 = EDGE_LOOP('',(#1383,#1384,#1385,#1391));
#1383 = ORIENTED_EDGE('',*,*,#1369,.T.);
#1384 = ORIENTED_EDGE('',*,*,#732,.T.);
#1385 = ORIENTED_EDGE('',*,*,#1386,.F.);
#1386 = EDGE_CURVE('',#403,#725,#1387,.T.);
#1387 = LINE('',#1388,#1389);
#1388 = CARTESIAN_POINT('',(-17.00003302006,-27.55005588011,0.));
#1389 = VECTOR('',#1390,1.);
#1390 = DIRECTION('',(0.,0.,1.));
#1391 = ORIENTED_EDGE('',*,*,#410,.F.);
#1392 = CYLINDRICAL_SURFACE('',#1393,1.000002540005);
#1393 = AXIS2_PLACEMENT_3D('',#1394,#1395,#1396);
#1394 = CARTESIAN_POINT('',(-16.00003048006,-27.55005588011,0.));
#1395 = DIRECTION('',(0.,0.,-1.));
#1396 = DIRECTION('',(-7.850442353255E-16,-1.,-0.));
#1397 = ADVANCED_FACE('',(#1398),#1404,.F.);
#1398 = FACE_BOUND('',#1399,.F.);
#1399 = EDGE_LOOP('',(#1400,#1401,#1402,#1403));
#1400 = ORIENTED_EDGE('',*,*,#1386,.T.);
#1401 = ORIENTED_EDGE('',*,*,#724,.T.);
#1402 = ORIENTED_EDGE('',*,*,#1277,.F.);
#1403 = ORIENTED_EDGE('',*,*,#402,.F.);
#1404 = PLANE('',#1405);
#1405 = AXIS2_PLACEMENT_3D('',#1406,#1407,#1408);
#1406 = CARTESIAN_POINT('',(-17.00003302006,-27.55005588011,0.));
#1407 = DIRECTION('',(-1.,0.,0.));
#1408 = DIRECTION('',(0.,1.,0.));
#1409 = ( GEOMETRIC_REPRESENTATION_CONTEXT(3) 
GLOBAL_UNCERTAINTY_ASSIGNED_CONTEXT((#1413)) 
GLOBAL_UNIT_ASSIGNED_CONTEXT((#1410,#1411,#1412)) REPRESENTATION_CONTEXT
('Context #1','3D Context with UNIT and UNCERTAINTY') );
#1410 = ( LENGTH_UNIT() NAMED_UNIT(*) SI_UNIT(.MILLI.,.METRE.) );
#1411 = ( NAMED_UNIT(*) PLANE_ANGLE_UNIT() SI_UNIT($,.RADIAN.) );
#1412 = ( NAMED_UNIT(*) SI_UNIT($,.STERADIAN.) SOLID_ANGLE_UNIT() );
#1413 = UNCERTAINTY_MEASURE_WITH_UNIT(LENGTH_MEASURE(1.E-07),#1410,
  'distance_accuracy_value','confusion accuracy');
#1414 = CONTEXT_DEPENDENT_SHAPE_REPRESENTATION(#1415,#1417);
#1415 = ( REPRESENTATION_RELATIONSHIP('','',#32,#10) 
REPRESENTATION_RELATIONSHIP_WITH_TRANSFORMATION(#1416) 
SHAPE_REPRESENTATION_RELATIONSHIP() );
#1416 = ITEM_DEFINED_TRANSFORMATION('','',#11,#15);
#1417 = PRODUCT_DEFINITION_SHAPE('Placement','Placement of an item',
  #1418);
#1418 = NEXT_ASSEMBLY_USAGE_OCCURRENCE('1','=>[0:1:1:2]','',#5,#27,$);
#1419 = PRODUCT_RELATED_PRODUCT_CATEGORY('part',$,(#29));
#1420 = MECHANICAL_DESIGN_GEOMETRIC_PRESENTATION_REPRESENTATION('',(
    #1421,#1431,#1439,#1446,#1453,#1460,#1467,#1474,#1481,#1488,#1495,
    #1502,#1509,#1516,#1523,#1530,#1537,#1544,#1551,#1558,#1565,#1572,
    #1579,#1586,#1593,#1600,#1607,#1614,#1621,#1628,#1635,#1642,#1649,
    #1656,#1663,#1670,#1677,#1684,#1691,#1698,#1705),#1409);
#1421 = STYLED_ITEM('color',(#1422),#33);
#1422 = PRESENTATION_STYLE_ASSIGNMENT((#1423,#1429));
#1423 = SURFACE_STYLE_USAGE(.BOTH.,#1424);
#1424 = SURFACE_SIDE_STYLE('',(#1425));
#1425 = SURFACE_STYLE_FILL_AREA(#1426);
#1426 = FILL_AREA_STYLE('',(#1427));
#1427 = FILL_AREA_STYLE_COLOUR('',#1428);
#1428 = COLOUR_RGB('',0.,0.377508427907,0.578582128266);
#1429 = CURVE_STYLE('',#1430,POSITIVE_LENGTH_MEASURE(0.1),#1428);
#1430 = DRAUGHTING_PRE_DEFINED_CURVE_FONT('continuous');
#1431 = OVER_RIDING_STYLED_ITEM('overriding color',(#1432),#35,#1421);
#1432 = PRESENTATION_STYLE_ASSIGNMENT((#1433));
#1433 = SURFACE_STYLE_USAGE(.BOTH.,#1434);
#1434 = SURFACE_SIDE_STYLE('',(#1435));
#1435 = SURFACE_STYLE_FILL_AREA(#1436);
#1436 = FILL_AREA_STYLE('',(#1437));
#1437 = FILL_AREA_STYLE_COLOUR('',#1438);
#1438 = COLOUR_RGB('',0.937179583391,0.9357410338,0.649182888601);
#1439 = OVER_RIDING_STYLED_ITEM('overriding color',(#1440),#75,#1421);
#1440 = PRESENTATION_STYLE_ASSIGNMENT((#1441));
#1441 = SURFACE_STYLE_USAGE(.BOTH.,#1442);
#1442 = SURFACE_SIDE_STYLE('',(#1443));
#1443 = SURFACE_STYLE_FILL_AREA(#1444);
#1444 = FILL_AREA_STYLE('',(#1445));
#1445 = FILL_AREA_STYLE_COLOUR('',#1438);
#1446 = OVER_RIDING_STYLED_ITEM('overriding color',(#1447),#108,#1421);
#1447 = PRESENTATION_STYLE_ASSIGNMENT((#1448));
#1448 = SURFACE_STYLE_USAGE(.BOTH.,#1449);
#1449 = SURFACE_SIDE_STYLE('',(#1450));
#1450 = SURFACE_STYLE_FILL_AREA(#1451);
#1451 = FILL_AREA_STYLE('',(#1452));
#1452 = FILL_AREA_STYLE_COLOUR('',#1438);
#1453 = OVER_RIDING_STYLED_ITEM('overriding color',(#1454),#785,#1421);
#1454 = PRESENTATION_STYLE_ASSIGNMENT((#1455));
#1455 = SURFACE_STYLE_USAGE(.BOTH.,#1456);
#1456 = SURFACE_SIDE_STYLE('',(#1457));
#1457 = SURFACE_STYLE_FILL_AREA(#1458);
#1458 = FILL_AREA_STYLE('',(#1459));
#1459 = FILL_AREA_STYLE_COLOUR('',#1438);
#1460 = OVER_RIDING_STYLED_ITEM('overriding color',(#1461),#802,#1421);
#1461 = PRESENTATION_STYLE_ASSIGNMENT((#1462));
#1462 = SURFACE_STYLE_USAGE(.BOTH.,#1463);
#1463 = SURFACE_SIDE_STYLE('',(#1464));
#1464 = SURFACE_STYLE_FILL_AREA(#1465);
#1465 = FILL_AREA_STYLE('',(#1466));
#1466 = FILL_AREA_STYLE_COLOUR('',#1438);
#1467 = OVER_RIDING_STYLED_ITEM('overriding color',(#1468),#819,#1421);
#1468 = PRESENTATION_STYLE_ASSIGNMENT((#1469));
#1469 = SURFACE_STYLE_USAGE(.BOTH.,#1470);
#1470 = SURFACE_SIDE_STYLE('',(#1471));
#1471 = SURFACE_STYLE_FILL_AREA(#1472);
#1472 = FILL_AREA_STYLE('',(#1473));
#1473 = FILL_AREA_STYLE_COLOUR('',#1438);
#1474 = OVER_RIDING_STYLED_ITEM('overriding color',(#1475),#836,#1421);
#1475 = PRESENTATION_STYLE_ASSIGNMENT((#1476));
#1476 = SURFACE_STYLE_USAGE(.BOTH.,#1477);
#1477 = SURFACE_SIDE_STYLE('',(#1478));
#1478 = SURFACE_STYLE_FILL_AREA(#1479);
#1479 = FILL_AREA_STYLE('',(#1480));
#1480 = FILL_AREA_STYLE_COLOUR('',#1438);
#1481 = OVER_RIDING_STYLED_ITEM('overriding color',(#1482),#853,#1421);
#1482 = PRESENTATION_STYLE_ASSIGNMENT((#1483));
#1483 = SURFACE_STYLE_USAGE(.BOTH.,#1484);
#1484 = SURFACE_SIDE_STYLE('',(#1485));
#1485 = SURFACE_STYLE_FILL_AREA(#1486);
#1486 = FILL_AREA_STYLE('',(#1487));
#1487 = FILL_AREA_STYLE_COLOUR('',#1438);
#1488 = OVER_RIDING_STYLED_ITEM('overriding color',(#1489),#870,#1421);
#1489 = PRESENTATION_STYLE_ASSIGNMENT((#1490));
#1490 = SURFACE_STYLE_USAGE(.BOTH.,#1491);
#1491 = SURFACE_SIDE_STYLE('',(#1492));
#1492 = SURFACE_STYLE_FILL_AREA(#1493);
#1493 = FILL_AREA_STYLE('',(#1494));
#1494 = FILL_AREA_STYLE_COLOUR('',#1438);
#1495 = OVER_RIDING_STYLED_ITEM('overriding color',(#1496),#887,#1421);
#1496 = PRESENTATION_STYLE_ASSIGNMENT((#1497));
#1497 = SURFACE_STYLE_USAGE(.BOTH.,#1498);
#1498 = SURFACE_SIDE_STYLE('',(#1499));
#1499 = SURFACE_STYLE_FILL_AREA(#1500);
#1500 = FILL_AREA_STYLE('',(#1501));
#1501 = FILL_AREA_STYLE_COLOUR('',#1438);
#1502 = OVER_RIDING_STYLED_ITEM('overriding color',(#1503),#904,#1421);
#1503 = PRESENTATION_STYLE_ASSIGNMENT((#1504));
#1504 = SURFACE_STYLE_USAGE(.BOTH.,#1505);
#1505 = SURFACE_SIDE_STYLE('',(#1506));
#1506 = SURFACE_STYLE_FILL_AREA(#1507);
#1507 = FILL_AREA_STYLE('',(#1508));
#1508 = FILL_AREA_STYLE_COLOUR('',#1438);
#1509 = OVER_RIDING_STYLED_ITEM('overriding color',(#1510),#921,#1421);
#1510 = PRESENTATION_STYLE_ASSIGNMENT((#1511));
#1511 = SURFACE_STYLE_USAGE(.BOTH.,#1512);
#1512 = SURFACE_SIDE_STYLE('',(#1513));
#1513 = SURFACE_STYLE_FILL_AREA(#1514);
#1514 = FILL_AREA_STYLE('',(#1515));
#1515 = FILL_AREA_STYLE_COLOUR('',#1438);
#1516 = OVER_RIDING_STYLED_ITEM('overriding color',(#1517),#938,#1421);
#1517 = PRESENTATION_STYLE_ASSIGNMENT((#1518));
#1518 = SURFACE_STYLE_USAGE(.BOTH.,#1519);
#1519 = SURFACE_SIDE_STYLE('',(#1520));
#1520 = SURFACE_STYLE_FILL_AREA(#1521);
#1521 = FILL_AREA_STYLE('',(#1522));
#1522 = FILL_AREA_STYLE_COLOUR('',#1438);
#1523 = OVER_RIDING_STYLED_ITEM('overriding color',(#1524),#955,#1421);
#1524 = PRESENTATION_STYLE_ASSIGNMENT((#1525));
#1525 = SURFACE_STYLE_USAGE(.BOTH.,#1526);
#1526 = SURFACE_SIDE_STYLE('',(#1527));
#1527 = SURFACE_STYLE_FILL_AREA(#1528);
#1528 = FILL_AREA_STYLE('',(#1529));
#1529 = FILL_AREA_STYLE_COLOUR('',#1438);
#1530 = OVER_RIDING_STYLED_ITEM('overriding color',(#1531),#972,#1421);
#1531 = PRESENTATION_STYLE_ASSIGNMENT((#1532));
#1532 = SURFACE_STYLE_USAGE(.BOTH.,#1533);
#1533 = SURFACE_SIDE_STYLE('',(#1534));
#1534 = SURFACE_STYLE_FILL_AREA(#1535);
#1535 = FILL_AREA_STYLE('',(#1536));
#1536 = FILL_AREA_STYLE_COLOUR('',#1438);
#1537 = OVER_RIDING_STYLED_ITEM('overriding color',(#1538),#989,#1421);
#1538 = PRESENTATION_STYLE_ASSIGNMENT((#1539));
#1539 = SURFACE_STYLE_USAGE(.BOTH.,#1540);
#1540 = SURFACE_SIDE_STYLE('',(#1541));
#1541 = SURFACE_STYLE_FILL_AREA(#1542);
#1542 = FILL_AREA_STYLE('',(#1543));
#1543 = FILL_AREA_STYLE_COLOUR('',#1438);
#1544 = OVER_RIDING_STYLED_ITEM('overriding color',(#1545),#1006,#1421);
#1545 = PRESENTATION_STYLE_ASSIGNMENT((#1546));
#1546 = SURFACE_STYLE_USAGE(.BOTH.,#1547);
#1547 = SURFACE_SIDE_STYLE('',(#1548));
#1548 = SURFACE_STYLE_FILL_AREA(#1549);
#1549 = FILL_AREA_STYLE('',(#1550));
#1550 = FILL_AREA_STYLE_COLOUR('',#1438);
#1551 = OVER_RIDING_STYLED_ITEM('overriding color',(#1552),#1023,#1421);
#1552 = PRESENTATION_STYLE_ASSIGNMENT((#1553));
#1553 = SURFACE_STYLE_USAGE(.BOTH.,#1554);
#1554 = SURFACE_SIDE_STYLE('',(#1555));
#1555 = SURFACE_STYLE_FILL_AREA(#1556);
#1556 = FILL_AREA_STYLE('',(#1557));
#1557 = FILL_AREA_STYLE_COLOUR('',#1438);
#1558 = OVER_RIDING_STYLED_ITEM('overriding color',(#1559),#1040,#1421);
#1559 = PRESENTATION_STYLE_ASSIGNMENT((#1560));
#1560 = SURFACE_STYLE_USAGE(.BOTH.,#1561);
#1561 = SURFACE_SIDE_STYLE('',(#1562));
#1562 = SURFACE_STYLE_FILL_AREA(#1563);
#1563 = FILL_AREA_STYLE('',(#1564));
#1564 = FILL_AREA_STYLE_COLOUR('',#1438);
#1565 = OVER_RIDING_STYLED_ITEM('overriding color',(#1566),#1057,#1421);
#1566 = PRESENTATION_STYLE_ASSIGNMENT((#1567));
#1567 = SURFACE_STYLE_USAGE(.BOTH.,#1568);
#1568 = SURFACE_SIDE_STYLE('',(#1569));
#1569 = SURFACE_STYLE_FILL_AREA(#1570);
#1570 = FILL_AREA_STYLE('',(#1571));
#1571 = FILL_AREA_STYLE_COLOUR('',#1438);
#1572 = OVER_RIDING_STYLED_ITEM('overriding color',(#1573),#1074,#1421);
#1573 = PRESENTATION_STYLE_ASSIGNMENT((#1574));
#1574 = SURFACE_STYLE_USAGE(.BOTH.,#1575);
#1575 = SURFACE_SIDE_STYLE('',(#1576));
#1576 = SURFACE_STYLE_FILL_AREA(#1577);
#1577 = FILL_AREA_STYLE('',(#1578));
#1578 = FILL_AREA_STYLE_COLOUR('',#1438);
#1579 = OVER_RIDING_STYLED_ITEM('overriding color',(#1580),#1091,#1421);
#1580 = PRESENTATION_STYLE_ASSIGNMENT((#1581));
#1581 = SURFACE_STYLE_USAGE(.BOTH.,#1582);
#1582 = SURFACE_SIDE_STYLE('',(#1583));
#1583 = SURFACE_STYLE_FILL_AREA(#1584);
#1584 = FILL_AREA_STYLE('',(#1585));
#1585 = FILL_AREA_STYLE_COLOUR('',#1438);
#1586 = OVER_RIDING_STYLED_ITEM('overriding color',(#1587),#1108,#1421);
#1587 = PRESENTATION_STYLE_ASSIGNMENT((#1588));
#1588 = SURFACE_STYLE_USAGE(.BOTH.,#1589);
#1589 = SURFACE_SIDE_STYLE('',(#1590));
#1590 = SURFACE_STYLE_FILL_AREA(#1591);
#1591 = FILL_AREA_STYLE('',(#1592));
#1592 = FILL_AREA_STYLE_COLOUR('',#1438);
#1593 = OVER_RIDING_STYLED_ITEM('overriding color',(#1594),#1125,#1421);
#1594 = PRESENTATION_STYLE_ASSIGNMENT((#1595));
#1595 = SURFACE_STYLE_USAGE(.BOTH.,#1596);
#1596 = SURFACE_SIDE_STYLE('',(#1597));
#1597 = SURFACE_STYLE_FILL_AREA(#1598);
#1598 = FILL_AREA_STYLE('',(#1599));
#1599 = FILL_AREA_STYLE_COLOUR('',#1438);
#1600 = OVER_RIDING_STYLED_ITEM('overriding color',(#1601),#1137,#1421);
#1601 = PRESENTATION_STYLE_ASSIGNMENT((#1602));
#1602 = SURFACE_STYLE_USAGE(.BOTH.,#1603);
#1603 = SURFACE_SIDE_STYLE('',(#1604));
#1604 = SURFACE_STYLE_FILL_AREA(#1605);
#1605 = FILL_AREA_STYLE('',(#1606));
#1606 = FILL_AREA_STYLE_COLOUR('',#1438);
#1607 = OVER_RIDING_STYLED_ITEM('overriding color',(#1608),#1159,#1421);
#1608 = PRESENTATION_STYLE_ASSIGNMENT((#1609));
#1609 = SURFACE_STYLE_USAGE(.BOTH.,#1610);
#1610 = SURFACE_SIDE_STYLE('',(#1611));
#1611 = SURFACE_STYLE_FILL_AREA(#1612);
#1612 = FILL_AREA_STYLE('',(#1613));
#1613 = FILL_AREA_STYLE_COLOUR('',#1438);
#1614 = OVER_RIDING_STYLED_ITEM('overriding color',(#1615),#1176,#1421);
#1615 = PRESENTATION_STYLE_ASSIGNMENT((#1616));
#1616 = SURFACE_STYLE_USAGE(.BOTH.,#1617);
#1617 = SURFACE_SIDE_STYLE('',(#1618));
#1618 = SURFACE_STYLE_FILL_AREA(#1619);
#1619 = FILL_AREA_STYLE('',(#1620));
#1620 = FILL_AREA_STYLE_COLOUR('',#1438);
#1621 = OVER_RIDING_STYLED_ITEM('overriding color',(#1622),#1193,#1421);
#1622 = PRESENTATION_STYLE_ASSIGNMENT((#1623));
#1623 = SURFACE_STYLE_USAGE(.BOTH.,#1624);
#1624 = SURFACE_SIDE_STYLE('',(#1625));
#1625 = SURFACE_STYLE_FILL_AREA(#1626);
#1626 = FILL_AREA_STYLE('',(#1627));
#1627 = FILL_AREA_STYLE_COLOUR('',#1438);
#1628 = OVER_RIDING_STYLED_ITEM('overriding color',(#1629),#1205,#1421);
#1629 = PRESENTATION_STYLE_ASSIGNMENT((#1630));
#1630 = SURFACE_STYLE_USAGE(.BOTH.,#1631);
#1631 = SURFACE_SIDE_STYLE('',(#1632));
#1632 = SURFACE_STYLE_FILL_AREA(#1633);
#1633 = FILL_AREA_STYLE('',(#1634));
#1634 = FILL_AREA_STYLE_COLOUR('',#1438);
#1635 = OVER_RIDING_STYLED_ITEM('overriding color',(#1636),#1227,#1421);
#1636 = PRESENTATION_STYLE_ASSIGNMENT((#1637));
#1637 = SURFACE_STYLE_USAGE(.BOTH.,#1638);
#1638 = SURFACE_SIDE_STYLE('',(#1639));
#1639 = SURFACE_STYLE_FILL_AREA(#1640);
#1640 = FILL_AREA_STYLE('',(#1641));
#1641 = FILL_AREA_STYLE_COLOUR('',#1438);
#1642 = OVER_RIDING_STYLED_ITEM('overriding color',(#1643),#1244,#1421);
#1643 = PRESENTATION_STYLE_ASSIGNMENT((#1644));
#1644 = SURFACE_STYLE_USAGE(.BOTH.,#1645);
#1645 = SURFACE_SIDE_STYLE('',(#1646));
#1646 = SURFACE_STYLE_FILL_AREA(#1647);
#1647 = FILL_AREA_STYLE('',(#1648));
#1648 = FILL_AREA_STYLE_COLOUR('',#1438);
#1649 = OVER_RIDING_STYLED_ITEM('overriding color',(#1650),#1261,#1421);
#1650 = PRESENTATION_STYLE_ASSIGNMENT((#1651));
#1651 = SURFACE_STYLE_USAGE(.BOTH.,#1652);
#1652 = SURFACE_SIDE_STYLE('',(#1653));
#1653 = SURFACE_STYLE_FILL_AREA(#1654);
#1654 = FILL_AREA_STYLE('',(#1655));
#1655 = FILL_AREA_STYLE_COLOUR('',#1438);
#1656 = OVER_RIDING_STYLED_ITEM('overriding color',(#1657),#1273,#1421);
#1657 = PRESENTATION_STYLE_ASSIGNMENT((#1658));
#1658 = SURFACE_STYLE_USAGE(.BOTH.,#1659);
#1659 = SURFACE_SIDE_STYLE('',(#1660));
#1660 = SURFACE_STYLE_FILL_AREA(#1661);
#1661 = FILL_AREA_STYLE('',(#1662));
#1662 = FILL_AREA_STYLE_COLOUR('',#1438);
#1663 = OVER_RIDING_STYLED_ITEM('overriding color',(#1664),#1295,#1421);
#1664 = PRESENTATION_STYLE_ASSIGNMENT((#1665));
#1665 = SURFACE_STYLE_USAGE(.BOTH.,#1666);
#1666 = SURFACE_SIDE_STYLE('',(#1667));
#1667 = SURFACE_STYLE_FILL_AREA(#1668);
#1668 = FILL_AREA_STYLE('',(#1669));
#1669 = FILL_AREA_STYLE_COLOUR('',#1438);
#1670 = OVER_RIDING_STYLED_ITEM('overriding color',(#1671),#1312,#1421);
#1671 = PRESENTATION_STYLE_ASSIGNMENT((#1672));
#1672 = SURFACE_STYLE_USAGE(.BOTH.,#1673);
#1673 = SURFACE_SIDE_STYLE('',(#1674));
#1674 = SURFACE_STYLE_FILL_AREA(#1675);
#1675 = FILL_AREA_STYLE('',(#1676));
#1676 = FILL_AREA_STYLE_COLOUR('',#1438);
#1677 = OVER_RIDING_STYLED_ITEM('overriding color',(#1678),#1329,#1421);
#1678 = PRESENTATION_STYLE_ASSIGNMENT((#1679));
#1679 = SURFACE_STYLE_USAGE(.BOTH.,#1680);
#1680 = SURFACE_SIDE_STYLE('',(#1681));
#1681 = SURFACE_STYLE_FILL_AREA(#1682);
#1682 = FILL_AREA_STYLE('',(#1683));
#1683 = FILL_AREA_STYLE_COLOUR('',#1438);
#1684 = OVER_RIDING_STYLED_ITEM('overriding color',(#1685),#1346,#1421);
#1685 = PRESENTATION_STYLE_ASSIGNMENT((#1686));
#1686 = SURFACE_STYLE_USAGE(.BOTH.,#1687);
#1687 = SURFACE_SIDE_STYLE('',(#1688));
#1688 = SURFACE_STYLE_FILL_AREA(#1689);
#1689 = FILL_AREA_STYLE('',(#1690));
#1690 = FILL_AREA_STYLE_COLOUR('',#1438);
#1691 = OVER_RIDING_STYLED_ITEM('overriding color',(#1692),#1363,#1421);
#1692 = PRESENTATION_STYLE_ASSIGNMENT((#1693));
#1693 = SURFACE_STYLE_USAGE(.BOTH.,#1694);
#1694 = SURFACE_SIDE_STYLE('',(#1695));
#1695 = SURFACE_STYLE_FILL_AREA(#1696);
#1696 = FILL_AREA_STYLE('',(#1697));
#1697 = FILL_AREA_STYLE_COLOUR('',#1438);
#1698 = OVER_RIDING_STYLED_ITEM('overriding color',(#1699),#1380,#1421);
#1699 = PRESENTATION_STYLE_ASSIGNMENT((#1700));
#1700 = SURFACE_STYLE_USAGE(.BOTH.,#1701);
#1701 = SURFACE_SIDE_STYLE('',(#1702));
#1702 = SURFACE_STYLE_FILL_AREA(#1703);
#1703 = FILL_AREA_STYLE('',(#1704));
#1704 = FILL_AREA_STYLE_COLOUR('',#1438);
#1705 = OVER_RIDING_STYLED_ITEM('overriding color',(#1706),#1397,#1421);
#1706 = PRESENTATION_STYLE_ASSIGNMENT((#1707));
#1707 = SURFACE_STYLE_USAGE(.BOTH.,#1708);
#1708 = SURFACE_SIDE_STYLE('',(#1709));
#1709 = SURFACE_STYLE_FILL_AREA(#1710);
#1710 = FILL_AREA_STYLE('',(#1711));
#1711 = FILL_AREA_STYLE_COLOUR('',#1438);
ENDSEC;
END-ISO-10303-21;
