ISO-10303-21;
HEADER;
FILE_DESCRIPTION(('Designed by EasyEDA Pro'),'2;1');
FILE_NAME('Open CASCADE Shape Model','2024-10-02T20:27:24',('Author'),(
    'Open CASCADE'),'Open CASCADE STEP processor 7.8','Open CASCADE 7.8'
  ,'Unknown');
FILE_SCHEMA(('AUTOMOTIVE_DESIGN { 1 0 10303 214 1 1 1 1 }'));
ENDSEC;
DATA;
#1 = APPLICATION_PROTOCOL_DEFINITION('international standard',
  'automotive_design',2000,#2);
#2 = APPLICATION_CONTEXT(
  'core data for automotive mechanical design processes');
#3 = SHAPE_DEFINITION_REPRESENTATION(#4,#10);
#4 = PRODUCT_DEFINITION_SHAPE('','',#5);
#5 = PRODUCT_DEFINITION('design','',#6,#9);
#6 = PRODUCT_DEFINITION_FORMATION('','',#7);
#7 = PRODUCT('PCBModel','PCBModel','',(#8));
#8 = PRODUCT_CONTEXT('',#2,'mechanical');
#9 = PRODUCT_DEFINITION_CONTEXT('part definition',#2,'design');
#10 = SHAPE_REPRESENTATION('',(#11,#15),#19);
#11 = AXIS2_PLACEMENT_3D('',#12,#13,#14);
#12 = CARTESIAN_POINT('',(0.,0.,0.));
#13 = DIRECTION('',(0.,0.,1.));
#14 = DIRECTION('',(1.,0.,-0.));
#15 = AXIS2_PLACEMENT_3D('',#16,#17,#18);
#16 = CARTESIAN_POINT('',(0.,0.,0.));
#17 = DIRECTION('',(0.,0.,1.));
#18 = DIRECTION('',(1.,0.,-0.));
#19 = ( GEOMETRIC_REPRESENTATION_CONTEXT(3) 
GLOBAL_UNCERTAINTY_ASSIGNED_CONTEXT((#23)) GLOBAL_UNIT_ASSIGNED_CONTEXT(
(#20,#21,#22)) REPRESENTATION_CONTEXT('Context #1',
  '3D Context with UNIT and UNCERTAINTY') );
#20 = ( LENGTH_UNIT() NAMED_UNIT(*) SI_UNIT(.MILLI.,.METRE.) );
#21 = ( NAMED_UNIT(*) PLANE_ANGLE_UNIT() SI_UNIT($,.RADIAN.) );
#22 = ( NAMED_UNIT(*) SI_UNIT($,.STERADIAN.) SOLID_ANGLE_UNIT() );
#23 = UNCERTAINTY_MEASURE_WITH_UNIT(LENGTH_MEASURE(1.E-07),#20,
  'distance_accuracy_value','confusion accuracy');
#24 = PRODUCT_RELATED_PRODUCT_CATEGORY('part',$,(#7));
#25 = SHAPE_DEFINITION_REPRESENTATION(#26,#32);
#26 = PRODUCT_DEFINITION_SHAPE('','',#27);
#27 = PRODUCT_DEFINITION('design','',#28,#31);
#28 = PRODUCT_DEFINITION_FORMATION('','',#29);
#29 = PRODUCT('Board','Board','',(#30));
#30 = PRODUCT_CONTEXT('',#2,'mechanical');
#31 = PRODUCT_DEFINITION_CONTEXT('part definition',#2,'design');
#32 = ADVANCED_BREP_SHAPE_REPRESENTATION('',(#11,#33),#1133);
#33 = MANIFOLD_SOLID_BREP('',#34);
#34 = CLOSED_SHELL('',(#35,#75,#108,#141,#393,#645,#662,#679,#696,#713,
    #730,#747,#764,#781,#798,#815,#832,#849,#866,#883,#900,#917,#934,
    #951,#968,#985,#997,#1019,#1036,#1053,#1065,#1087,#1104,#1121));
#35 = ADVANCED_FACE('',(#36),#70,.T.);
#36 = FACE_BOUND('',#37,.T.);
#37 = EDGE_LOOP('',(#38,#48,#56,#64));
#38 = ORIENTED_EDGE('',*,*,#39,.T.);
#39 = EDGE_CURVE('',#40,#42,#44,.T.);
#40 = VERTEX_POINT('',#41);
#41 = CARTESIAN_POINT('',(-29.1123989517,-4.130308699769,0.));
#42 = VERTEX_POINT('',#43);
#43 = CARTESIAN_POINT('',(-29.1123989517,-4.130308699769,1.000001524003)
  );
#44 = LINE('',#45,#46);
#45 = CARTESIAN_POINT('',(-29.1123989517,-4.130308699769,0.));
#46 = VECTOR('',#47,1.);
#47 = DIRECTION('',(0.,0.,1.));
#48 = ORIENTED_EDGE('',*,*,#49,.T.);
#49 = EDGE_CURVE('',#42,#50,#52,.T.);
#50 = VERTEX_POINT('',#51);
#51 = CARTESIAN_POINT('',(-25.86975226035,-0.887662008415,1.000001524003
    ));
#52 = LINE('',#53,#54);
#53 = CARTESIAN_POINT('',(-29.1123989517,-4.130308699769,1.000001524003)
  );
#54 = VECTOR('',#55,1.);
#55 = DIRECTION('',(0.707106781187,0.707106781187,0.));
#56 = ORIENTED_EDGE('',*,*,#57,.F.);
#57 = EDGE_CURVE('',#58,#50,#60,.T.);
#58 = VERTEX_POINT('',#59);
#59 = CARTESIAN_POINT('',(-25.86975226035,-0.887662008415,0.));
#60 = LINE('',#61,#62);
#61 = CARTESIAN_POINT('',(-25.86975226035,-0.887662008415,0.));
#62 = VECTOR('',#63,1.);
#63 = DIRECTION('',(0.,0.,1.));
#64 = ORIENTED_EDGE('',*,*,#65,.F.);
#65 = EDGE_CURVE('',#40,#58,#66,.T.);
#66 = LINE('',#67,#68);
#67 = CARTESIAN_POINT('',(-29.1123989517,-4.130308699769,0.));
#68 = VECTOR('',#69,1.);
#69 = DIRECTION('',(0.707106781187,0.707106781187,0.));
#70 = PLANE('',#71);
#71 = AXIS2_PLACEMENT_3D('',#72,#73,#74);
#72 = CARTESIAN_POINT('',(-29.1123989517,-4.130308699769,0.));
#73 = DIRECTION('',(-0.707106781187,0.707106781187,0.));
#74 = DIRECTION('',(0.707106781187,0.707106781187,0.));
#75 = ADVANCED_FACE('',(#76),#103,.T.);
#76 = FACE_BOUND('',#77,.T.);
#77 = EDGE_LOOP('',(#78,#88,#95,#96));
#78 = ORIENTED_EDGE('',*,*,#79,.T.);
#79 = EDGE_CURVE('',#80,#82,#84,.T.);
#80 = VERTEX_POINT('',#81);
#81 = CARTESIAN_POINT('',(-29.98736093472,-6.242651769589,0.));
#82 = VERTEX_POINT('',#83);
#83 = CARTESIAN_POINT('',(-29.98736093472,-6.242651769589,1.000001524003
    ));
#84 = LINE('',#85,#86);
#85 = CARTESIAN_POINT('',(-29.98736093472,-6.242651769589,0.));
#86 = VECTOR('',#87,1.);
#87 = DIRECTION('',(0.,0.,1.));
#88 = ORIENTED_EDGE('',*,*,#89,.T.);
#89 = EDGE_CURVE('',#82,#42,#90,.T.);
#90 = CIRCLE('',#91,2.98730463528);
#91 = AXIS2_PLACEMENT_3D('',#92,#93,#94);
#92 = CARTESIAN_POINT('',(-27.00005629944,-6.242652777656,1.000001524003
    ));
#93 = DIRECTION('',(0.,0.,-1.));
#94 = DIRECTION('',(-1.,3.374504346606E-07,0.));
#95 = ORIENTED_EDGE('',*,*,#39,.F.);
#96 = ORIENTED_EDGE('',*,*,#97,.F.);
#97 = EDGE_CURVE('',#80,#40,#98,.T.);
#98 = CIRCLE('',#99,2.98730463528);
#99 = AXIS2_PLACEMENT_3D('',#100,#101,#102);
#100 = CARTESIAN_POINT('',(-27.00005629944,-6.242652777656,0.));
#101 = DIRECTION('',(0.,0.,-1.));
#102 = DIRECTION('',(-1.,3.374504346606E-07,0.));
#103 = CYLINDRICAL_SURFACE('',#104,2.98730463528);
#104 = AXIS2_PLACEMENT_3D('',#105,#106,#107);
#105 = CARTESIAN_POINT('',(-27.00005629944,-6.242652777656,0.));
#106 = DIRECTION('',(0.,0.,-1.));
#107 = DIRECTION('',(-1.,3.374504346606E-07,0.));
#108 = ADVANCED_FACE('',(#109),#136,.T.);
#109 = FACE_BOUND('',#110,.T.);
#110 = EDGE_LOOP('',(#111,#112,#121,#129));
#111 = ORIENTED_EDGE('',*,*,#57,.T.);
#112 = ORIENTED_EDGE('',*,*,#113,.T.);
#113 = EDGE_CURVE('',#50,#114,#116,.T.);
#114 = VERTEX_POINT('',#115);
#115 = CARTESIAN_POINT('',(-23.75740919053,-1.270002540005E-02,
    1.000001524003));
#116 = CIRCLE('',#117,2.98730463528);
#117 = AXIS2_PLACEMENT_3D('',#118,#119,#120);
#118 = CARTESIAN_POINT('',(-23.75740818246,-3.00000466068,1.000001524003
    ));
#119 = DIRECTION('',(0.,0.,-1.));
#120 = DIRECTION('',(-0.7071070198,0.707106542573,0.));
#121 = ORIENTED_EDGE('',*,*,#122,.F.);
#122 = EDGE_CURVE('',#123,#114,#125,.T.);
#123 = VERTEX_POINT('',#124);
#124 = CARTESIAN_POINT('',(-23.75740919053,-1.270002540005E-02,0.));
#125 = LINE('',#126,#127);
#126 = CARTESIAN_POINT('',(-23.75740919053,-1.270002540005E-02,0.));
#127 = VECTOR('',#128,1.);
#128 = DIRECTION('',(0.,0.,1.));
#129 = ORIENTED_EDGE('',*,*,#130,.F.);
#130 = EDGE_CURVE('',#58,#123,#131,.T.);
#131 = CIRCLE('',#132,2.98730463528);
#132 = AXIS2_PLACEMENT_3D('',#133,#134,#135);
#133 = CARTESIAN_POINT('',(-23.75740818246,-3.00000466068,0.));
#134 = DIRECTION('',(0.,0.,-1.));
#135 = DIRECTION('',(-0.7071070198,0.707106542573,0.));
#136 = CYLINDRICAL_SURFACE('',#137,2.98730463528);
#137 = AXIS2_PLACEMENT_3D('',#138,#139,#140);
#138 = CARTESIAN_POINT('',(-23.75740818246,-3.00000466068,0.));
#139 = DIRECTION('',(0.,0.,-1.));
#140 = DIRECTION('',(-0.7071070198,0.707106542573,0.));
#141 = ADVANCED_FACE('',(#142,#320,#354),#388,.T.);
#142 = FACE_BOUND('',#143,.T.);
#143 = EDGE_LOOP('',(#144,#145,#146,#154,#162,#171,#179,#187,#195,#204,
    #212,#221,#229,#237,#245,#254,#262,#270,#279,#287,#296,#304,#313,
    #319));
#144 = ORIENTED_EDGE('',*,*,#65,.T.);
#145 = ORIENTED_EDGE('',*,*,#130,.T.);
#146 = ORIENTED_EDGE('',*,*,#147,.T.);
#147 = EDGE_CURVE('',#123,#148,#150,.T.);
#148 = VERTEX_POINT('',#149);
#149 = CARTESIAN_POINT('',(-1.270002540005E-02,-1.270002540005E-02,0.));
#150 = LINE('',#151,#152);
#151 = CARTESIAN_POINT('',(-23.75740919053,-1.270002540005E-02,0.));
#152 = VECTOR('',#153,1.);
#153 = DIRECTION('',(1.,-6.195255951117E-17,0.));
#154 = ORIENTED_EDGE('',*,*,#155,.T.);
#155 = EDGE_CURVE('',#148,#156,#158,.T.);
#156 = VERTEX_POINT('',#157);
#157 = CARTESIAN_POINT('',(-1.270002540005E-02,-2.70000508001,0.));
#158 = LINE('',#159,#160);
#159 = CARTESIAN_POINT('',(-1.270002540005E-02,-1.270002540005E-02,0.));
#160 = VECTOR('',#161,1.);
#161 = DIRECTION('',(6.132490613043E-17,-1.,0.));
#162 = ORIENTED_EDGE('',*,*,#163,.T.);
#163 = EDGE_CURVE('',#156,#164,#166,.T.);
#164 = VERTEX_POINT('',#165);
#165 = CARTESIAN_POINT('',(-1.978856345356E-17,-2.71270510541,0.));
#166 = CIRCLE('',#167,1.270002540005E-02);
#167 = AXIS2_PLACEMENT_3D('',#168,#169,#170);
#168 = CARTESIAN_POINT('',(8.890457814381E-17,-2.70000508001,0.));
#169 = DIRECTION('',(0.,0.,1.));
#170 = DIRECTION('',(-1.,-5.022431382993E-15,0.));
#171 = ORIENTED_EDGE('',*,*,#172,.T.);
#172 = EDGE_CURVE('',#164,#173,#175,.T.);
#173 = VERTEX_POINT('',#174);
#174 = CARTESIAN_POINT('',(0.987302514605,-2.71270510541,0.));
#175 = LINE('',#176,#177);
#176 = CARTESIAN_POINT('',(-1.947076727966E-17,-2.71270510541,0.));
#177 = VECTOR('',#178,1.);
#178 = DIRECTION('',(1.,0.,0.));
#179 = ORIENTED_EDGE('',*,*,#180,.T.);
#180 = EDGE_CURVE('',#173,#181,#183,.T.);
#181 = VERTEX_POINT('',#182);
#182 = CARTESIAN_POINT('',(0.987302514605,-5.68731013462,0.));
#183 = LINE('',#184,#185);
#184 = CARTESIAN_POINT('',(0.987302514605,-2.71270510541,0.));
#185 = VECTOR('',#186,1.);
#186 = DIRECTION('',(3.732337617005E-17,-1.,0.));
#187 = ORIENTED_EDGE('',*,*,#188,.T.);
#188 = EDGE_CURVE('',#181,#189,#191,.T.);
#189 = VERTEX_POINT('',#190);
#190 = CARTESIAN_POINT('',(-5.589703250522E-19,-5.68731013462,0.));
#191 = LINE('',#192,#193);
#192 = CARTESIAN_POINT('',(0.987302514605,-5.68731013462,0.));
#193 = VECTOR('',#194,1.);
#194 = DIRECTION('',(-1.,0.,0.));
#195 = ORIENTED_EDGE('',*,*,#196,.T.);
#196 = EDGE_CURVE('',#189,#197,#199,.T.);
#197 = VERTEX_POINT('',#198);
#198 = CARTESIAN_POINT('',(-1.270002540005E-02,-5.70001016002,0.));
#199 = CIRCLE('',#200,1.270002540005E-02);
#200 = AXIS2_PLACEMENT_3D('',#201,#202,#203);
#201 = CARTESIAN_POINT('',(3.766855652099E-16,-5.70001016002,0.));
#202 = DIRECTION('',(0.,0.,1.));
#203 = DIRECTION('',(-2.974824742234E-14,1.,0.));
#204 = ORIENTED_EDGE('',*,*,#205,.T.);
#205 = EDGE_CURVE('',#197,#206,#208,.T.);
#206 = VERTEX_POINT('',#207);
#207 = CARTESIAN_POINT('',(-1.270002540005E-02,-23.70004826009,0.));
#208 = LINE('',#209,#210);
#209 = CARTESIAN_POINT('',(-1.270002540005E-02,-5.70001016002,0.));
#210 = VECTOR('',#211,1.);
#211 = DIRECTION('',(6.119705975737E-17,-1.,0.));
#212 = ORIENTED_EDGE('',*,*,#213,.T.);
#213 = EDGE_CURVE('',#206,#214,#216,.T.);
#214 = VERTEX_POINT('',#215);
#215 = CARTESIAN_POINT('',(-2.41910301887E-18,-23.71274828549,0.));
#216 = CIRCLE('',#217,1.270002540005E-02);
#217 = AXIS2_PLACEMENT_3D('',#218,#219,#220);
#218 = CARTESIAN_POINT('',(7.598088824778E-16,-23.70004826009,0.));
#219 = DIRECTION('',(0.,0.,1.));
#220 = DIRECTION('',(-1.,1.622631677583E-14,0.));
#221 = ORIENTED_EDGE('',*,*,#222,.T.);
#222 = EDGE_CURVE('',#214,#223,#225,.T.);
#223 = VERTEX_POINT('',#224);
#224 = CARTESIAN_POINT('',(0.987302514605,-23.71274828549,0.));
#225 = LINE('',#226,#227);
#226 = CARTESIAN_POINT('',(-2.260297576149E-18,-23.71274828549,0.));
#227 = VECTOR('',#228,1.);
#228 = DIRECTION('',(1.,-3.598404365679E-15,0.));
#229 = ORIENTED_EDGE('',*,*,#230,.T.);
#230 = EDGE_CURVE('',#223,#231,#233,.T.);
#231 = VERTEX_POINT('',#232);
#232 = CARTESIAN_POINT('',(0.987302514605,-26.6873533147,0.));
#233 = LINE('',#234,#235);
#234 = CARTESIAN_POINT('',(0.987302514605,-23.71274828549,0.));
#235 = VECTOR('',#236,1.);
#236 = DIRECTION('',(3.732337617005E-17,-1.,0.));
#237 = ORIENTED_EDGE('',*,*,#238,.T.);
#238 = EDGE_CURVE('',#231,#239,#241,.T.);
#239 = VERTEX_POINT('',#240);
#240 = CARTESIAN_POINT('',(0.,-26.6873533147,0.));
#241 = LINE('',#242,#243);
#242 = CARTESIAN_POINT('',(0.987302514605,-26.6873533147,0.));
#243 = VECTOR('',#244,1.);
#244 = DIRECTION('',(-1.,0.,0.));
#245 = ORIENTED_EDGE('',*,*,#246,.T.);
#246 = EDGE_CURVE('',#239,#247,#249,.T.);
#247 = VERTEX_POINT('',#248);
#248 = CARTESIAN_POINT('',(-1.270002540005E-02,-26.7000533401,0.));
#249 = CIRCLE('',#250,1.270002540005E-02);
#250 = AXIS2_PLACEMENT_3D('',#251,#252,#253);
#251 = CARTESIAN_POINT('',(-6.607888384392E-17,-26.7000533401,0.));
#252 = DIRECTION('',(0.,0.,1.));
#253 = DIRECTION('',(5.215601820801E-15,1.,-0.));
#254 = ORIENTED_EDGE('',*,*,#255,.T.);
#255 = EDGE_CURVE('',#247,#256,#258,.T.);
#256 = VERTEX_POINT('',#257);
#257 = CARTESIAN_POINT('',(-1.270002540005E-02,-29.38735839471,0.));
#258 = LINE('',#259,#260);
#259 = CARTESIAN_POINT('',(-1.270002540005E-02,-26.7000533401,0.));
#260 = VECTOR('',#261,1.);
#261 = DIRECTION('',(6.003385547505E-17,-1.,0.));
#262 = ORIENTED_EDGE('',*,*,#263,.T.);
#263 = EDGE_CURVE('',#256,#264,#266,.T.);
#264 = VERTEX_POINT('',#265);
#265 = CARTESIAN_POINT('',(-2.50000508001,-29.38735839471,0.));
#266 = LINE('',#267,#268);
#267 = CARTESIAN_POINT('',(-1.270002540005E-02,-29.38735839471,0.));
#268 = VECTOR('',#269,1.);
#269 = DIRECTION('',(-1.,0.,0.));
#270 = ORIENTED_EDGE('',*,*,#271,.T.);
#271 = EDGE_CURVE('',#264,#272,#274,.T.);
#272 = VERTEX_POINT('',#273);
#273 = CARTESIAN_POINT('',(-5.01271018542,-31.90006350012,0.));
#274 = CIRCLE('',#275,2.51270510541);
#275 = AXIS2_PLACEMENT_3D('',#276,#277,#278);
#276 = CARTESIAN_POINT('',(-2.50000508001,-31.90006350012,0.));
#277 = DIRECTION('',(0.,0.,1.));
#278 = DIRECTION('',(-2.062042657732E-15,1.,0.));
#279 = ORIENTED_EDGE('',*,*,#280,.T.);
#280 = EDGE_CURVE('',#272,#281,#283,.T.);
#281 = VERTEX_POINT('',#282);
#282 = CARTESIAN_POINT('',(-5.01271018542,-34.70180595933,0.));
#283 = LINE('',#284,#285);
#284 = CARTESIAN_POINT('',(-5.01271018542,-31.90006350012,0.));
#285 = VECTOR('',#286,1.);
#286 = DIRECTION('',(3.170093014011E-15,-1.,0.));
#287 = ORIENTED_EDGE('',*,*,#288,.T.);
#288 = EDGE_CURVE('',#281,#289,#291,.T.);
#289 = VERTEX_POINT('',#290);
#290 = CARTESIAN_POINT('',(-6.252026239818,-35.65640495217,0.));
#291 = CIRCLE('',#292,0.987303108479);
#292 = AXIS2_PLACEMENT_3D('',#293,#294,#295);
#293 = CARTESIAN_POINT('',(-6.000013293898,-34.70180718185,0.));
#294 = DIRECTION('',(0.,0.,-1.));
#295 = DIRECTION('',(0.999999999999,1.238243006783E-06,0.));
#296 = ORIENTED_EDGE('',*,*,#297,.T.);
#297 = EDGE_CURVE('',#289,#298,#300,.T.);
#298 = VERTEX_POINT('',#299);
#299 = CARTESIAN_POINT('',(-27.7625799451,-29.97761907878,0.));
#300 = LINE('',#301,#302);
#301 = CARTESIAN_POINT('',(-6.252026239818,-35.65640495217,0.));
#302 = VECTOR('',#303,1.);
#303 = DIRECTION('',(-0.966873852488,0.255254683356,0.));
#304 = ORIENTED_EDGE('',*,*,#305,.T.);
#305 = EDGE_CURVE('',#298,#306,#308,.T.);
#306 = VERTEX_POINT('',#307);
#307 = CARTESIAN_POINT('',(-29.98736093472,-27.08927101918,0.));
#308 = CIRCLE('',#309,2.987306200931);
#309 = AXIS2_PLACEMENT_3D('',#310,#311,#312);
#310 = CARTESIAN_POINT('',(-27.00005473379,-27.08927117033,0.));
#311 = DIRECTION('',(0.,0.,-1.));
#312 = DIRECTION('',(-0.25525512285,-0.966873736461,-0.));
#313 = ORIENTED_EDGE('',*,*,#314,.T.);
#314 = EDGE_CURVE('',#306,#80,#315,.T.);
#315 = LINE('',#316,#317);
#316 = CARTESIAN_POINT('',(-29.98736093472,-27.08927101918,0.));
#317 = VECTOR('',#318,1.);
#318 = DIRECTION('',(5.112647239724E-16,1.,0.));
#319 = ORIENTED_EDGE('',*,*,#97,.T.);
#320 = FACE_BOUND('',#321,.T.);
#321 = EDGE_LOOP('',(#322,#332,#340,#348));
#322 = ORIENTED_EDGE('',*,*,#323,.F.);
#323 = EDGE_CURVE('',#324,#326,#328,.T.);
#324 = VERTEX_POINT('',#325);
#325 = CARTESIAN_POINT('',(-8.00001524003,-28.40005588011,0.));
#326 = VERTEX_POINT('',#327);
#327 = CARTESIAN_POINT('',(-5.00001016002,-28.40005588011,0.));
#328 = LINE('',#329,#330);
#329 = CARTESIAN_POINT('',(-8.00001524003,-28.40005588011,0.));
#330 = VECTOR('',#331,1.);
#331 = DIRECTION('',(1.,0.,0.));
#332 = ORIENTED_EDGE('',*,*,#333,.F.);
#333 = EDGE_CURVE('',#334,#324,#336,.T.);
#334 = VERTEX_POINT('',#335);
#335 = CARTESIAN_POINT('',(-8.00001524003,-29.40005842011,0.));
#336 = LINE('',#337,#338);
#337 = CARTESIAN_POINT('',(-8.00001524003,-29.40005842011,0.));
#338 = VECTOR('',#339,1.);
#339 = DIRECTION('',(0.,1.,0.));
#340 = ORIENTED_EDGE('',*,*,#341,.F.);
#341 = EDGE_CURVE('',#342,#334,#344,.T.);
#342 = VERTEX_POINT('',#343);
#343 = CARTESIAN_POINT('',(-5.00001016002,-29.40005842011,0.));
#344 = LINE('',#345,#346);
#345 = CARTESIAN_POINT('',(-5.00001016002,-29.40005842011,0.));
#346 = VECTOR('',#347,1.);
#347 = DIRECTION('',(-1.,0.,0.));
#348 = ORIENTED_EDGE('',*,*,#349,.F.);
#349 = EDGE_CURVE('',#326,#342,#350,.T.);
#350 = LINE('',#351,#352);
#351 = CARTESIAN_POINT('',(-5.00001016002,-28.40005588011,0.));
#352 = VECTOR('',#353,1.);
#353 = DIRECTION('',(0.,-1.,0.));
#354 = FACE_BOUND('',#355,.T.);
#355 = EDGE_LOOP('',(#356,#366,#374,#382));
#356 = ORIENTED_EDGE('',*,*,#357,.F.);
#357 = EDGE_CURVE('',#358,#360,#362,.T.);
#358 = VERTEX_POINT('',#359);
#359 = CARTESIAN_POINT('',(-20.00004064008,-28.40005588011,0.));
#360 = VERTEX_POINT('',#361);
#361 = CARTESIAN_POINT('',(-17.00003556007,-28.40005588011,0.));
#362 = LINE('',#363,#364);
#363 = CARTESIAN_POINT('',(-20.00004064008,-28.40005588011,0.));
#364 = VECTOR('',#365,1.);
#365 = DIRECTION('',(1.,0.,0.));
#366 = ORIENTED_EDGE('',*,*,#367,.F.);
#367 = EDGE_CURVE('',#368,#358,#370,.T.);
#368 = VERTEX_POINT('',#369);
#369 = CARTESIAN_POINT('',(-20.00004064008,-29.40005842011,0.));
#370 = LINE('',#371,#372);
#371 = CARTESIAN_POINT('',(-20.00004064008,-29.40005842011,0.));
#372 = VECTOR('',#373,1.);
#373 = DIRECTION('',(0.,1.,0.));
#374 = ORIENTED_EDGE('',*,*,#375,.F.);
#375 = EDGE_CURVE('',#376,#368,#378,.T.);
#376 = VERTEX_POINT('',#377);
#377 = CARTESIAN_POINT('',(-17.00003556007,-29.40005842011,0.));
#378 = LINE('',#379,#380);
#379 = CARTESIAN_POINT('',(-17.00003556007,-29.40005842011,0.));
#380 = VECTOR('',#381,1.);
#381 = DIRECTION('',(-1.,0.,0.));
#382 = ORIENTED_EDGE('',*,*,#383,.F.);
#383 = EDGE_CURVE('',#360,#376,#384,.T.);
#384 = LINE('',#385,#386);
#385 = CARTESIAN_POINT('',(-17.00003556007,-28.40005588011,0.));
#386 = VECTOR('',#387,1.);
#387 = DIRECTION('',(0.,-1.,0.));
#388 = PLANE('',#389);
#389 = AXIS2_PLACEMENT_3D('',#390,#391,#392);
#390 = CARTESIAN_POINT('',(-13.57924351793,-16.5055850558,0.));
#391 = DIRECTION('',(-0.,-0.,-1.));
#392 = DIRECTION('',(-1.,0.,0.));
#393 = ADVANCED_FACE('',(#394,#572,#606),#640,.F.);
#394 = FACE_BOUND('',#395,.F.);
#395 = EDGE_LOOP('',(#396,#397,#398,#406,#414,#423,#431,#439,#447,#456,
    #464,#473,#481,#489,#497,#506,#514,#522,#531,#539,#548,#556,#565,
    #571));
#396 = ORIENTED_EDGE('',*,*,#49,.T.);
#397 = ORIENTED_EDGE('',*,*,#113,.T.);
#398 = ORIENTED_EDGE('',*,*,#399,.T.);
#399 = EDGE_CURVE('',#114,#400,#402,.T.);
#400 = VERTEX_POINT('',#401);
#401 = CARTESIAN_POINT('',(-1.270002540005E-02,-1.270002540005E-02,
    1.000001524003));
#402 = LINE('',#403,#404);
#403 = CARTESIAN_POINT('',(-23.75740919053,-1.270002540005E-02,
    1.000001524003));
#404 = VECTOR('',#405,1.);
#405 = DIRECTION('',(1.,-6.195255951117E-17,0.));
#406 = ORIENTED_EDGE('',*,*,#407,.T.);
#407 = EDGE_CURVE('',#400,#408,#410,.T.);
#408 = VERTEX_POINT('',#409);
#409 = CARTESIAN_POINT('',(-1.270002540005E-02,-2.70000508001,
    1.000001524003));
#410 = LINE('',#411,#412);
#411 = CARTESIAN_POINT('',(-1.270002540005E-02,-1.270002540005E-02,
    1.000001524003));
#412 = VECTOR('',#413,1.);
#413 = DIRECTION('',(6.132490613043E-17,-1.,0.));
#414 = ORIENTED_EDGE('',*,*,#415,.T.);
#415 = EDGE_CURVE('',#408,#416,#418,.T.);
#416 = VERTEX_POINT('',#417);
#417 = CARTESIAN_POINT('',(-1.978856345356E-17,-2.71270510541,
    1.000001524003));
#418 = CIRCLE('',#419,1.270002540005E-02);
#419 = AXIS2_PLACEMENT_3D('',#420,#421,#422);
#420 = CARTESIAN_POINT('',(8.890457814381E-17,-2.70000508001,
    1.000001524003));
#421 = DIRECTION('',(0.,0.,1.));
#422 = DIRECTION('',(-1.,-5.022431382993E-15,0.));
#423 = ORIENTED_EDGE('',*,*,#424,.T.);
#424 = EDGE_CURVE('',#416,#425,#427,.T.);
#425 = VERTEX_POINT('',#426);
#426 = CARTESIAN_POINT('',(0.987302514605,-2.71270510541,1.000001524003)
  );
#427 = LINE('',#428,#429);
#428 = CARTESIAN_POINT('',(-1.947076727966E-17,-2.71270510541,
    1.000001524003));
#429 = VECTOR('',#430,1.);
#430 = DIRECTION('',(1.,0.,0.));
#431 = ORIENTED_EDGE('',*,*,#432,.T.);
#432 = EDGE_CURVE('',#425,#433,#435,.T.);
#433 = VERTEX_POINT('',#434);
#434 = CARTESIAN_POINT('',(0.987302514605,-5.68731013462,1.000001524003)
  );
#435 = LINE('',#436,#437);
#436 = CARTESIAN_POINT('',(0.987302514605,-2.71270510541,1.000001524003)
  );
#437 = VECTOR('',#438,1.);
#438 = DIRECTION('',(3.732337617005E-17,-1.,0.));
#439 = ORIENTED_EDGE('',*,*,#440,.T.);
#440 = EDGE_CURVE('',#433,#441,#443,.T.);
#441 = VERTEX_POINT('',#442);
#442 = CARTESIAN_POINT('',(-5.589703250522E-19,-5.68731013462,
    1.000001524003));
#443 = LINE('',#444,#445);
#444 = CARTESIAN_POINT('',(0.987302514605,-5.68731013462,1.000001524003)
  );
#445 = VECTOR('',#446,1.);
#446 = DIRECTION('',(-1.,0.,0.));
#447 = ORIENTED_EDGE('',*,*,#448,.T.);
#448 = EDGE_CURVE('',#441,#449,#451,.T.);
#449 = VERTEX_POINT('',#450);
#450 = CARTESIAN_POINT('',(-1.270002540005E-02,-5.70001016002,
    1.000001524003));
#451 = CIRCLE('',#452,1.270002540005E-02);
#452 = AXIS2_PLACEMENT_3D('',#453,#454,#455);
#453 = CARTESIAN_POINT('',(3.766855652099E-16,-5.70001016002,
    1.000001524003));
#454 = DIRECTION('',(0.,0.,1.));
#455 = DIRECTION('',(-2.974824742234E-14,1.,0.));
#456 = ORIENTED_EDGE('',*,*,#457,.T.);
#457 = EDGE_CURVE('',#449,#458,#460,.T.);
#458 = VERTEX_POINT('',#459);
#459 = CARTESIAN_POINT('',(-1.270002540005E-02,-23.70004826009,
    1.000001524003));
#460 = LINE('',#461,#462);
#461 = CARTESIAN_POINT('',(-1.270002540005E-02,-5.70001016002,
    1.000001524003));
#462 = VECTOR('',#463,1.);
#463 = DIRECTION('',(6.119705975737E-17,-1.,0.));
#464 = ORIENTED_EDGE('',*,*,#465,.T.);
#465 = EDGE_CURVE('',#458,#466,#468,.T.);
#466 = VERTEX_POINT('',#467);
#467 = CARTESIAN_POINT('',(-2.41910301887E-18,-23.71274828549,
    1.000001524003));
#468 = CIRCLE('',#469,1.270002540005E-02);
#469 = AXIS2_PLACEMENT_3D('',#470,#471,#472);
#470 = CARTESIAN_POINT('',(7.598088824778E-16,-23.70004826009,
    1.000001524003));
#471 = DIRECTION('',(0.,0.,1.));
#472 = DIRECTION('',(-1.,1.622631677583E-14,0.));
#473 = ORIENTED_EDGE('',*,*,#474,.T.);
#474 = EDGE_CURVE('',#466,#475,#477,.T.);
#475 = VERTEX_POINT('',#476);
#476 = CARTESIAN_POINT('',(0.987302514605,-23.71274828549,1.000001524003
    ));
#477 = LINE('',#478,#479);
#478 = CARTESIAN_POINT('',(-2.260297576149E-18,-23.71274828549,
    1.000001524003));
#479 = VECTOR('',#480,1.);
#480 = DIRECTION('',(1.,-3.598404365679E-15,0.));
#481 = ORIENTED_EDGE('',*,*,#482,.T.);
#482 = EDGE_CURVE('',#475,#483,#485,.T.);
#483 = VERTEX_POINT('',#484);
#484 = CARTESIAN_POINT('',(0.987302514605,-26.6873533147,1.000001524003)
  );
#485 = LINE('',#486,#487);
#486 = CARTESIAN_POINT('',(0.987302514605,-23.71274828549,1.000001524003
    ));
#487 = VECTOR('',#488,1.);
#488 = DIRECTION('',(3.732337617005E-17,-1.,0.));
#489 = ORIENTED_EDGE('',*,*,#490,.T.);
#490 = EDGE_CURVE('',#483,#491,#493,.T.);
#491 = VERTEX_POINT('',#492);
#492 = CARTESIAN_POINT('',(0.,-26.6873533147,1.000001524003));
#493 = LINE('',#494,#495);
#494 = CARTESIAN_POINT('',(0.987302514605,-26.6873533147,1.000001524003)
  );
#495 = VECTOR('',#496,1.);
#496 = DIRECTION('',(-1.,0.,0.));
#497 = ORIENTED_EDGE('',*,*,#498,.T.);
#498 = EDGE_CURVE('',#491,#499,#501,.T.);
#499 = VERTEX_POINT('',#500);
#500 = CARTESIAN_POINT('',(-1.270002540005E-02,-26.7000533401,
    1.000001524003));
#501 = CIRCLE('',#502,1.270002540005E-02);
#502 = AXIS2_PLACEMENT_3D('',#503,#504,#505);
#503 = CARTESIAN_POINT('',(-6.607888384392E-17,-26.7000533401,
    1.000001524003));
#504 = DIRECTION('',(0.,0.,1.));
#505 = DIRECTION('',(5.215601820801E-15,1.,-0.));
#506 = ORIENTED_EDGE('',*,*,#507,.T.);
#507 = EDGE_CURVE('',#499,#508,#510,.T.);
#508 = VERTEX_POINT('',#509);
#509 = CARTESIAN_POINT('',(-1.270002540005E-02,-29.38735839471,
    1.000001524003));
#510 = LINE('',#511,#512);
#511 = CARTESIAN_POINT('',(-1.270002540005E-02,-26.7000533401,
    1.000001524003));
#512 = VECTOR('',#513,1.);
#513 = DIRECTION('',(6.003385547505E-17,-1.,0.));
#514 = ORIENTED_EDGE('',*,*,#515,.T.);
#515 = EDGE_CURVE('',#508,#516,#518,.T.);
#516 = VERTEX_POINT('',#517);
#517 = CARTESIAN_POINT('',(-2.50000508001,-29.38735839471,1.000001524003
    ));
#518 = LINE('',#519,#520);
#519 = CARTESIAN_POINT('',(-1.270002540005E-02,-29.38735839471,
    1.000001524003));
#520 = VECTOR('',#521,1.);
#521 = DIRECTION('',(-1.,0.,0.));
#522 = ORIENTED_EDGE('',*,*,#523,.T.);
#523 = EDGE_CURVE('',#516,#524,#526,.T.);
#524 = VERTEX_POINT('',#525);
#525 = CARTESIAN_POINT('',(-5.01271018542,-31.90006350012,1.000001524003
    ));
#526 = CIRCLE('',#527,2.51270510541);
#527 = AXIS2_PLACEMENT_3D('',#528,#529,#530);
#528 = CARTESIAN_POINT('',(-2.50000508001,-31.90006350012,1.000001524003
    ));
#529 = DIRECTION('',(0.,0.,1.));
#530 = DIRECTION('',(-2.062042657732E-15,1.,0.));
#531 = ORIENTED_EDGE('',*,*,#532,.T.);
#532 = EDGE_CURVE('',#524,#533,#535,.T.);
#533 = VERTEX_POINT('',#534);
#534 = CARTESIAN_POINT('',(-5.01271018542,-34.70180595933,1.000001524003
    ));
#535 = LINE('',#536,#537);
#536 = CARTESIAN_POINT('',(-5.01271018542,-31.90006350012,1.000001524003
    ));
#537 = VECTOR('',#538,1.);
#538 = DIRECTION('',(3.170093014011E-15,-1.,0.));
#539 = ORIENTED_EDGE('',*,*,#540,.T.);
#540 = EDGE_CURVE('',#533,#541,#543,.T.);
#541 = VERTEX_POINT('',#542);
#542 = CARTESIAN_POINT('',(-6.252026239818,-35.65640495217,
    1.000001524003));
#543 = CIRCLE('',#544,0.987303108479);
#544 = AXIS2_PLACEMENT_3D('',#545,#546,#547);
#545 = CARTESIAN_POINT('',(-6.000013293898,-34.70180718185,
    1.000001524003));
#546 = DIRECTION('',(0.,0.,-1.));
#547 = DIRECTION('',(0.999999999999,1.238243006783E-06,0.));
#548 = ORIENTED_EDGE('',*,*,#549,.T.);
#549 = EDGE_CURVE('',#541,#550,#552,.T.);
#550 = VERTEX_POINT('',#551);
#551 = CARTESIAN_POINT('',(-27.7625799451,-29.97761907878,1.000001524003
    ));
#552 = LINE('',#553,#554);
#553 = CARTESIAN_POINT('',(-6.252026239818,-35.65640495217,
    1.000001524003));
#554 = VECTOR('',#555,1.);
#555 = DIRECTION('',(-0.966873852488,0.255254683356,0.));
#556 = ORIENTED_EDGE('',*,*,#557,.T.);
#557 = EDGE_CURVE('',#550,#558,#560,.T.);
#558 = VERTEX_POINT('',#559);
#559 = CARTESIAN_POINT('',(-29.98736093472,-27.08927101918,
    1.000001524003));
#560 = CIRCLE('',#561,2.987306200931);
#561 = AXIS2_PLACEMENT_3D('',#562,#563,#564);
#562 = CARTESIAN_POINT('',(-27.00005473379,-27.08927117033,
    1.000001524003));
#563 = DIRECTION('',(0.,0.,-1.));
#564 = DIRECTION('',(-0.25525512285,-0.966873736461,-0.));
#565 = ORIENTED_EDGE('',*,*,#566,.T.);
#566 = EDGE_CURVE('',#558,#82,#567,.T.);
#567 = LINE('',#568,#569);
#568 = CARTESIAN_POINT('',(-29.98736093472,-27.08927101918,
    1.000001524003));
#569 = VECTOR('',#570,1.);
#570 = DIRECTION('',(5.112647239724E-16,1.,0.));
#571 = ORIENTED_EDGE('',*,*,#89,.T.);
#572 = FACE_BOUND('',#573,.F.);
#573 = EDGE_LOOP('',(#574,#584,#592,#600));
#574 = ORIENTED_EDGE('',*,*,#575,.F.);
#575 = EDGE_CURVE('',#576,#578,#580,.T.);
#576 = VERTEX_POINT('',#577);
#577 = CARTESIAN_POINT('',(-8.00001524003,-28.40005588011,1.000001524003
    ));
#578 = VERTEX_POINT('',#579);
#579 = CARTESIAN_POINT('',(-5.00001016002,-28.40005588011,1.000001524003
    ));
#580 = LINE('',#581,#582);
#581 = CARTESIAN_POINT('',(-8.00001524003,-28.40005588011,1.000001524003
    ));
#582 = VECTOR('',#583,1.);
#583 = DIRECTION('',(1.,0.,0.));
#584 = ORIENTED_EDGE('',*,*,#585,.F.);
#585 = EDGE_CURVE('',#586,#576,#588,.T.);
#586 = VERTEX_POINT('',#587);
#587 = CARTESIAN_POINT('',(-8.00001524003,-29.40005842011,1.000001524003
    ));
#588 = LINE('',#589,#590);
#589 = CARTESIAN_POINT('',(-8.00001524003,-29.40005842011,1.000001524003
    ));
#590 = VECTOR('',#591,1.);
#591 = DIRECTION('',(0.,1.,0.));
#592 = ORIENTED_EDGE('',*,*,#593,.F.);
#593 = EDGE_CURVE('',#594,#586,#596,.T.);
#594 = VERTEX_POINT('',#595);
#595 = CARTESIAN_POINT('',(-5.00001016002,-29.40005842011,1.000001524003
    ));
#596 = LINE('',#597,#598);
#597 = CARTESIAN_POINT('',(-5.00001016002,-29.40005842011,1.000001524003
    ));
#598 = VECTOR('',#599,1.);
#599 = DIRECTION('',(-1.,0.,0.));
#600 = ORIENTED_EDGE('',*,*,#601,.F.);
#601 = EDGE_CURVE('',#578,#594,#602,.T.);
#602 = LINE('',#603,#604);
#603 = CARTESIAN_POINT('',(-5.00001016002,-28.40005588011,1.000001524003
    ));
#604 = VECTOR('',#605,1.);
#605 = DIRECTION('',(0.,-1.,0.));
#606 = FACE_BOUND('',#607,.F.);
#607 = EDGE_LOOP('',(#608,#618,#626,#634));
#608 = ORIENTED_EDGE('',*,*,#609,.F.);
#609 = EDGE_CURVE('',#610,#612,#614,.T.);
#610 = VERTEX_POINT('',#611);
#611 = CARTESIAN_POINT('',(-20.00004064008,-28.40005588011,
    1.000001524003));
#612 = VERTEX_POINT('',#613);
#613 = CARTESIAN_POINT('',(-17.00003556007,-28.40005588011,
    1.000001524003));
#614 = LINE('',#615,#616);
#615 = CARTESIAN_POINT('',(-20.00004064008,-28.40005588011,
    1.000001524003));
#616 = VECTOR('',#617,1.);
#617 = DIRECTION('',(1.,0.,0.));
#618 = ORIENTED_EDGE('',*,*,#619,.F.);
#619 = EDGE_CURVE('',#620,#610,#622,.T.);
#620 = VERTEX_POINT('',#621);
#621 = CARTESIAN_POINT('',(-20.00004064008,-29.40005842011,
    1.000001524003));
#622 = LINE('',#623,#624);
#623 = CARTESIAN_POINT('',(-20.00004064008,-29.40005842011,
    1.000001524003));
#624 = VECTOR('',#625,1.);
#625 = DIRECTION('',(0.,1.,0.));
#626 = ORIENTED_EDGE('',*,*,#627,.F.);
#627 = EDGE_CURVE('',#628,#620,#630,.T.);
#628 = VERTEX_POINT('',#629);
#629 = CARTESIAN_POINT('',(-17.00003556007,-29.40005842011,
    1.000001524003));
#630 = LINE('',#631,#632);
#631 = CARTESIAN_POINT('',(-17.00003556007,-29.40005842011,
    1.000001524003));
#632 = VECTOR('',#633,1.);
#633 = DIRECTION('',(-1.,0.,0.));
#634 = ORIENTED_EDGE('',*,*,#635,.F.);
#635 = EDGE_CURVE('',#612,#628,#636,.T.);
#636 = LINE('',#637,#638);
#637 = CARTESIAN_POINT('',(-17.00003556007,-28.40005588011,
    1.000001524003));
#638 = VECTOR('',#639,1.);
#639 = DIRECTION('',(0.,-1.,0.));
#640 = PLANE('',#641);
#641 = AXIS2_PLACEMENT_3D('',#642,#643,#644);
#642 = CARTESIAN_POINT('',(-13.57924351793,-16.5055850558,1.000001524003
    ));
#643 = DIRECTION('',(-0.,-0.,-1.));
#644 = DIRECTION('',(-1.,0.,0.));
#645 = ADVANCED_FACE('',(#646),#657,.T.);
#646 = FACE_BOUND('',#647,.T.);
#647 = EDGE_LOOP('',(#648,#654,#655,#656));
#648 = ORIENTED_EDGE('',*,*,#649,.T.);
#649 = EDGE_CURVE('',#306,#558,#650,.T.);
#650 = LINE('',#651,#652);
#651 = CARTESIAN_POINT('',(-29.98736093472,-27.08927101918,0.));
#652 = VECTOR('',#653,1.);
#653 = DIRECTION('',(0.,0.,1.));
#654 = ORIENTED_EDGE('',*,*,#566,.T.);
#655 = ORIENTED_EDGE('',*,*,#79,.F.);
#656 = ORIENTED_EDGE('',*,*,#314,.F.);
#657 = PLANE('',#658);
#658 = AXIS2_PLACEMENT_3D('',#659,#660,#661);
#659 = CARTESIAN_POINT('',(-29.98736093472,-27.08927101918,0.));
#660 = DIRECTION('',(-1.,5.112647239724E-16,0.));
#661 = DIRECTION('',(5.112647239724E-16,1.,0.));
#662 = ADVANCED_FACE('',(#663),#674,.T.);
#663 = FACE_BOUND('',#664,.T.);
#664 = EDGE_LOOP('',(#665,#666,#667,#673));
#665 = ORIENTED_EDGE('',*,*,#122,.T.);
#666 = ORIENTED_EDGE('',*,*,#399,.T.);
#667 = ORIENTED_EDGE('',*,*,#668,.F.);
#668 = EDGE_CURVE('',#148,#400,#669,.T.);
#669 = LINE('',#670,#671);
#670 = CARTESIAN_POINT('',(-1.270002540005E-02,-1.270002540005E-02,0.));
#671 = VECTOR('',#672,1.);
#672 = DIRECTION('',(0.,0.,1.));
#673 = ORIENTED_EDGE('',*,*,#147,.F.);
#674 = PLANE('',#675);
#675 = AXIS2_PLACEMENT_3D('',#676,#677,#678);
#676 = CARTESIAN_POINT('',(-23.75740919053,-1.270002540005E-02,0.));
#677 = DIRECTION('',(6.195255951117E-17,1.,-0.));
#678 = DIRECTION('',(1.,-6.195255951117E-17,0.));
#679 = ADVANCED_FACE('',(#680),#691,.T.);
#680 = FACE_BOUND('',#681,.T.);
#681 = EDGE_LOOP('',(#682,#688,#689,#690));
#682 = ORIENTED_EDGE('',*,*,#683,.T.);
#683 = EDGE_CURVE('',#298,#550,#684,.T.);
#684 = LINE('',#685,#686);
#685 = CARTESIAN_POINT('',(-27.7625799451,-29.97761907878,0.));
#686 = VECTOR('',#687,1.);
#687 = DIRECTION('',(0.,0.,1.));
#688 = ORIENTED_EDGE('',*,*,#557,.T.);
#689 = ORIENTED_EDGE('',*,*,#649,.F.);
#690 = ORIENTED_EDGE('',*,*,#305,.F.);
#691 = CYLINDRICAL_SURFACE('',#692,2.987306200931);
#692 = AXIS2_PLACEMENT_3D('',#693,#694,#695);
#693 = CARTESIAN_POINT('',(-27.00005473379,-27.08927117033,0.));
#694 = DIRECTION('',(0.,0.,-1.));
#695 = DIRECTION('',(-0.25525512285,-0.966873736461,-0.));
#696 = ADVANCED_FACE('',(#697),#708,.T.);
#697 = FACE_BOUND('',#698,.T.);
#698 = EDGE_LOOP('',(#699,#700,#701,#707));
#699 = ORIENTED_EDGE('',*,*,#668,.T.);
#700 = ORIENTED_EDGE('',*,*,#407,.T.);
#701 = ORIENTED_EDGE('',*,*,#702,.F.);
#702 = EDGE_CURVE('',#156,#408,#703,.T.);
#703 = LINE('',#704,#705);
#704 = CARTESIAN_POINT('',(-1.270002540005E-02,-2.70000508001,0.));
#705 = VECTOR('',#706,1.);
#706 = DIRECTION('',(0.,0.,1.));
#707 = ORIENTED_EDGE('',*,*,#155,.F.);
#708 = PLANE('',#709);
#709 = AXIS2_PLACEMENT_3D('',#710,#711,#712);
#710 = CARTESIAN_POINT('',(-1.270002540005E-02,-1.270002540005E-02,0.));
#711 = DIRECTION('',(1.,6.132490613043E-17,-0.));
#712 = DIRECTION('',(6.132490613043E-17,-1.,0.));
#713 = ADVANCED_FACE('',(#714),#725,.T.);
#714 = FACE_BOUND('',#715,.T.);
#715 = EDGE_LOOP('',(#716,#722,#723,#724));
#716 = ORIENTED_EDGE('',*,*,#717,.T.);
#717 = EDGE_CURVE('',#289,#541,#718,.T.);
#718 = LINE('',#719,#720);
#719 = CARTESIAN_POINT('',(-6.252026239818,-35.65640495217,0.));
#720 = VECTOR('',#721,1.);
#721 = DIRECTION('',(0.,0.,1.));
#722 = ORIENTED_EDGE('',*,*,#549,.T.);
#723 = ORIENTED_EDGE('',*,*,#683,.F.);
#724 = ORIENTED_EDGE('',*,*,#297,.F.);
#725 = PLANE('',#726);
#726 = AXIS2_PLACEMENT_3D('',#727,#728,#729);
#727 = CARTESIAN_POINT('',(-6.252026239818,-35.65640495217,0.));
#728 = DIRECTION('',(-0.255254683356,-0.966873852488,0.));
#729 = DIRECTION('',(-0.966873852488,0.255254683356,0.));
#730 = ADVANCED_FACE('',(#731),#742,.F.);
#731 = FACE_BOUND('',#732,.T.);
#732 = EDGE_LOOP('',(#733,#734,#735,#741));
#733 = ORIENTED_EDGE('',*,*,#702,.T.);
#734 = ORIENTED_EDGE('',*,*,#415,.T.);
#735 = ORIENTED_EDGE('',*,*,#736,.F.);
#736 = EDGE_CURVE('',#164,#416,#737,.T.);
#737 = LINE('',#738,#739);
#738 = CARTESIAN_POINT('',(-1.978856345356E-17,-2.71270510541,0.));
#739 = VECTOR('',#740,1.);
#740 = DIRECTION('',(0.,0.,1.));
#741 = ORIENTED_EDGE('',*,*,#163,.F.);
#742 = CYLINDRICAL_SURFACE('',#743,1.270002540005E-02);
#743 = AXIS2_PLACEMENT_3D('',#744,#745,#746);
#744 = CARTESIAN_POINT('',(8.890457814381E-17,-2.70000508001,0.));
#745 = DIRECTION('',(-0.,-0.,-1.));
#746 = DIRECTION('',(-1.,-5.022431382993E-15,0.));
#747 = ADVANCED_FACE('',(#748),#759,.T.);
#748 = FACE_BOUND('',#749,.T.);
#749 = EDGE_LOOP('',(#750,#756,#757,#758));
#750 = ORIENTED_EDGE('',*,*,#751,.T.);
#751 = EDGE_CURVE('',#281,#533,#752,.T.);
#752 = LINE('',#753,#754);
#753 = CARTESIAN_POINT('',(-5.01271018542,-34.70180595933,0.));
#754 = VECTOR('',#755,1.);
#755 = DIRECTION('',(0.,0.,1.));
#756 = ORIENTED_EDGE('',*,*,#540,.T.);
#757 = ORIENTED_EDGE('',*,*,#717,.F.);
#758 = ORIENTED_EDGE('',*,*,#288,.F.);
#759 = CYLINDRICAL_SURFACE('',#760,0.987303108479);
#760 = AXIS2_PLACEMENT_3D('',#761,#762,#763);
#761 = CARTESIAN_POINT('',(-6.000013293898,-34.70180718185,0.));
#762 = DIRECTION('',(0.,0.,-1.));
#763 = DIRECTION('',(0.999999999999,1.238243006783E-06,0.));
#764 = ADVANCED_FACE('',(#765),#776,.T.);
#765 = FACE_BOUND('',#766,.T.);
#766 = EDGE_LOOP('',(#767,#768,#769,#775));
#767 = ORIENTED_EDGE('',*,*,#736,.T.);
#768 = ORIENTED_EDGE('',*,*,#424,.T.);
#769 = ORIENTED_EDGE('',*,*,#770,.F.);
#770 = EDGE_CURVE('',#173,#425,#771,.T.);
#771 = LINE('',#772,#773);
#772 = CARTESIAN_POINT('',(0.987302514605,-2.71270510541,0.));
#773 = VECTOR('',#774,1.);
#774 = DIRECTION('',(0.,0.,1.));
#775 = ORIENTED_EDGE('',*,*,#172,.F.);
#776 = PLANE('',#777);
#777 = AXIS2_PLACEMENT_3D('',#778,#779,#780);
#778 = CARTESIAN_POINT('',(-1.947076727966E-17,-2.71270510541,0.));
#779 = DIRECTION('',(0.,1.,0.));
#780 = DIRECTION('',(1.,0.,0.));
#781 = ADVANCED_FACE('',(#782),#793,.T.);
#782 = FACE_BOUND('',#783,.T.);
#783 = EDGE_LOOP('',(#784,#790,#791,#792));
#784 = ORIENTED_EDGE('',*,*,#785,.T.);
#785 = EDGE_CURVE('',#272,#524,#786,.T.);
#786 = LINE('',#787,#788);
#787 = CARTESIAN_POINT('',(-5.01271018542,-31.90006350012,0.));
#788 = VECTOR('',#789,1.);
#789 = DIRECTION('',(0.,0.,1.));
#790 = ORIENTED_EDGE('',*,*,#532,.T.);
#791 = ORIENTED_EDGE('',*,*,#751,.F.);
#792 = ORIENTED_EDGE('',*,*,#280,.F.);
#793 = PLANE('',#794);
#794 = AXIS2_PLACEMENT_3D('',#795,#796,#797);
#795 = CARTESIAN_POINT('',(-5.01271018542,-31.90006350012,0.));
#796 = DIRECTION('',(1.,3.170093014011E-15,-0.));
#797 = DIRECTION('',(3.170093014011E-15,-1.,0.));
#798 = ADVANCED_FACE('',(#799),#810,.T.);
#799 = FACE_BOUND('',#800,.T.);
#800 = EDGE_LOOP('',(#801,#802,#803,#809));
#801 = ORIENTED_EDGE('',*,*,#770,.T.);
#802 = ORIENTED_EDGE('',*,*,#432,.T.);
#803 = ORIENTED_EDGE('',*,*,#804,.F.);
#804 = EDGE_CURVE('',#181,#433,#805,.T.);
#805 = LINE('',#806,#807);
#806 = CARTESIAN_POINT('',(0.987302514605,-5.68731013462,0.));
#807 = VECTOR('',#808,1.);
#808 = DIRECTION('',(0.,0.,1.));
#809 = ORIENTED_EDGE('',*,*,#180,.F.);
#810 = PLANE('',#811);
#811 = AXIS2_PLACEMENT_3D('',#812,#813,#814);
#812 = CARTESIAN_POINT('',(0.987302514605,-2.71270510541,0.));
#813 = DIRECTION('',(1.,3.732337617005E-17,-0.));
#814 = DIRECTION('',(3.732337617005E-17,-1.,0.));
#815 = ADVANCED_FACE('',(#816),#827,.F.);
#816 = FACE_BOUND('',#817,.T.);
#817 = EDGE_LOOP('',(#818,#824,#825,#826));
#818 = ORIENTED_EDGE('',*,*,#819,.T.);
#819 = EDGE_CURVE('',#264,#516,#820,.T.);
#820 = LINE('',#821,#822);
#821 = CARTESIAN_POINT('',(-2.50000508001,-29.38735839471,0.));
#822 = VECTOR('',#823,1.);
#823 = DIRECTION('',(0.,0.,1.));
#824 = ORIENTED_EDGE('',*,*,#523,.T.);
#825 = ORIENTED_EDGE('',*,*,#785,.F.);
#826 = ORIENTED_EDGE('',*,*,#271,.F.);
#827 = CYLINDRICAL_SURFACE('',#828,2.51270510541);
#828 = AXIS2_PLACEMENT_3D('',#829,#830,#831);
#829 = CARTESIAN_POINT('',(-2.50000508001,-31.90006350012,0.));
#830 = DIRECTION('',(-0.,-0.,-1.));
#831 = DIRECTION('',(-2.062042657732E-15,1.,0.));
#832 = ADVANCED_FACE('',(#833),#844,.T.);
#833 = FACE_BOUND('',#834,.T.);
#834 = EDGE_LOOP('',(#835,#836,#837,#843));
#835 = ORIENTED_EDGE('',*,*,#804,.T.);
#836 = ORIENTED_EDGE('',*,*,#440,.T.);
#837 = ORIENTED_EDGE('',*,*,#838,.F.);
#838 = EDGE_CURVE('',#189,#441,#839,.T.);
#839 = LINE('',#840,#841);
#840 = CARTESIAN_POINT('',(-5.589703250522E-19,-5.68731013462,0.));
#841 = VECTOR('',#842,1.);
#842 = DIRECTION('',(0.,0.,1.));
#843 = ORIENTED_EDGE('',*,*,#188,.F.);
#844 = PLANE('',#845);
#845 = AXIS2_PLACEMENT_3D('',#846,#847,#848);
#846 = CARTESIAN_POINT('',(0.987302514605,-5.68731013462,0.));
#847 = DIRECTION('',(0.,-1.,0.));
#848 = DIRECTION('',(-1.,0.,0.));
#849 = ADVANCED_FACE('',(#850),#861,.T.);
#850 = FACE_BOUND('',#851,.T.);
#851 = EDGE_LOOP('',(#852,#858,#859,#860));
#852 = ORIENTED_EDGE('',*,*,#853,.T.);
#853 = EDGE_CURVE('',#256,#508,#854,.T.);
#854 = LINE('',#855,#856);
#855 = CARTESIAN_POINT('',(-1.270002540005E-02,-29.38735839471,0.));
#856 = VECTOR('',#857,1.);
#857 = DIRECTION('',(0.,0.,1.));
#858 = ORIENTED_EDGE('',*,*,#515,.T.);
#859 = ORIENTED_EDGE('',*,*,#819,.F.);
#860 = ORIENTED_EDGE('',*,*,#263,.F.);
#861 = PLANE('',#862);
#862 = AXIS2_PLACEMENT_3D('',#863,#864,#865);
#863 = CARTESIAN_POINT('',(-1.270002540005E-02,-29.38735839471,0.));
#864 = DIRECTION('',(0.,-1.,0.));
#865 = DIRECTION('',(-1.,0.,0.));
#866 = ADVANCED_FACE('',(#867),#878,.F.);
#867 = FACE_BOUND('',#868,.T.);
#868 = EDGE_LOOP('',(#869,#870,#871,#877));
#869 = ORIENTED_EDGE('',*,*,#838,.T.);
#870 = ORIENTED_EDGE('',*,*,#448,.T.);
#871 = ORIENTED_EDGE('',*,*,#872,.F.);
#872 = EDGE_CURVE('',#197,#449,#873,.T.);
#873 = LINE('',#874,#875);
#874 = CARTESIAN_POINT('',(-1.270002540005E-02,-5.70001016002,0.));
#875 = VECTOR('',#876,1.);
#876 = DIRECTION('',(0.,0.,1.));
#877 = ORIENTED_EDGE('',*,*,#196,.F.);
#878 = CYLINDRICAL_SURFACE('',#879,1.270002540005E-02);
#879 = AXIS2_PLACEMENT_3D('',#880,#881,#882);
#880 = CARTESIAN_POINT('',(3.766855652099E-16,-5.70001016002,0.));
#881 = DIRECTION('',(-0.,-0.,-1.));
#882 = DIRECTION('',(-2.974824742234E-14,1.,0.));
#883 = ADVANCED_FACE('',(#884),#895,.T.);
#884 = FACE_BOUND('',#885,.T.);
#885 = EDGE_LOOP('',(#886,#892,#893,#894));
#886 = ORIENTED_EDGE('',*,*,#887,.T.);
#887 = EDGE_CURVE('',#247,#499,#888,.T.);
#888 = LINE('',#889,#890);
#889 = CARTESIAN_POINT('',(-1.270002540005E-02,-26.7000533401,0.));
#890 = VECTOR('',#891,1.);
#891 = DIRECTION('',(0.,0.,1.));
#892 = ORIENTED_EDGE('',*,*,#507,.T.);
#893 = ORIENTED_EDGE('',*,*,#853,.F.);
#894 = ORIENTED_EDGE('',*,*,#255,.F.);
#895 = PLANE('',#896);
#896 = AXIS2_PLACEMENT_3D('',#897,#898,#899);
#897 = CARTESIAN_POINT('',(-1.270002540005E-02,-26.7000533401,0.));
#898 = DIRECTION('',(1.,6.003385547505E-17,-0.));
#899 = DIRECTION('',(6.003385547505E-17,-1.,0.));
#900 = ADVANCED_FACE('',(#901),#912,.T.);
#901 = FACE_BOUND('',#902,.T.);
#902 = EDGE_LOOP('',(#903,#904,#905,#911));
#903 = ORIENTED_EDGE('',*,*,#872,.T.);
#904 = ORIENTED_EDGE('',*,*,#457,.T.);
#905 = ORIENTED_EDGE('',*,*,#906,.F.);
#906 = EDGE_CURVE('',#206,#458,#907,.T.);
#907 = LINE('',#908,#909);
#908 = CARTESIAN_POINT('',(-1.270002540005E-02,-23.70004826009,0.));
#909 = VECTOR('',#910,1.);
#910 = DIRECTION('',(0.,0.,1.));
#911 = ORIENTED_EDGE('',*,*,#205,.F.);
#912 = PLANE('',#913);
#913 = AXIS2_PLACEMENT_3D('',#914,#915,#916);
#914 = CARTESIAN_POINT('',(-1.270002540005E-02,-5.70001016002,0.));
#915 = DIRECTION('',(1.,6.119705975737E-17,-0.));
#916 = DIRECTION('',(6.119705975737E-17,-1.,0.));
#917 = ADVANCED_FACE('',(#918),#929,.F.);
#918 = FACE_BOUND('',#919,.T.);
#919 = EDGE_LOOP('',(#920,#926,#927,#928));
#920 = ORIENTED_EDGE('',*,*,#921,.T.);
#921 = EDGE_CURVE('',#239,#491,#922,.T.);
#922 = LINE('',#923,#924);
#923 = CARTESIAN_POINT('',(0.,-26.6873533147,0.));
#924 = VECTOR('',#925,1.);
#925 = DIRECTION('',(0.,0.,1.));
#926 = ORIENTED_EDGE('',*,*,#498,.T.);
#927 = ORIENTED_EDGE('',*,*,#887,.F.);
#928 = ORIENTED_EDGE('',*,*,#246,.F.);
#929 = CYLINDRICAL_SURFACE('',#930,1.270002540005E-02);
#930 = AXIS2_PLACEMENT_3D('',#931,#932,#933);
#931 = CARTESIAN_POINT('',(-6.607888384392E-17,-26.7000533401,0.));
#932 = DIRECTION('',(-0.,-0.,-1.));
#933 = DIRECTION('',(5.215601820801E-15,1.,-0.));
#934 = ADVANCED_FACE('',(#935),#946,.F.);
#935 = FACE_BOUND('',#936,.T.);
#936 = EDGE_LOOP('',(#937,#938,#939,#945));
#937 = ORIENTED_EDGE('',*,*,#906,.T.);
#938 = ORIENTED_EDGE('',*,*,#465,.T.);
#939 = ORIENTED_EDGE('',*,*,#940,.F.);
#940 = EDGE_CURVE('',#214,#466,#941,.T.);
#941 = LINE('',#942,#943);
#942 = CARTESIAN_POINT('',(-2.41910301887E-18,-23.71274828549,0.));
#943 = VECTOR('',#944,1.);
#944 = DIRECTION('',(0.,0.,1.));
#945 = ORIENTED_EDGE('',*,*,#213,.F.);
#946 = CYLINDRICAL_SURFACE('',#947,1.270002540005E-02);
#947 = AXIS2_PLACEMENT_3D('',#948,#949,#950);
#948 = CARTESIAN_POINT('',(7.598088824778E-16,-23.70004826009,0.));
#949 = DIRECTION('',(-0.,-0.,-1.));
#950 = DIRECTION('',(-1.,1.622631677583E-14,0.));
#951 = ADVANCED_FACE('',(#952),#963,.T.);
#952 = FACE_BOUND('',#953,.T.);
#953 = EDGE_LOOP('',(#954,#960,#961,#962));
#954 = ORIENTED_EDGE('',*,*,#955,.T.);
#955 = EDGE_CURVE('',#231,#483,#956,.T.);
#956 = LINE('',#957,#958);
#957 = CARTESIAN_POINT('',(0.987302514605,-26.6873533147,0.));
#958 = VECTOR('',#959,1.);
#959 = DIRECTION('',(0.,0.,1.));
#960 = ORIENTED_EDGE('',*,*,#490,.T.);
#961 = ORIENTED_EDGE('',*,*,#921,.F.);
#962 = ORIENTED_EDGE('',*,*,#238,.F.);
#963 = PLANE('',#964);
#964 = AXIS2_PLACEMENT_3D('',#965,#966,#967);
#965 = CARTESIAN_POINT('',(0.987302514605,-26.6873533147,0.));
#966 = DIRECTION('',(0.,-1.,0.));
#967 = DIRECTION('',(-1.,0.,0.));
#968 = ADVANCED_FACE('',(#969),#980,.T.);
#969 = FACE_BOUND('',#970,.T.);
#970 = EDGE_LOOP('',(#971,#972,#973,#979));
#971 = ORIENTED_EDGE('',*,*,#940,.T.);
#972 = ORIENTED_EDGE('',*,*,#474,.T.);
#973 = ORIENTED_EDGE('',*,*,#974,.F.);
#974 = EDGE_CURVE('',#223,#475,#975,.T.);
#975 = LINE('',#976,#977);
#976 = CARTESIAN_POINT('',(0.987302514605,-23.71274828549,0.));
#977 = VECTOR('',#978,1.);
#978 = DIRECTION('',(0.,0.,1.));
#979 = ORIENTED_EDGE('',*,*,#222,.F.);
#980 = PLANE('',#981);
#981 = AXIS2_PLACEMENT_3D('',#982,#983,#984);
#982 = CARTESIAN_POINT('',(-2.260297576149E-18,-23.71274828549,0.));
#983 = DIRECTION('',(3.598404365679E-15,1.,-0.));
#984 = DIRECTION('',(1.,-3.598404365679E-15,0.));
#985 = ADVANCED_FACE('',(#986),#992,.T.);
#986 = FACE_BOUND('',#987,.T.);
#987 = EDGE_LOOP('',(#988,#989,#990,#991));
#988 = ORIENTED_EDGE('',*,*,#974,.T.);
#989 = ORIENTED_EDGE('',*,*,#482,.T.);
#990 = ORIENTED_EDGE('',*,*,#955,.F.);
#991 = ORIENTED_EDGE('',*,*,#230,.F.);
#992 = PLANE('',#993);
#993 = AXIS2_PLACEMENT_3D('',#994,#995,#996);
#994 = CARTESIAN_POINT('',(0.987302514605,-23.71274828549,0.));
#995 = DIRECTION('',(1.,3.732337617005E-17,-0.));
#996 = DIRECTION('',(3.732337617005E-17,-1.,0.));
#997 = ADVANCED_FACE('',(#998),#1014,.F.);
#998 = FACE_BOUND('',#999,.F.);
#999 = EDGE_LOOP('',(#1000,#1006,#1007,#1013));
#1000 = ORIENTED_EDGE('',*,*,#1001,.T.);
#1001 = EDGE_CURVE('',#324,#576,#1002,.T.);
#1002 = LINE('',#1003,#1004);
#1003 = CARTESIAN_POINT('',(-8.00001524003,-28.40005588011,0.));
#1004 = VECTOR('',#1005,1.);
#1005 = DIRECTION('',(0.,0.,1.));
#1006 = ORIENTED_EDGE('',*,*,#575,.T.);
#1007 = ORIENTED_EDGE('',*,*,#1008,.F.);
#1008 = EDGE_CURVE('',#326,#578,#1009,.T.);
#1009 = LINE('',#1010,#1011);
#1010 = CARTESIAN_POINT('',(-5.00001016002,-28.40005588011,0.));
#1011 = VECTOR('',#1012,1.);
#1012 = DIRECTION('',(0.,0.,1.));
#1013 = ORIENTED_EDGE('',*,*,#323,.F.);
#1014 = PLANE('',#1015);
#1015 = AXIS2_PLACEMENT_3D('',#1016,#1017,#1018);
#1016 = CARTESIAN_POINT('',(-8.00001524003,-28.40005588011,0.));
#1017 = DIRECTION('',(0.,1.,0.));
#1018 = DIRECTION('',(1.,0.,0.));
#1019 = ADVANCED_FACE('',(#1020),#1031,.F.);
#1020 = FACE_BOUND('',#1021,.F.);
#1021 = EDGE_LOOP('',(#1022,#1023,#1024,#1030));
#1022 = ORIENTED_EDGE('',*,*,#1008,.T.);
#1023 = ORIENTED_EDGE('',*,*,#601,.T.);
#1024 = ORIENTED_EDGE('',*,*,#1025,.F.);
#1025 = EDGE_CURVE('',#342,#594,#1026,.T.);
#1026 = LINE('',#1027,#1028);
#1027 = CARTESIAN_POINT('',(-5.00001016002,-29.40005842011,0.));
#1028 = VECTOR('',#1029,1.);
#1029 = DIRECTION('',(0.,0.,1.));
#1030 = ORIENTED_EDGE('',*,*,#349,.F.);
#1031 = PLANE('',#1032);
#1032 = AXIS2_PLACEMENT_3D('',#1033,#1034,#1035);
#1033 = CARTESIAN_POINT('',(-5.00001016002,-28.40005588011,0.));
#1034 = DIRECTION('',(1.,0.,-0.));
#1035 = DIRECTION('',(0.,-1.,0.));
#1036 = ADVANCED_FACE('',(#1037),#1048,.F.);
#1037 = FACE_BOUND('',#1038,.F.);
#1038 = EDGE_LOOP('',(#1039,#1040,#1041,#1047));
#1039 = ORIENTED_EDGE('',*,*,#1025,.T.);
#1040 = ORIENTED_EDGE('',*,*,#593,.T.);
#1041 = ORIENTED_EDGE('',*,*,#1042,.F.);
#1042 = EDGE_CURVE('',#334,#586,#1043,.T.);
#1043 = LINE('',#1044,#1045);
#1044 = CARTESIAN_POINT('',(-8.00001524003,-29.40005842011,0.));
#1045 = VECTOR('',#1046,1.);
#1046 = DIRECTION('',(0.,0.,1.));
#1047 = ORIENTED_EDGE('',*,*,#341,.F.);
#1048 = PLANE('',#1049);
#1049 = AXIS2_PLACEMENT_3D('',#1050,#1051,#1052);
#1050 = CARTESIAN_POINT('',(-5.00001016002,-29.40005842011,0.));
#1051 = DIRECTION('',(0.,-1.,0.));
#1052 = DIRECTION('',(-1.,0.,0.));
#1053 = ADVANCED_FACE('',(#1054),#1060,.F.);
#1054 = FACE_BOUND('',#1055,.F.);
#1055 = EDGE_LOOP('',(#1056,#1057,#1058,#1059));
#1056 = ORIENTED_EDGE('',*,*,#1042,.T.);
#1057 = ORIENTED_EDGE('',*,*,#585,.T.);
#1058 = ORIENTED_EDGE('',*,*,#1001,.F.);
#1059 = ORIENTED_EDGE('',*,*,#333,.F.);
#1060 = PLANE('',#1061);
#1061 = AXIS2_PLACEMENT_3D('',#1062,#1063,#1064);
#1062 = CARTESIAN_POINT('',(-8.00001524003,-29.40005842011,0.));
#1063 = DIRECTION('',(-1.,0.,0.));
#1064 = DIRECTION('',(0.,1.,0.));
#1065 = ADVANCED_FACE('',(#1066),#1082,.F.);
#1066 = FACE_BOUND('',#1067,.F.);
#1067 = EDGE_LOOP('',(#1068,#1074,#1075,#1081));
#1068 = ORIENTED_EDGE('',*,*,#1069,.T.);
#1069 = EDGE_CURVE('',#358,#610,#1070,.T.);
#1070 = LINE('',#1071,#1072);
#1071 = CARTESIAN_POINT('',(-20.00004064008,-28.40005588011,0.));
#1072 = VECTOR('',#1073,1.);
#1073 = DIRECTION('',(0.,0.,1.));
#1074 = ORIENTED_EDGE('',*,*,#609,.T.);
#1075 = ORIENTED_EDGE('',*,*,#1076,.F.);
#1076 = EDGE_CURVE('',#360,#612,#1077,.T.);
#1077 = LINE('',#1078,#1079);
#1078 = CARTESIAN_POINT('',(-17.00003556007,-28.40005588011,0.));
#1079 = VECTOR('',#1080,1.);
#1080 = DIRECTION('',(0.,0.,1.));
#1081 = ORIENTED_EDGE('',*,*,#357,.F.);
#1082 = PLANE('',#1083);
#1083 = AXIS2_PLACEMENT_3D('',#1084,#1085,#1086);
#1084 = CARTESIAN_POINT('',(-20.00004064008,-28.40005588011,0.));
#1085 = DIRECTION('',(0.,1.,0.));
#1086 = DIRECTION('',(1.,0.,0.));
#1087 = ADVANCED_FACE('',(#1088),#1099,.F.);
#1088 = FACE_BOUND('',#1089,.F.);
#1089 = EDGE_LOOP('',(#1090,#1091,#1092,#1098));
#1090 = ORIENTED_EDGE('',*,*,#1076,.T.);
#1091 = ORIENTED_EDGE('',*,*,#635,.T.);
#1092 = ORIENTED_EDGE('',*,*,#1093,.F.);
#1093 = EDGE_CURVE('',#376,#628,#1094,.T.);
#1094 = LINE('',#1095,#1096);
#1095 = CARTESIAN_POINT('',(-17.00003556007,-29.40005842011,0.));
#1096 = VECTOR('',#1097,1.);
#1097 = DIRECTION('',(0.,0.,1.));
#1098 = ORIENTED_EDGE('',*,*,#383,.F.);
#1099 = PLANE('',#1100);
#1100 = AXIS2_PLACEMENT_3D('',#1101,#1102,#1103);
#1101 = CARTESIAN_POINT('',(-17.00003556007,-28.40005588011,0.));
#1102 = DIRECTION('',(1.,0.,-0.));
#1103 = DIRECTION('',(0.,-1.,0.));
#1104 = ADVANCED_FACE('',(#1105),#1116,.F.);
#1105 = FACE_BOUND('',#1106,.F.);
#1106 = EDGE_LOOP('',(#1107,#1108,#1109,#1115));
#1107 = ORIENTED_EDGE('',*,*,#1093,.T.);
#1108 = ORIENTED_EDGE('',*,*,#627,.T.);
#1109 = ORIENTED_EDGE('',*,*,#1110,.F.);
#1110 = EDGE_CURVE('',#368,#620,#1111,.T.);
#1111 = LINE('',#1112,#1113);
#1112 = CARTESIAN_POINT('',(-20.00004064008,-29.40005842011,0.));
#1113 = VECTOR('',#1114,1.);
#1114 = DIRECTION('',(0.,0.,1.));
#1115 = ORIENTED_EDGE('',*,*,#375,.F.);
#1116 = PLANE('',#1117);
#1117 = AXIS2_PLACEMENT_3D('',#1118,#1119,#1120);
#1118 = CARTESIAN_POINT('',(-17.00003556007,-29.40005842011,0.));
#1119 = DIRECTION('',(0.,-1.,0.));
#1120 = DIRECTION('',(-1.,0.,0.));
#1121 = ADVANCED_FACE('',(#1122),#1128,.F.);
#1122 = FACE_BOUND('',#1123,.F.);
#1123 = EDGE_LOOP('',(#1124,#1125,#1126,#1127));
#1124 = ORIENTED_EDGE('',*,*,#1110,.T.);
#1125 = ORIENTED_EDGE('',*,*,#619,.T.);
#1126 = ORIENTED_EDGE('',*,*,#1069,.F.);
#1127 = ORIENTED_EDGE('',*,*,#367,.F.);
#1128 = PLANE('',#1129);
#1129 = AXIS2_PLACEMENT_3D('',#1130,#1131,#1132);
#1130 = CARTESIAN_POINT('',(-20.00004064008,-29.40005842011,0.));
#1131 = DIRECTION('',(-1.,0.,0.));
#1132 = DIRECTION('',(0.,1.,0.));
#1133 = ( GEOMETRIC_REPRESENTATION_CONTEXT(3) 
GLOBAL_UNCERTAINTY_ASSIGNED_CONTEXT((#1137)) 
GLOBAL_UNIT_ASSIGNED_CONTEXT((#1134,#1135,#1136)) REPRESENTATION_CONTEXT
('Context #1','3D Context with UNIT and UNCERTAINTY') );
#1134 = ( LENGTH_UNIT() NAMED_UNIT(*) SI_UNIT(.MILLI.,.METRE.) );
#1135 = ( NAMED_UNIT(*) PLANE_ANGLE_UNIT() SI_UNIT($,.RADIAN.) );
#1136 = ( NAMED_UNIT(*) SI_UNIT($,.STERADIAN.) SOLID_ANGLE_UNIT() );
#1137 = UNCERTAINTY_MEASURE_WITH_UNIT(LENGTH_MEASURE(1.E-07),#1134,
  'distance_accuracy_value','confusion accuracy');
#1138 = CONTEXT_DEPENDENT_SHAPE_REPRESENTATION(#1139,#1141);
#1139 = ( REPRESENTATION_RELATIONSHIP('','',#32,#10) 
REPRESENTATION_RELATIONSHIP_WITH_TRANSFORMATION(#1140) 
SHAPE_REPRESENTATION_RELATIONSHIP() );
#1140 = ITEM_DEFINED_TRANSFORMATION('','',#11,#15);
#1141 = PRODUCT_DEFINITION_SHAPE('Placement','Placement of an item',
  #1142);
#1142 = NEXT_ASSEMBLY_USAGE_OCCURRENCE('1','=>[0:1:1:2]','',#5,#27,$);
#1143 = PRODUCT_RELATED_PRODUCT_CATEGORY('part',$,(#29));
#1144 = MECHANICAL_DESIGN_GEOMETRIC_PRESENTATION_REPRESENTATION('',(
    #1145,#1155,#1163,#1170,#1177,#1184,#1191,#1198,#1205,#1212,#1219,
    #1226,#1233,#1240,#1247,#1254,#1261,#1268,#1275,#1282,#1289,#1296,
    #1303,#1310,#1317,#1324,#1331,#1338,#1345,#1352,#1359,#1366,#1373),
  #1133);
#1145 = STYLED_ITEM('color',(#1146),#33);
#1146 = PRESENTATION_STYLE_ASSIGNMENT((#1147,#1153));
#1147 = SURFACE_STYLE_USAGE(.BOTH.,#1148);
#1148 = SURFACE_SIDE_STYLE('',(#1149));
#1149 = SURFACE_STYLE_FILL_AREA(#1150);
#1150 = FILL_AREA_STYLE('',(#1151));
#1151 = FILL_AREA_STYLE_COLOUR('',#1152);
#1152 = COLOUR_RGB('',0.,0.377508427907,0.578582128266);
#1153 = CURVE_STYLE('',#1154,POSITIVE_LENGTH_MEASURE(0.1),#1152);
#1154 = DRAUGHTING_PRE_DEFINED_CURVE_FONT('continuous');
#1155 = OVER_RIDING_STYLED_ITEM('overriding color',(#1156),#35,#1145);
#1156 = PRESENTATION_STYLE_ASSIGNMENT((#1157));
#1157 = SURFACE_STYLE_USAGE(.BOTH.,#1158);
#1158 = SURFACE_SIDE_STYLE('',(#1159));
#1159 = SURFACE_STYLE_FILL_AREA(#1160);
#1160 = FILL_AREA_STYLE('',(#1161));
#1161 = FILL_AREA_STYLE_COLOUR('',#1162);
#1162 = COLOUR_RGB('',0.937179583391,0.9357410338,0.649182888601);
#1163 = OVER_RIDING_STYLED_ITEM('overriding color',(#1164),#75,#1145);
#1164 = PRESENTATION_STYLE_ASSIGNMENT((#1165));
#1165 = SURFACE_STYLE_USAGE(.BOTH.,#1166);
#1166 = SURFACE_SIDE_STYLE('',(#1167));
#1167 = SURFACE_STYLE_FILL_AREA(#1168);
#1168 = FILL_AREA_STYLE('',(#1169));
#1169 = FILL_AREA_STYLE_COLOUR('',#1162);
#1170 = OVER_RIDING_STYLED_ITEM('overriding color',(#1171),#108,#1145);
#1171 = PRESENTATION_STYLE_ASSIGNMENT((#1172));
#1172 = SURFACE_STYLE_USAGE(.BOTH.,#1173);
#1173 = SURFACE_SIDE_STYLE('',(#1174));
#1174 = SURFACE_STYLE_FILL_AREA(#1175);
#1175 = FILL_AREA_STYLE('',(#1176));
#1176 = FILL_AREA_STYLE_COLOUR('',#1162);
#1177 = OVER_RIDING_STYLED_ITEM('overriding color',(#1178),#645,#1145);
#1178 = PRESENTATION_STYLE_ASSIGNMENT((#1179));
#1179 = SURFACE_STYLE_USAGE(.BOTH.,#1180);
#1180 = SURFACE_SIDE_STYLE('',(#1181));
#1181 = SURFACE_STYLE_FILL_AREA(#1182);
#1182 = FILL_AREA_STYLE('',(#1183));
#1183 = FILL_AREA_STYLE_COLOUR('',#1162);
#1184 = OVER_RIDING_STYLED_ITEM('overriding color',(#1185),#662,#1145);
#1185 = PRESENTATION_STYLE_ASSIGNMENT((#1186));
#1186 = SURFACE_STYLE_USAGE(.BOTH.,#1187);
#1187 = SURFACE_SIDE_STYLE('',(#1188));
#1188 = SURFACE_STYLE_FILL_AREA(#1189);
#1189 = FILL_AREA_STYLE('',(#1190));
#1190 = FILL_AREA_STYLE_COLOUR('',#1162);
#1191 = OVER_RIDING_STYLED_ITEM('overriding color',(#1192),#679,#1145);
#1192 = PRESENTATION_STYLE_ASSIGNMENT((#1193));
#1193 = SURFACE_STYLE_USAGE(.BOTH.,#1194);
#1194 = SURFACE_SIDE_STYLE('',(#1195));
#1195 = SURFACE_STYLE_FILL_AREA(#1196);
#1196 = FILL_AREA_STYLE('',(#1197));
#1197 = FILL_AREA_STYLE_COLOUR('',#1162);
#1198 = OVER_RIDING_STYLED_ITEM('overriding color',(#1199),#696,#1145);
#1199 = PRESENTATION_STYLE_ASSIGNMENT((#1200));
#1200 = SURFACE_STYLE_USAGE(.BOTH.,#1201);
#1201 = SURFACE_SIDE_STYLE('',(#1202));
#1202 = SURFACE_STYLE_FILL_AREA(#1203);
#1203 = FILL_AREA_STYLE('',(#1204));
#1204 = FILL_AREA_STYLE_COLOUR('',#1162);
#1205 = OVER_RIDING_STYLED_ITEM('overriding color',(#1206),#713,#1145);
#1206 = PRESENTATION_STYLE_ASSIGNMENT((#1207));
#1207 = SURFACE_STYLE_USAGE(.BOTH.,#1208);
#1208 = SURFACE_SIDE_STYLE('',(#1209));
#1209 = SURFACE_STYLE_FILL_AREA(#1210);
#1210 = FILL_AREA_STYLE('',(#1211));
#1211 = FILL_AREA_STYLE_COLOUR('',#1162);
#1212 = OVER_RIDING_STYLED_ITEM('overriding color',(#1213),#730,#1145);
#1213 = PRESENTATION_STYLE_ASSIGNMENT((#1214));
#1214 = SURFACE_STYLE_USAGE(.BOTH.,#1215);
#1215 = SURFACE_SIDE_STYLE('',(#1216));
#1216 = SURFACE_STYLE_FILL_AREA(#1217);
#1217 = FILL_AREA_STYLE('',(#1218));
#1218 = FILL_AREA_STYLE_COLOUR('',#1162);
#1219 = OVER_RIDING_STYLED_ITEM('overriding color',(#1220),#747,#1145);
#1220 = PRESENTATION_STYLE_ASSIGNMENT((#1221));
#1221 = SURFACE_STYLE_USAGE(.BOTH.,#1222);
#1222 = SURFACE_SIDE_STYLE('',(#1223));
#1223 = SURFACE_STYLE_FILL_AREA(#1224);
#1224 = FILL_AREA_STYLE('',(#1225));
#1225 = FILL_AREA_STYLE_COLOUR('',#1162);
#1226 = OVER_RIDING_STYLED_ITEM('overriding color',(#1227),#764,#1145);
#1227 = PRESENTATION_STYLE_ASSIGNMENT((#1228));
#1228 = SURFACE_STYLE_USAGE(.BOTH.,#1229);
#1229 = SURFACE_SIDE_STYLE('',(#1230));
#1230 = SURFACE_STYLE_FILL_AREA(#1231);
#1231 = FILL_AREA_STYLE('',(#1232));
#1232 = FILL_AREA_STYLE_COLOUR('',#1162);
#1233 = OVER_RIDING_STYLED_ITEM('overriding color',(#1234),#781,#1145);
#1234 = PRESENTATION_STYLE_ASSIGNMENT((#1235));
#1235 = SURFACE_STYLE_USAGE(.BOTH.,#1236);
#1236 = SURFACE_SIDE_STYLE('',(#1237));
#1237 = SURFACE_STYLE_FILL_AREA(#1238);
#1238 = FILL_AREA_STYLE('',(#1239));
#1239 = FILL_AREA_STYLE_COLOUR('',#1162);
#1240 = OVER_RIDING_STYLED_ITEM('overriding color',(#1241),#798,#1145);
#1241 = PRESENTATION_STYLE_ASSIGNMENT((#1242));
#1242 = SURFACE_STYLE_USAGE(.BOTH.,#1243);
#1243 = SURFACE_SIDE_STYLE('',(#1244));
#1244 = SURFACE_STYLE_FILL_AREA(#1245);
#1245 = FILL_AREA_STYLE('',(#1246));
#1246 = FILL_AREA_STYLE_COLOUR('',#1162);
#1247 = OVER_RIDING_STYLED_ITEM('overriding color',(#1248),#815,#1145);
#1248 = PRESENTATION_STYLE_ASSIGNMENT((#1249));
#1249 = SURFACE_STYLE_USAGE(.BOTH.,#1250);
#1250 = SURFACE_SIDE_STYLE('',(#1251));
#1251 = SURFACE_STYLE_FILL_AREA(#1252);
#1252 = FILL_AREA_STYLE('',(#1253));
#1253 = FILL_AREA_STYLE_COLOUR('',#1162);
#1254 = OVER_RIDING_STYLED_ITEM('overriding color',(#1255),#832,#1145);
#1255 = PRESENTATION_STYLE_ASSIGNMENT((#1256));
#1256 = SURFACE_STYLE_USAGE(.BOTH.,#1257);
#1257 = SURFACE_SIDE_STYLE('',(#1258));
#1258 = SURFACE_STYLE_FILL_AREA(#1259);
#1259 = FILL_AREA_STYLE('',(#1260));
#1260 = FILL_AREA_STYLE_COLOUR('',#1162);
#1261 = OVER_RIDING_STYLED_ITEM('overriding color',(#1262),#849,#1145);
#1262 = PRESENTATION_STYLE_ASSIGNMENT((#1263));
#1263 = SURFACE_STYLE_USAGE(.BOTH.,#1264);
#1264 = SURFACE_SIDE_STYLE('',(#1265));
#1265 = SURFACE_STYLE_FILL_AREA(#1266);
#1266 = FILL_AREA_STYLE('',(#1267));
#1267 = FILL_AREA_STYLE_COLOUR('',#1162);
#1268 = OVER_RIDING_STYLED_ITEM('overriding color',(#1269),#866,#1145);
#1269 = PRESENTATION_STYLE_ASSIGNMENT((#1270));
#1270 = SURFACE_STYLE_USAGE(.BOTH.,#1271);
#1271 = SURFACE_SIDE_STYLE('',(#1272));
#1272 = SURFACE_STYLE_FILL_AREA(#1273);
#1273 = FILL_AREA_STYLE('',(#1274));
#1274 = FILL_AREA_STYLE_COLOUR('',#1162);
#1275 = OVER_RIDING_STYLED_ITEM('overriding color',(#1276),#883,#1145);
#1276 = PRESENTATION_STYLE_ASSIGNMENT((#1277));
#1277 = SURFACE_STYLE_USAGE(.BOTH.,#1278);
#1278 = SURFACE_SIDE_STYLE('',(#1279));
#1279 = SURFACE_STYLE_FILL_AREA(#1280);
#1280 = FILL_AREA_STYLE('',(#1281));
#1281 = FILL_AREA_STYLE_COLOUR('',#1162);
#1282 = OVER_RIDING_STYLED_ITEM('overriding color',(#1283),#900,#1145);
#1283 = PRESENTATION_STYLE_ASSIGNMENT((#1284));
#1284 = SURFACE_STYLE_USAGE(.BOTH.,#1285);
#1285 = SURFACE_SIDE_STYLE('',(#1286));
#1286 = SURFACE_STYLE_FILL_AREA(#1287);
#1287 = FILL_AREA_STYLE('',(#1288));
#1288 = FILL_AREA_STYLE_COLOUR('',#1162);
#1289 = OVER_RIDING_STYLED_ITEM('overriding color',(#1290),#917,#1145);
#1290 = PRESENTATION_STYLE_ASSIGNMENT((#1291));
#1291 = SURFACE_STYLE_USAGE(.BOTH.,#1292);
#1292 = SURFACE_SIDE_STYLE('',(#1293));
#1293 = SURFACE_STYLE_FILL_AREA(#1294);
#1294 = FILL_AREA_STYLE('',(#1295));
#1295 = FILL_AREA_STYLE_COLOUR('',#1162);
#1296 = OVER_RIDING_STYLED_ITEM('overriding color',(#1297),#934,#1145);
#1297 = PRESENTATION_STYLE_ASSIGNMENT((#1298));
#1298 = SURFACE_STYLE_USAGE(.BOTH.,#1299);
#1299 = SURFACE_SIDE_STYLE('',(#1300));
#1300 = SURFACE_STYLE_FILL_AREA(#1301);
#1301 = FILL_AREA_STYLE('',(#1302));
#1302 = FILL_AREA_STYLE_COLOUR('',#1162);
#1303 = OVER_RIDING_STYLED_ITEM('overriding color',(#1304),#951,#1145);
#1304 = PRESENTATION_STYLE_ASSIGNMENT((#1305));
#1305 = SURFACE_STYLE_USAGE(.BOTH.,#1306);
#1306 = SURFACE_SIDE_STYLE('',(#1307));
#1307 = SURFACE_STYLE_FILL_AREA(#1308);
#1308 = FILL_AREA_STYLE('',(#1309));
#1309 = FILL_AREA_STYLE_COLOUR('',#1162);
#1310 = OVER_RIDING_STYLED_ITEM('overriding color',(#1311),#968,#1145);
#1311 = PRESENTATION_STYLE_ASSIGNMENT((#1312));
#1312 = SURFACE_STYLE_USAGE(.BOTH.,#1313);
#1313 = SURFACE_SIDE_STYLE('',(#1314));
#1314 = SURFACE_STYLE_FILL_AREA(#1315);
#1315 = FILL_AREA_STYLE('',(#1316));
#1316 = FILL_AREA_STYLE_COLOUR('',#1162);
#1317 = OVER_RIDING_STYLED_ITEM('overriding color',(#1318),#985,#1145);
#1318 = PRESENTATION_STYLE_ASSIGNMENT((#1319));
#1319 = SURFACE_STYLE_USAGE(.BOTH.,#1320);
#1320 = SURFACE_SIDE_STYLE('',(#1321));
#1321 = SURFACE_STYLE_FILL_AREA(#1322);
#1322 = FILL_AREA_STYLE('',(#1323));
#1323 = FILL_AREA_STYLE_COLOUR('',#1162);
#1324 = OVER_RIDING_STYLED_ITEM('overriding color',(#1325),#997,#1145);
#1325 = PRESENTATION_STYLE_ASSIGNMENT((#1326));
#1326 = SURFACE_STYLE_USAGE(.BOTH.,#1327);
#1327 = SURFACE_SIDE_STYLE('',(#1328));
#1328 = SURFACE_STYLE_FILL_AREA(#1329);
#1329 = FILL_AREA_STYLE('',(#1330));
#1330 = FILL_AREA_STYLE_COLOUR('',#1162);
#1331 = OVER_RIDING_STYLED_ITEM('overriding color',(#1332),#1019,#1145);
#1332 = PRESENTATION_STYLE_ASSIGNMENT((#1333));
#1333 = SURFACE_STYLE_USAGE(.BOTH.,#1334);
#1334 = SURFACE_SIDE_STYLE('',(#1335));
#1335 = SURFACE_STYLE_FILL_AREA(#1336);
#1336 = FILL_AREA_STYLE('',(#1337));
#1337 = FILL_AREA_STYLE_COLOUR('',#1162);
#1338 = OVER_RIDING_STYLED_ITEM('overriding color',(#1339),#1036,#1145);
#1339 = PRESENTATION_STYLE_ASSIGNMENT((#1340));
#1340 = SURFACE_STYLE_USAGE(.BOTH.,#1341);
#1341 = SURFACE_SIDE_STYLE('',(#1342));
#1342 = SURFACE_STYLE_FILL_AREA(#1343);
#1343 = FILL_AREA_STYLE('',(#1344));
#1344 = FILL_AREA_STYLE_COLOUR('',#1162);
#1345 = OVER_RIDING_STYLED_ITEM('overriding color',(#1346),#1053,#1145);
#1346 = PRESENTATION_STYLE_ASSIGNMENT((#1347));
#1347 = SURFACE_STYLE_USAGE(.BOTH.,#1348);
#1348 = SURFACE_SIDE_STYLE('',(#1349));
#1349 = SURFACE_STYLE_FILL_AREA(#1350);
#1350 = FILL_AREA_STYLE('',(#1351));
#1351 = FILL_AREA_STYLE_COLOUR('',#1162);
#1352 = OVER_RIDING_STYLED_ITEM('overriding color',(#1353),#1065,#1145);
#1353 = PRESENTATION_STYLE_ASSIGNMENT((#1354));
#1354 = SURFACE_STYLE_USAGE(.BOTH.,#1355);
#1355 = SURFACE_SIDE_STYLE('',(#1356));
#1356 = SURFACE_STYLE_FILL_AREA(#1357);
#1357 = FILL_AREA_STYLE('',(#1358));
#1358 = FILL_AREA_STYLE_COLOUR('',#1162);
#1359 = OVER_RIDING_STYLED_ITEM('overriding color',(#1360),#1087,#1145);
#1360 = PRESENTATION_STYLE_ASSIGNMENT((#1361));
#1361 = SURFACE_STYLE_USAGE(.BOTH.,#1362);
#1362 = SURFACE_SIDE_STYLE('',(#1363));
#1363 = SURFACE_STYLE_FILL_AREA(#1364);
#1364 = FILL_AREA_STYLE('',(#1365));
#1365 = FILL_AREA_STYLE_COLOUR('',#1162);
#1366 = OVER_RIDING_STYLED_ITEM('overriding color',(#1367),#1104,#1145);
#1367 = PRESENTATION_STYLE_ASSIGNMENT((#1368));
#1368 = SURFACE_STYLE_USAGE(.BOTH.,#1369);
#1369 = SURFACE_SIDE_STYLE('',(#1370));
#1370 = SURFACE_STYLE_FILL_AREA(#1371);
#1371 = FILL_AREA_STYLE('',(#1372));
#1372 = FILL_AREA_STYLE_COLOUR('',#1162);
#1373 = OVER_RIDING_STYLED_ITEM('overriding color',(#1374),#1121,#1145);
#1374 = PRESENTATION_STYLE_ASSIGNMENT((#1375));
#1375 = SURFACE_STYLE_USAGE(.BOTH.,#1376);
#1376 = SURFACE_SIDE_STYLE('',(#1377));
#1377 = SURFACE_STYLE_FILL_AREA(#1378);
#1378 = FILL_AREA_STYLE('',(#1379));
#1379 = FILL_AREA_STYLE_COLOUR('',#1162);
ENDSEC;
END-ISO-10303-21;
